<mxfile host="65bd71144e">
    <diagram id="HIP3nbAZw_EuaXWnEj3U" name="Page-1">
        <mxGraphModel dx="673" dy="663" grid="1" gridSize="10" guides="1" tooltips="1" connect="1" arrows="1" fold="1" page="1" pageScale="1" pageWidth="850" pageHeight="1100" math="0" shadow="0">
            <root>
                <mxCell id="0"/>
                <mxCell id="1" parent="0"/>
                <mxCell id="7" value="http://ics2o.mths.ca" style="swimlane;whiteSpace=wrap;html=1;" parent="1" vertex="1">
                    <mxGeometry x="40" y="40" width="760" height="480" as="geometry"/>
                </mxCell>
                <mxCell id="12" value="" style="rounded=0;whiteSpace=wrap;html=1;fontSize=14;" parent="7" vertex="1">
                    <mxGeometry y="20" width="760" height="70" as="geometry"/>
                </mxCell>
                <mxCell id="8" value="&lt;b&gt;&lt;font style=&quot;font-size: 19px;&quot;&gt;What movies can you watch?&lt;/font&gt;&lt;/b&gt;" style="text;html=1;strokeColor=none;fillColor=none;align=center;verticalAlign=middle;whiteSpace=wrap;rounded=0;" parent="7" vertex="1">
                    <mxGeometry x="-10" y="40" width="310" height="30" as="geometry"/>
                </mxCell>
                <mxCell id="10" value="Enter your age below to find out!" style="text;html=1;strokeColor=none;fillColor=none;align=center;verticalAlign=middle;whiteSpace=wrap;rounded=0;fontSize=19;" parent="7" vertex="1">
                    <mxGeometry y="120" width="310" height="30" as="geometry"/>
                </mxCell>
                <mxCell id="11" value="&lt;div align=&quot;left&quot;&gt;&lt;font style=&quot;font-size: 14px;&quot;&gt;Age...&lt;/font&gt;&lt;/div&gt;" style="rounded=1;whiteSpace=wrap;html=1;fontSize=19;align=left;" parent="7" vertex="1">
                    <mxGeometry x="17.5" y="200" width="275" height="30" as="geometry"/>
                </mxCell>
                <mxCell id="13" value="You can watch: ..." style="text;html=1;strokeColor=none;fillColor=none;align=center;verticalAlign=middle;whiteSpace=wrap;rounded=0;fontSize=14;" parent="7" vertex="1">
                    <mxGeometry y="291" width="160" height="30" as="geometry"/>
                </mxCell>
                <mxCell id="14" value="" style="shape=image;verticalLabelPosition=bottom;labelBackgroundColor=default;verticalAlign=top;aspect=fixed;imageAspect=0;image=data:image/png,iVBORw0KGgoAAAANSUhEUgAAAggAAAGxCAYAAAAH0U5DAAAgAElEQVR4XuxdBYCUxRf/XdPdHbaktIQgXVICSogiEgL6p0TFLgQVBQkJRUJQQLq7S0K6pbvzDu5u9//ezPdt3ca3e3u5M8bV5G9m5715GWSmAlUUAgoBhYBCQCGgEFAI2CAQpBgEdR4UAgoBhYBCQCGgEHBEQDEI6kwoBBQCCgGFgEJAIRAHAcUgqEOhEFAIKAQUAgoBhYBiENQZUAgoBBQCCgGFgELAMwJKguAZI1VDIaAQUAgoBBQCAYeAYhACbsvVghUCCgGFgEJAIeAZAcUgeMZI1VAIKAQUAgoBhUDAIaAYhIDbcrVghYBCQCGgEFAIeEZAMQieMVI1FAIKAYWAQkAhEHAIKAYh4LZcLVghoBBQCCgEFAKeEVAMgmeMVA2FgEJAIaAQUAgEHAKKQQi4LVcLVggoBBQCCgGFgGcEFIPgGSNVQyGgEFAIKAQUAgGHgGIQAm7L1YIVAgoBhYBCQCHgGQHFIHjGSNVQCCgEFAIKAYVAwCGgGISA23K1YIWAQkAhoBBQCHhGQDEInjFSNRQCCgGFgEJAIRBwCCgGIeC2XC1YIaAQUAgoBBQCnhFQDIJnjFQNhYBCQCGgEFAIBBwCikEIuC1XC1YIKAQUAgoBhYBnBBSD4BkjVUMhoBBQCCgEFAIBh4BiEAJuy9WCFQIKAYWAQkAh4BkBxSB4xkjVUAgoBBQCCgGFQMAhoBiEgNtytWCFgEJAIaAQUAh4RkAxCJ4xUjUUAgoBhYBCQCEQcAgoBiHgtlwtODAQMNMygwJjqWqVCgGFQIIgoBiEBIFVdaoQSC4ImDRGwTmzYCY+IiiImQkqZqpjV80zkyFqWP+XXBat5qEQUAj4AQHFIPgBRNWFQiDZIaDTfJpYbPQjPIqORVhYKELDwoghIF6AOIMgYgjMwfY8gVOWwAWfIPrgzgRzITiNZAeDmpBCQCHgOwKKQfAdO9VSIZDMEZBcQqtyb+Ho3hOWuWbNkQXp0qeBiZ7+BQrnIaFBCH0fg4KF84NbpM0QgWw5ssr6RPPz5M+J4OAQ61qpXS76XUhoiBA4mM0mVKhRRquvmIRkfijU9BQChhFQDIJhqFRFhYAPCBDFNUsZPP1jFffbPcrFDyYizlSHX/WOkn4fhpVNzDSiGX+NXICv/zdcUyUIku66R5IC0KVADAOzDYCJJQNi3iRqcFmCMf/gbyj6eGGfZ+qqYSyN3bZcV5So+CT6fdsDGTJn0LQg+pysSCohht/hVx0GOAKKQQjwA6CWn8AICKolSbIkzUK+j6sXr+PI3uOY8tPf2LJqJxFvE0bNH4LqDSr5ZUIW8T8NfP70RTR4vB2Ciaaa3NF5m5HNglExE1sg5+vJ3nFf9BqptvCzmuHCmcuoX/wVmlkszYNYFuq/2NOF0fKNhihd+VkUfaoQMmfJqM3Ps82EX8BVnSgEAgQBxSAEyEarZSYNAmZiCaLuR2LO7yuwb/tBnDh0AmeOX8L9u/fFhIgMS6aB/uv77Vt4o9+rfiS0TDCpf/pSOVtjPLgX5RGEnp91wokDZ7Bq3gZEPySiHBRLPbAqwbXUgWe/lxiEhCgXiUGoSwwCS1bYGlKXxYjv6HfMj6TLkAY58mRHcEgQChTPhzHzBmvsWELMSPWpEAgcBBSDEDh7rVbqKwImIkbB+uvUex17ybBa4mXNL2x3pflrDfDlrwN9naXbdu2r9cTebYepDovmXZeNV+Yhc9ZMogLPd0i/0Zg5bi4ePYom+hws2BnHwtKG/dGrPUoZfFnY0X3HhQ1FEIk+zCRlcV1Y0kGGmBHh2HV/uWIQfAFbtVEIOCCgGAR1JBQCHhGwKggkeWR7AuPlxSJtcPX8Na2BayahZpMq+HnON8Y79qLmN++OwPTRs6kF6xiczyEoOAh7HxKhj8sCYPigCZgw9E9qGau95q2V8pGh47Jj0xLEi+HwnmNoXb479R0jVQzu7Cfor5mzZMLGq/O8QEZVVQgoBFwhoBgEdTYUAgYRkMoAFm07+AZ6aD/ys18x9uupHl0BnyxbHLO2TzA4G++qLZmxCgPafSNsHVyVzNmJuF6aKxggUTS+SDcHvHL+KuoVa4dYExFrm1KtcQWMmTvUuwkZrL1r4z68VquXpk5ww9xoSpD8xfNg6WFiVlRRCCgE4o2AYhDiDaHqIDUjcOXCNfyz9l/89PF4tHytEbp/0knQT+MSBDP2bDmADjV6a4TXtQQhV4HsWHVyVoLAef70JTR47FW3cyjyeAEsODhF4wx4GlbrSnZlDAoiAk1qh4bPtMO545c1o0szOg98FX2+esvKWPhxBeOHTMWIj34l9YL0rnBdpAqnVrPn8fPfX/txBqorhUDgIqAYhMDde7VyDQFdMiCNBYGVs9eT3n0+ju4/heuXbpLAgKz52QwhPBT/3l+hmRUaYxGYpMU8ikH5TPVhiqGXNxNZF4WN7PZEORPx+2er2BbCXSlR/ilM3zLGgoo9GyTlCGbS8z96GI3ahdvg9o27QsgwbNoXqNe6un8m6dBL14b9sWXlTt0FxO0YzCD0/ao7Or/PXg+qKAQUAvFFQDEI8UVQtU/xCERHR+OTt4Zg4R+rpH6dion+ES9m4V7HigXppLiLGITwiFD63hiDoIPTonRnnDh40qUGXXcR3HxtgY2vv/+g5f5LhtW2hlV20nWZ55/FlHUjxV88OQxGPniICpkbCC+CMfMHoxq5Z8o4BN7h4nqF0gPjWWJqggVj4t6FUo+B0O/b7ni9X1v/Aad6UggEMAKKQQjgzVdLlwjcu3MfVXI0IiJk687nGFBIBjF6sVVV/PTXF15CZ8b4IdOEqNyVkR0HNOKYA0vJ2C9/kbxe9u+5OpPbUsQgsNuiiMTkpNRoVAWj5rF43h2RtwZN+u27aRj24Xj8suBbwSB4Zis8z1MyJzIMNJeSYS86xDhwrmaQUqBgchXtQq6i7YwNpGopBBQCbhFQDII6IAGPAL8+W5SRL3xPJTwiAjvvLfFARO17EW/hWDNKpyFi564QTZy+eQxY1J8QpWQIjS80HA5EViZnwJv92+N/g7sYHNqMGMrvUDZtbWy9sQTpM6Uz2M67ap7UItbeJEPX59tu6NzPHyoGKcFgwCb9OAPD3h+LkPAwVHqhDAb+2BuFH8/nxJfFk9zFu7Wr2gqBpEZAMQhJvQNq/GSBwM3rd1AjT/O4xNNudpKQDvvrU9RtVdOLeUuCXDKUX/CuDe3YefK9YT3QoXdrL/o2XtU1sZXEteugDuj92ZuGOhSrICzGfTsVb/RtS2qXcI9eGoY6tlQy4+DuY2hbsZtXzd7o+wr6DvGujasBeI3RUQ/xfK5meERfRRwL4cEiGQGONFm9XgVUr18FxUsUQqHiBZCnUG7Nn8Jfqhavlq8qKwT8ioBiEPwKp+osJSIgL37guYz1yaAw2uMSONTvvL2/e6wnaCjbMmh5DLrU64dta3Y5bSd17MGoUqccxi3+zlsTB0NzYQbBlS6fydngyR+h8avExBgpEjLLPKX7J//sP8L4Te/hmP4Lu10aKZLJefGlahj+95dGGniowxEozfjlq8kY9flkGfFS4w1kwCtSCAlGQX7Vg2BxMKmlx/9A3iLMKPgPCz8sSHWhEPAaAcUgeA2ZapD0CGiiXLKoR5BNlkEfJyb110H48aMJ+G3IH256YQrBoYeBtWfmIHueLBoJ8EQI5Hx3btmD16v30cwd+VdWaQJHIxSSfvrdvkdr/E9aaKhS4S8ISwfHohsXDpv5Geo2r+Ejiv5txsg0fqodzp64aLBjuQfP166AsUu/tXIuBlvHrUasHUXQLB3BDJOjPYrrTkMjwrD7HkdyVOoGn6FXDZMNAopBSDZboSZiFAHxKvcyWJHbvrW7/PBeitpHmQNdFyuheOzZgpjz72RZ1U0aQdsX+93b9/B8jqaSeLhM2RiMfdGrjELhRT0zSpDBX1xWRgYf4n/m7PoNj5cs6kWfCVeVcZP5IyINDaKTY05Tve4iR4yMf2HPljm/LzVO7AncefsmodgTBTXJiifGMf5zVD0oBBISAcUgJCS6qu+EQUAQZDPWL96OGo0q+2EMnbwwUWpCiZQeOO3Tmk9B6p//ubEYadKn9UqqXiN/C9y4fBvBWuIh60D6y95EDMIaP6wpbhfPEoMgR3GwgyA8hVSECGuOnNkSZGxvO71y7ipqFyNbDBceF877C0amTOmx6fp8b4eLU//65Wt4oWBrizeFK+8TgaYWwClLDopEeZHG1mwU4j0J1YFCIIkRUAxCEm+AGt4NAoJu6+oEZgqCcPPqbXzZ+0esnLUBYWnCbDwK/CHSNeONOn2wY90eF5OyShD4u3Jk0T5x5TBNQWFsJz/o9A0WTnOVTIhdKYH5RyahCBm8+dcQQcZBkMWWQWC9Bv+OGJOYtcYWkcC1mN4unbkaAzp8YUOgnQ1qu+e8IybypkiPrdcX+TZDG0lQt0b9sXnFTm1vHRiqOL3LczFmwRBUrV9B2h4oJsG3PVCtkhUCikFIVtuhJuOKzN++cQc9X/oQe7fvB0X9lcZw9LpcdXYGcuXJYXloxleoe+b4OTR+pqPFYl0aosUtZjIoZMO1ZcemI1/hXIaJ+bqFW/B2iw9FzANXr9Ken3VG90EdidzpFgPxXZWcv4gpEIdBkNNgGcL+ZMIgMKF/r8PXWPIXq1pcr12moWY7FE1lQ2uISBuBHXdYLeADZqIbE65fvIlahV42/GFk+5FMWTNi05W5fgwUZXh4VVEhkGAIKAYhwaBVHXuPgK20AGDXw62rduCDTt8iNobIJRklskeAsBrXOv999U8oV72090O5aMHi4tLhdWASXgWuX44cyIdDMLOb2+iFbBTnOoSy3VDCWLA2zZ8Imw0R020VeMQnShTD7N0T5OvVH4IRngD1UzKcGQRna+I8BqZkxCCQR0mGeuRaGON2DyrUKIPt6/dY3Ap5DaFhFA47cqWP50EaJpbL0JBiPMTI82bAK4MlBm8OaIN3v6Gsk6ooBFIRAopBSEWbmeKXQkSZX81f9foJG5f8gwtnLgkayqRXCA1YH81JEfhfYfVvJpFuRYrkN0TYBLAYwcB97gEmE16t0hP7dxzR6rliEiTx5iltvDIPmekFaaQwa1MhQwM8fPjQjkGwtCXjy+x5s2DN2VmS8PnRGLNkeC0n/IEFXfKeoDwQPjy8jazbmzoxMbF4Lm0dwSC50/3P/Gc8pYJ+y879kAn69ttLkDZdGm+GtNQd3GcEpo1kI0cJhKcQz1yH92kP2Y0ot0afIFeNkjECikFIxpsTaFOTcgF+wVPOAOIITII+BImvFI3fJRxs1CftxNzH6zeGpwnrFm5Dr5YfuqNNFsLBjEr2vBnJ7ZH89fWMg264FJ5mr6aDsH7pZjfTIVfH6LXGputFLWeBkvT4C7zYvYLIJX3Zs/0gOlbrRa95zofhOCPJ0LR4rSEG/tSbjEobiTrSUJB1/7GYt2cyOFaFsUKSAlBuDWp/6cJl1C3Sls4euc4GS5sGcew8gFKiHCW52qonuTI2qqqlEEgJCCgGISXsUqDMUbzIY7Ft9R68Vb8frVp73QqXQBcMAv16+y32JkhjSBxsBMqb126hRt4WBqpKIsIv3SnrfkZZSnbkkZpQjTP/nUfjJzu47X/e3t+IyLHLoQEKZWCmXMU5g8B8jXypJ5T3hMHpWaq1rtgVh3cd1zxB7fddlylM3TgKz5R9HGXT19ff+sKOgl/xI/7+CrVeqmpoWL0Nfy2XoT6iH3LGTckY6AGurAotJ13S2ZyxYyyeLv24ka03NCdVSSGQXBBQDEJy2Qk1D3nBa25t73X6Ckumk5GaoI+6GDwuSKyUaPFGI3w5bqAhcbAxmM1o8Hg7nD9FKg6XRRop6imic+XNhlVn/tKYGk+jmFAitI5b/fqXE95D804NE5xB4HgSbJjHD/D9MWs8TTxR/l4ytKa259or3mZUPh7p0qTFtlsLReTJEhEvCFGTkCIIlQwoYROlfO5vLB+DtGsJwXuvfYml00kSxcyBiIwYjJqNq2Ddom2CCXRV0hJjyl4TwSEynoTiEhLliKhBEgkBxSAkEtBqGO8Q4Cu5Yub6ePggWtgXuLEXRI58ObD69AxxOcdfRC6J/qfdhmLOb3qQHCNzD8KEpd+jUu2yYh6edNflyA7hkbBDcF5eal8PX038QNohxN+wQgxSIpQCJQmAHKUxziUIgtxponth4yGMJomZEB4cfi5CemSiwEhRqJy1sevOqV6luuUxYclQMZ/2VXuQZ8thu/qtOjfGZ2NZAuVhlhoM/27bjw7Ve0uGTWNQ67SsjpCwcCz/awWhZW+AKpgRFjKQPUzLTo3w+bh+WmpwxSD4+VSo7pIYAcUgJPEGqOFdI/Df4TNoVpJcDgXhd3HZawRsxakZyEOMgtQdx7+cPHIWTUu85onEWAaSxDSIYgnoURDduecBn3b9DnMmLnY50XQZ02Eb+/P7ZzlinFKULMpE3hNx9fo8CM3dIYKjZJV4ZRTdcesBlKj0jFTz+3NSYmZSiM/4/T5sBn5435U+X3pb/LV1LJ4p/6SYxcdvfYe5v9vjWLFmWfy6YpihQ2Ci/qpkaYIHD6K0OZiQJl1a/HNnMRo+1gFnz1zUmFNbpkpiwlzCiv/o3BXKKdZg2JPF0MxUJYVA0iOgGISk3wM1AycIiOuYxL/9X/kKy2evpx9ciHm1VMV9v+mGNwYYEysbBZwJqhA5GyjCSC44BC3fqI8vxr7nsoUedW/T8u3o0eR9l/WY+O1hrwJheGnQhdLdPGl6JcNqOpFGSPVNEOW02PvI0T1Q2lewXr58+gbYeH0uRSokbw0/Mi1yyvrL24yONd7Bv1v2u1mJDEWtS2imjJiBIX1H2zE9eQvkxvKTfxrYNaBu0ba4fO4azYCTarFmIxg77i0T0p1KJMkINocIuxjbRbNaxhREtgqIoLks1WwV+Jz4YZ8MzVpVUggkDgKKQUgcnNUoPiFgwr07UaiaszFZtHMHOmWyec1pFuwZMqfDlquL/CWNFzSrdtHWuHL+mjZzR5c7+TO/ppm46MSBddEriTjlzEvSDNdsAq5dpmA8BTgYj97WUewPbCN3vXTpIuyIk08wakS4RGgtoduXUgG92Lg5RjNDYl+uXb5B+Sm6iPkuP/En8hbioFC2e+H7jOxbmhH9KBYVMtVDbGxcLPS6+QrnxrLj0y1z2LiMGS1myOy5Fo6FEBLKibxci/3/GrsAX/f6QVMhyHwUo+YMxgtNKmPD0u14uyn3Sx4Oog+bOWl5NF7v0wr9hvb0FwAJ0I9SeSQAqAHVpWIQAmq7U+Bi6WU+ljIs/vzxr5IGsA2ZDS3g1zUHt2Gx+d6HK4n+xU/UK16mUo6Ozcu2oVtjeuUzUbVJ6Wshj/SSLPxMPpw+eMEiaeD2T5R5HLN3jBficHev/xfyNcP1K3eFViSupXwQ3vmiM976wL23gzc7KkMt20tEdDNAZhP2EoOgZ3bkfmdOmI/B74ykoEGPBCs0af0IPFelpDdDGq7Lu3by8ClSKb3hsg0zYr8sHCrCGYs0y/T/C2RIWu+xV+KoTbbcmI8MGZ3FppBI375+GzXyEYNGzIiJbVyos0p1nsOERZxqOwi9W36EtQs2a5IFB5EJu7PSP7sfLCUmJMzwGhOuom4sq6uEdGZWSTQSDvPA6FkxCIGxzylyldKrge3GglApSyNE3Y+MY15nu7B6rWrghz8/lz7x8daVmxEZ+QgVM9Z3biSoGbR1/eg1TPrhTzyMZJGzJL58Pc/YMQFPlS7uBncz2ld/B3vIQC6uAaZ8+aVNF05Bf3wMG+xkZGcMAleTTIGJslP+jutXb2HxtBWYPXGJthJt+VTp9zU/47lqJRLoLJkFEzjuW3fptoOw8fIcZM6W2TIHEfmSUjLrqhv9D+vOz0HWnJnEGhxtLmJjTWQI2Yj27KHlPGXMQqGSr1KiJWkMgVKc+VJEy2TuzUGCQFXSZSBPCrYR8ZPNS3xA5dnt++cgvh8wBj/N/Byc0VL7AMSnW9VWIcBGyloqMgWGQiAZIWArHOXvV/y9Fv1eIeKvCfXtpmqTOnmfEJOziTlzCL4ry6UNhAnVcjbHnTu3RXppW8G3IB5ESPIXySMiOTYhY0rdb56bpk1PRoa3SOXhBFNdfz71p1kYMmCUU9T1JIb7hR2C7+uw7VyEWnb8uGvBnaSlPuvhmS3TXPYsmyDHn7T2J5StWspPs4m77HLEjD2KeuTyFGbJngnrLzrkO6A5inYP7duNnEeqgkaVtL5s8TPjf60/w6q56+hv8oXNf11wYBIKP15AMKNR9x+iQhaOr+AK92B0G9QBvT5zLe1I7I9SGYo8yeHImcMZ9PO7aNu9mZv5J/bs1HgpFQHFIKTUnUsG85b0g33opUieiUv0I7IboHTJWbPR603kTPCXzbsZLxZqjasXr7td+ej5g1G9oT9SQMthPn5zCOZMWibW4oxcMKOwN2Y1iaQHkc/8JphidaO/ILzevy36De6qESJdtG8j9qVflYwguwBngaBY1UEGc2sp5HK23PFPwcx7VVoYXTq+hnk+HAuAd49XyN+ZZGhrB6R/XzMC5aoljIqBCVuJsFoyDobjwEJiHozGr7yIwVMGSVdLi2SAwm3nICbu9h272Tbr1ABfTRgY56ysW7QFPVsMIl5IGmYyHO3fbYH3fnhb7BMP5cwzwq4jmuOiw5NR6DHOuJk0RUrJ5K6N+3YKfv7oN8mg0oJYZZK/UB7M2fsr2bCk1yREyh4haXYqZY+qGISUvX9JO3vtzpG6dmDLqp0Y2PFrkZL5p1lf4UWOZicIqx9ewDTWrk370KnWu+KV5KqUrvQ0pmwkq3Y3xmnegKYbwfGr2t64T3PNo9+y1IL996vlao5HpK/XQygxpdt0eS4yZsuoJV2yx4F7KEV2AVqIH4dpSUZi0PBeeOVtI1EdPa/KWSRFSY3lRnLMA35BC+NLodqx7zMhGYSFpNZ4/7VvXAh95JxG/P0lRUisJmQctmeqZoFWuE7GlNYSRGmf01rSPuuk8d6d+6iSvalsK+I5ABkykXErqwq0I8UMVIVMFH8jMtoloNlyZQGrMDTK6xn4BKthxu0bd4lxfplye0RbP2ViwcQuhAbh61/fR5N2dZPBXBMMBNVxAiKgGIQEBDe1d61f1FOGz8Loz38jyQEH/tHcxUJCKHjRTGTPRfpQf/AHmvFgxaz1EXnftRiaCfnmy7ORyUZPHZ99MMXGonTaetqr1XlPzAzVblYVmyjBVPeX3pMEzEQEnvTTackLQaganKo7zKhZsCVuXLojjOHilmBUo2yRYxZxtsj4FjNJK8hIkQw6bYse5+DZSk9h/OLvwLEn3m39Aa5duCWYBtuSkAxCyzJv4tiB/7QxbeYosmryyxgiSyN5klKxN76r/1hbXDh9xQEgW3dIySJUzfYS7ty7L/N8CC2KGZspRXOmrFabhnu37qNyjsZuw3bXal4FI2Z8o4WCju+++NpecnCvUqCo/f8cEaYQvLX2QcUYNxPyFsmH5UenxtlPX0dW7QIHAcUgBM5e+2Wlmg0XqRKiMeKTCZj8w0zEClGng684XeLZc2XC6vOztdce3158R/nILXDoOmp7/OAZtCj9urQJCKYxHZ+5NESfwd3xRv82fpJcmMAv1GtXbsbpTwp4yUiuQglM3TyCKQ5qU7Ifq2ukhJzF1x3faR3n5ct/Gzd4Kn7+5DfR1lnJRFkiOVukfDH7Lia+ScaH1fO3cBGRMgglKz+FaRtGiymw+DomJoZE7UOw6I/VlpEnrfmJjBRZxeDjHjos0CqDoVd75oak+6dgRULDYO1fZO0kz5SIiDTYcZcDItn8Tfup+XOv48S+0za9c88h2K8FfuKfBnb4GotnLKf1a26L1E2PT17D2x/Z2xFMGTELQ/uNdFgjT4okDiKkM2XvJKkQG0r6vhu+fRQt42lGuGvnbybV1sdCSueq6MGugkPD8f0fH6Fuyxra2hJ79r6tWbVKWgQUg5C0+Keo0eU1ZML21bvxdrNBImUx64yFHUIcoiGJZ+N2tTFk0kfitcbia99Ji2bxQP0wg3Di8Cmhl46rSiDRKj2n9pDLoz8IGY/6Xf8xmDJ8pksinjFLBmy+ukDQ7/8On0az0kR0tDubsQkNC8Pqc38jS1a2y7BuOeNz7sQFNHrKvSvjWmKysufiVy439g3BEwfOonmZ12yIg/3RK12pJKZuZCZHMghcmBieIzfCthW64c6tu1h6bDoZZeZ2EPDH9wibsH/nMbSr3F2eIaHbiNtn/dYv4Ptpn9qtXydx77X7EktmOsRwoDUsO/Yn8hWloEmz1qPfq59p3bKm3iwkTOsvEvPKZ1JjWnnd7atSqu9/DsWZgp5enGemZw/1ldf1HTH+nNGZp4Vfv3IDLxZ5mWJGkMSOU4K7YDDlRnLUR/ayCUHJik9jMhmbhoYxo+TbWfJ9/qplSkNAMQgpbccSeb5WYiEvE1YnDO1POn66pEwcYY4ZBEsyJQcdO9XhS/TPLWPxbPkntJn7+HKRElXBjGxfuwdd6vR3HeWQ6k1eM1xY3Me7ENGIvPcQFbNx4qS4hYlLCAVH2nFvhWBMOF5C1wbvkT3GLqpMqYSDQgUT8+xzj2P6ljFx4iI8uBuJStmaUF1HFYM1QRVniixThdwLfb7PzTi+7xSal33DheicPTKisf/RBrscEjqdZtsEnuPSY9OQJUdm36fhBD/mRUZ/PhG/fD2Z/uoiKRerAm4sRkayF7At8iSZMaDd51g6c12c3r/6dSAq16lIKZxfliocIW2SX7fdWkauihyEigsnZwKiHpD3QtaGco9kZC6tUDshwzehTosXMOwvYlS0CJ7OVUfxPnWuO+DPHUUYrVusLa6evy6dUgydC2mEygiPWzoUlUXOEBUnIQF3KlV0rRiEVLGNCbkI/QYyi1f0EGYOLC9Z6RbHLxNp9S5JijTKtzMYBF4AACAASURBVN5cmcijYe252QgL4wvJ0G3mYkHWPitla4xI8paI+9hkIm1C/uL5sOTQH9pr1/At6hJI5wZ+1uqT145Amaolxeqio2NQLm1dTfuhqQZoCj9M+xz12lS3vMD14Eg187XADTLsdFXYvuFHsnOID3JLyU10ALmJui7S2NJYiT+e+vHgM1MjXysybL3plijupUyTzg1PiUFoT5kYZ6xxaB8kmLJTx87h/t378twJNVUI2vVqgQ9+7GUl/kLWRYGith6k2BS94owjVivE+sGYuWMcxbd4jE95PM+yMaSd1Xr35Y+wet4mbXwn4ha7RvqpkfWGTv4IDcgbJNEZG9+Xq1omIQKKQUhC8FPC0LoE4dj+U2hFIXfFJasVZgQq1iiN1/q+gglfTcKef46Ki9PCKNiIxF9sVgXDZ33pn0uVLutrV27hhYItKFa+A9nk+ATErgSTi+DCQ+SKVjS/9lDylbzK12U7TfTsas+6ftARvSnyoSxmrJy7Hn3I396CFc0rLDwY224uRjhlCUSwJi6muf6v1adYNX+jy+PAj9W9jxwJoHenZ/msdULMLhk050SFReeJVljlpA1WKpwjPLogdMTs5cmXBytOcSpt56V/+8+xbMZahz+yIkFz3xRSLvZaCEEGCnC0mQIiBQlpDzexnouWJGHhcx5XksEcr7Sx2XlnGcLT6JKHhEfLNisoI/Q7BeUa9v54+s6ZUWvc+QhUNUPPl99qgk9H9pHSD18/Dgm/ZDVCMkJAMQjJaDOS61SYQDZ5ugPO/HfOzigwIiJcWOiHkMcCX0RmUwwGdBiM5fRalWmB6RImc3GZ7CYYM7b9gqef01UN8VktjUaXfo18zXHzmuPLW3tnEkF4uUszfDqaLsR4FP2lu3jaSrzf6WuXPZUsR0Z+W0dp0gFOB2wmMXAbXCYxsC3x4xgNo+aTO58m1mZx9rRRszH4fz+7maWZwiAzAfTdZXTUlxMx5vNJgsi50p0nJoOgv7/XLtxChnYf2J0rRyC6UrjpXp93jvPq1Ylnf1IxLJsZl0HQiaiwH+CV08JHzvsSNRo9L2QGgkaKgFcsITChRHgdaQJBRpHO7P7KVC6ByRtGaBK0eBwqH5ryWv/dvB+v1XzHa+EFrzN7nuxYRRlPiUcSn0XFH/iwCQHYRDEIAbjp3i45+lEMnktfN87bM3eBXJSYiBPnSF2mHuL41NFzaFX+LURTKFvdV5yv40xZ0mHDpXmCoYhfkeRlw9KtlFCHiItDsb6RzcKgTKZD8vVKlGNdoLS/9Yu3czltJkG7HiwTBokyho0JB3YcRdvne2jEhuMMSDrIOuAqtcuJfrn3c8fOo9Ez7gwVgzFh2Xeo9OJzPsM25vPJGPUlB9Nx/XpMTAZBPy+VKORxJEUudG1kRyGeVw1HOZJUuaKMb7d4HxsWbnOJjZlzaRADUPzZIpi7e6KsJzgAeSZY4rRn+0F0rErElwqFTyLZg+MLPYi8UXqQNwon2PL1LPm2ffy5ioyMRJVsTSnBqZY7wpNmwW6oIMzcNR5PlaTQ31Jfkuhr8G3lqlVSI6AYhKTegWQ+Pl8lfdt+gpV/U8plh6dnHkqru4IyF9qKQS3LoYZMvDcs2yovYfFKA9p2a06hYHtrr0Hu3RdDKSn2Z2JXLU9zChZDUgQnknP+1YAfeqJjb7rU/XCnVya7h3v3HrjwKjNj05UF5FOfUfMCEBMUapnje05b1s/SFLaB4xwLach1z0xpg8nMUeQT4KRTkpVh9YNtCUKV+uUwjhIV+bqQ/u0+Iz09SXbiiA+kYSDv4f6YtYl6GvkVX4bUCybNa8Lp4HRotl5bhHSZ0sfZQknmzKhX/FVcPHPZ9dyl6YEInJQuo72ho04wu1Pmxk1LdzjtQ0obgkm9sBThaUk9lFhFo+MPKHZDtdwthGux9yUIJco9SdItMpD1vrFqEeAIKAYhwA+AkeVz4hoRotfBZJovzr1Rq0nfzze1A6HXKNz8P5Zj0BsU6Ed3X6PfLz0+DfkL541HoBlrLL3pY+bgm3eG00zYlUtm5bMjrUQZ9j5a4TNhtfZlxusv9sHODXus3I4DER/wXQ+89r/W4rf6G42/lqQ0y8GED+vEhZKAflmC3M2mb5JxB7iUTVefYg/IAFCO7zuGPVe+bFh95m8j2+W0Tv9XSQw/a62Tv1k9BxJTgsCv9vWLtqJXcw6dLPNaOCs585Jo/MxMUcf5y9eM6nla4BZlZ3RdgmhfXsaA7zicsk3RJDoMeNWcTXH39j0XXUiXXTbilI/vxCK1ZspNEY065LFw8wozwV6JDSxr2XV/BUm2OCOpL8y4z0dONUwFCCgGIRVsYkIvgS34+YXJd7SjqH7j5fkUNCZuWl0Ov8wXKf9z+dwV1KeUvDEkHuWLPn3m9NhybYFf7lkmNByu2GUhUf+wP7/UAsTED6mpP5MXR1/pxWE1sZN9CmUBXcB7H60krHSUJKmfMW4+vuj9kyRyQqBtEmJsPRw1E8cu9frhnzX/6ppxqufgZkd/YQNHziLoS+lcpw92rN+j5WpyJDQ0e9qvxJYg9G3zKVbOWU/usq5pX1nKHjmJskiyVCWOtEnjpMqkqUvxANjP33kJI1uZnXeXurTcP7LnGF4u390Bc/u+GrargyG/f5i41v+0vrKk2othyYGPTEnn915Bn6/fpP0ld9vE4mt8OaCqTbJEQDEIyXJbktek3Ln4TSUf/VLPPyNEsK4LP9WAhk+2x/n/LgtGo+sHr5LV/5vWJjLIgQ/FjEnD/sL3A8fK6IocR9dSJCEv/nRhzNszUbtkfde/3iN3uSoiZoETfQaTfrqB9z9apf1dn4Qcr1aBlrh2mV+5enIrdhGlsNDX5iMDMUwLp6/Ch69JI0hmIRzx5HWM+JvzW1TzASOgY43e+HfLfidtrWvxXoLgezIuE8UUqMjREzmHgFMVg5zXlxTLoFnHBgLyuMfDjP8OUWCqUnyOpPeMzvpIRQ3/1owvfhmAlm9SHAvBYzj0QmMPp0iWE77lUMSuC6eCzkQBsWTx6aAa2jcxf2LWOJJl81Kdceb4ebvz7NpWw6F7OovhacKw7YY0IlZujYbgV5Ucj5FK96zOhCcEJIPgnChWrlUe45d/56kLIf5/RC+h12u/iwPbDtNFHYKN1xcgY/q0lmvdt0uMDLg4wE2WBkRo2PjRxg2T6QHft8R8LD42FQWK5tMIiW8XvEiuRBkRybcy7j0t+IBg/LGRGKZKz1jw0PXkRyhQEdsjCO8Oze2MK+XJn0vacRBjUyq0jrSgj/Ok5vkGod7LNfDD9E89Y+2kRnOOPnnwtOu2RFD2idTS3hRrsGSvWtH6T1N8gibPvoYQGjeuDYKe7ioIu4XhJ0f9c1ZMuHPjPt6o2wdH95wQR1RnrqxxFnhdq6RHjRPekH9VPkM9EuWTBMKNCJ8jcwbTmXVqb+PN4j3U1b0rmhPTc+LQSae1Pc1BD4j01oft0ftzlh6w6s23M+/HpamuUiACSoKQAjctMafMl0vpcLJBEAwC/+co+jaRWJ10s270mxYyoj3vWO+8bvEW5MiTGavPkl5dhIrljJC+6kjN+LjLd5g3aYnlBckYsUSBk/IEkfFfsWcK2UgRfEewQpb6lDPAWbIowoagqd+GQgLbEnFNz83Ita3SDQd3HKPvrCJ+XnOXga+g95dvkaqEGTFXEgQpYt/vY6wCzvh39SIHI+KxbVUMbLvB6iAZQthwoXNx7vQlbF+zCy3faGyomS2h+qzbd/h7IiWxMhHRdUhBbcuKupuT9BaRa2GZyz+rd+FrskfhV3cM7TlLJj4b2w8tO1N0RD4LxIQFO0i6WHxfNn29OHYftgsqX6MUJq4cLhmQBCa2LFl5vdb/hEujoxpLzkkn9G7sEYghDg0Lwe7IpVRfegwl9LwNHQBVKcUhoBiEFLdliT1hygIYRi9bi3bc8WIKxuLDk1GwOAUkMlTkM27ExxMoj/0f9OIeqb249XePoU7sKvGr8fb1u+TR0EzYB0gCqMenlz/z/zeTxCIDWcP7LiLmaJIy1LRj0UfJQamA11DuBFnsn6z37jygdMOsooh7uS85+gcaPtHBBmfbEaxcBgdM8uUxWCNvC9y8ThkaXdIVmf3Qm9KnzScoTbEBXu/bxlAzSdBl1ZJk+GplVuKK/VkVkCEL2apcWeiWeFsH1hcWhKjIKHAio4N7j6Hnx68jIo2t54H9WJ90GYo5k8g+wRU5JmL78S990boL71tCFxM+oJTXC6Yxw60fH7kuKQFhADnJVCctpoWr+QRhyORBaPQKSbuU4CChNy1V968YhFS9vf5ZXIOibXD+3FWnnbFlfs2m1TFytusgQvakjqPbydDMK2eswPTRCzGRsgT6RPUcaGjV3I1x52akMLjjm9GRkFZ8oSwmrPhOjO/rxXmLAjOxa2VcbwkSldPrj0W5K07PQO682ej7uPEeRn7+K8Z+NY3mZ+9nL6UdsRRgMYSyY7JPhnNK3qJTI3wxYYCgrYJpM8gtlAyrKSQ0emRMZ5u5lyQIRukJ98MqkX7fdSUGoa3BgyalINcv3EDNwq3ct6H1dRnYAe+SgZ0vxUz5CkShPXC1JsaPs0g+5DgMTngUATKpfFad/Bu58+fwZRrG2mic08COlHHyT1bzSJyEBEHyBILxZRfZ0QuG4JdvpmKvU3sSOVxE+gjsuLnUq/NhbKKqVqAhoBiEQNtxH9a7cPpKetkwA+CQTEc8kOmlR0l02IiLwxsbKVLcaX3MWh5LhsmTPWegX6QPySWsQiYyaBPFMfEPCZfpV+svziGvC8qq6Euh9XIGy/IZ9THsO9HFuF//9j6adqinGdbFJU/PpW9APu0cHMha9GA+khRI4q8XW/FwMAH3L+nUvcmL+eB+JCpmaSTsQJwzFHJEbxiEk4fPoGmpTuj/bXcvGARekRndG7+PTcu3u98BerkvOPA7ijxZyJedsgGWz6jNjzYYnPvvIho+9apQcUnbBdu9kphkypqZ4lvMse8kfjOK05r3+svuwzBjAqlchJGtNTujLpkKJqb37a+6oHP/V1CW8ny4Y+Te+qA93vmCwqKrohCIJwKKQYgngKm/uRkx0bHkp18vjhjWGvjXhMnrRqLs85Rx0FOxSMvl60i+go0xFs66lkJ8TQFCl2iDx9vhwmmSdvAL0u51La/aju+2xHvf9/Y0S6d/12326xRujcsXrrnsIxulZl57fo6Yl7NAUGeOnkXjZzo5MYqzrMRl38xILNw/EUWeYMJpr8Jw1ejW9TsUK6C5lKwQDPaE0CYOAud7MChCaFP5LRyiNM1vDHgVfb/pZhBPSfyYiYviKJseyoaLc0X2SP8XiduQ/qNIZUThhzU9fVz9SxDKVyf7g9Uk4UrAMvrz3zGGcplo2b20c6HLDaSk6ZPRfcG5FHjOfwz/27WmiOruiSIGkm1v4vG5SsDlqq5TEAKKQUhBm5VUUzURYSmXviExCs6M8+SsylQriSmsKhBk0Zv3rX9XtWbBJrzT4hOahkyu46zsJV07i/SNEkO9D108//GbQzFvChuAOS8c72BPDOmR3SytTaXuOLLzMKkTWARuLPGO3l2b7k3x0c99DU//3El6KT/RTgtIxL1YpRP6C9VYHATpOLhn2xF0qMbZEIPQtmtjfDSqr6FNZEn6puVb0KPxh+6xJxVLaEgYGdlxgKuEKWZSB1XL25y8IO66HID3e/zSH1ClDofF9mchIMhTxUTqi6k/zsIPA8Yglr535hzDo7bp+hI+GvkuTLE05zwtcffWPYtxppgVJ6IiDx7+5L1HwaA6asG6/Dlj1VdgIqAYhMDcd+9WTffZt31+xh+jZlE75699JjQi46Cgik6C2ng3os+1xSWa+yXcvUNR8WwyPVo89mktr/XRo+rxZI3PVb47TZg1fhE+f3uY2zl+/esAvPQa+d7HIeOyl0sUPKoeBY/i+XrDTnHrjGRouenqPOF2Z6Qc2n0MbSp29VhVpnt2x9ZIxUdlUlc8uB8l6rZl4jXqfx77lhVM6FSzD3Zv2ufCJNDazdNln8SM7b8Y7Nd4NXkOKBvopVuoVdCdHYTEYW/0Sqrvu4TL1cx4Hr8Pm4Fh7/0inHiYOTCJrJMcRlwycGzD8ny98hi7iCKRUlk1dwPebf0p1WXPD83Ggv8gIlHKc7Q7ciVCQ42dC+OoqZqBioBiEAJ1571c99G9J/ByOfKpdkNAWtNr8pNR/b3s2b/V+eId9uFY/D6E0gM7Rn9m8TrbndHF+28UvU75Z0EHjMnVZTKqILCKgH343ZUceXJgzdmZTqroagEz+lEWwuUz1/kEwIL9kwzr57ev3YU36/azITyO65VyBE9ujiaKVlg520si7oQwniMiVaUuEbDF3xteQ8lQ8l7wGDI4GG26NcbHI41JJgwPblPxf20GYdWcLWLdTgvttSmEEm49pBwkfi9m/LNuLzpT/AaybBV2IcwcSKZA2omwRKfQEwWw6AAFcBJHhrJNkjeR2Cn6m70tCRv0xKLzwPYUNdEzI+j35agOUy0CikFItVvrv4Vx6iAOXSNc5a6Rq5xFt257uZImN5QS2txdJr4aJbr+m6XekyTApYgQuYrvzzV7fvYGug9iIu+NBEGGijbRJV6ecydExwj3Mxm/2J7Q8K83Xp5HRm7uDCLNdOnXFtiykZyhojE0pSiXwx8bR2njSgIfB3ONsPw5Zh7FBxjhgg4ypScDTvqy7vIcZM3O85X9iTTJWtfH9p/Am/X74eZVmfNArJb+VpbcHKesd52q2sIOEUYThv6BER/9pnXvgjBrs/xm4odo2r5uAh0jdt3l8Nzu5hCEV7q9hEEjjUpH3O+eNDRl9jUYK2avw4A2n4sQ07rBrm1r5hUKFc2PhQcnkROGVB3s33kUr1bu7iKeAcU9IKnB1hsLESGSSRljeA2dN1UpoBFQDEJAb7/nxetidb50po+ejW/e5RgAcQki/50fhr0ofDJHcEuqK0q+rmgeLT/GugVb6UIlt0onroBhEaHYfmOJjNLnxWR1glc9V3PcunlbiHXjBrRhYhCCd758nVz1OroB2US5CDaiT9tP3dMqmx400i2IgDGvAxM+7fodZk90bTMhuw/G37vH4vESxTT2jwMoAWdOXcA7zT/CqQOnyV6CWEUtIqFO2AoWLYDFR6dIpsHRS0JjUHSr/FL0ApZmqe6ZA64/78BvKPZ4Ya/2xvNpFpMkUf1GvEsxHNxuO1Hp6ZtHokQFiorpxflwPQdaM/27f8cRtK/+NkizREyZZMKcSVQ4dXhYGBF7wb+a8UL+l3H98nWXbq3Vm1bC6NmDFXNg6BCoSkYRUAyCUaQCuJ5VKA6K9scBbvjWsg9rLAgXEY9Qkh78c2spQsNdhcdNWCCl/jYI50+xYR65sLm53b+eMJDsBGScf6NFt2VoXakLjuw6IVkleoFzCGXbwq/F7LlzYc2ZGS77F6SSIv7Vo2x9l8+79oqw7ZelIkEcHpLaduzbCgOG9tRsGFxJEMxoVuIN/HfktNMlSoZDSjAqVCuL/MVy4/Txsziy5yQiyT1S6LcpPgPvtwjUIwia/FlnFPdFr3VLFxnfA/QCblulhxZqWuraXZUgsq3Y+9AfGTidj8Bhp48fOiXVJC43P0jmyciUId4hOngWjO+5/y6hEeUjkUsn10qhAmNMrVikp3TU687NlmmlBe9A+T3ImPVVwk4vjowY19kb45gDxOiJVvUUAq4RUAyCOh1eIECJbQaNx/ihfwqSErfIFDkfDOuFV3u3FH+WansvKLD1GtRE3E4In9sZW+s3Iz/9EwfPShLgQJD0d7+FuHk5zLKZa9C/3ZdiJk6j8AkvCROJfReBL31JCPjGd5y8GVspXHGX+v3pocjoCarlRk2vqxPMyJg5AzZfXcAAO0FEG4/+UiKilk1/UtLjqH6x5IfQsnBaJ2rLHsphHKUmu8mtLpSTIGnqD7vJaAxb10YDsHnlP1pbvXepwnAM3hQSEkw2IivFSP4p1s29evE6XiwkU3K7E9vkzp8TK0+RHYul+DgXbeij+06ibaWuwmXYWuRnSJ9dSEgolh6bhjwFc9rMLwjtq76NvdsPOUChtwpC9cYkPZgr45R4eYz9A6/qJdUioBiEVLu1CbMwDhf8fI4mUjTqJCWxvO5CsefRchn33vLa9HI+4u6MJUKmuwF6b0m+YOoKfPgGWYALLsWeoZFELghvf9oBPQa9IWm3N7crCQxKEuGVxTEok1XcXrk2JbNaOsSmju069Ih5oMyG9RD1gBIGsYpEJAUyZpMwct43eKFhFTkNOxrGrm/MOwSTvl2fp6xmtZLnRWvZJX1g5OQJMGH3vVVglY0zew4e6+HDR6iUqTEZ4tkSR6lsYJYyljpiGwi9hJJoffcDUon4nOHTxVmjMSZ+Px0/DBrn0U6ydvPq+Gnm5/Gag1RvBeNh5COUz9SQVstRRHX7HJsFizzqxCheJWYyMzOT1nL7FoUQz9lMZqEkg0ZrYamVZPQWHJiMwmTQKJl2HxkZLz+eqnpgIKAYhMDYZ7+tki911mnPJZ22nS5Ze9jq4vYGL9fEd9MpHoFFHeH9FDgC4ElK5/tMuSd9kkLwdVk6vLZzYivu0mCky5CGjAnnIoxUIt5JO2SOCseQyc5WufvBcrJ1CHPyJ4vzJalELlGQp/aCYIs+pfzZY8maMzPWX5jrvB7ruOkvpdggj1/q1G/uvDlI9ZGdUkynQ8582ZGvYG6ky5gWWXNmQfacWZE2fRqkJUyy56JQ0Ta9CkNVmtO50xdgijbh/NlLOHfyPMUrCCeDz9el5b2IRug4b15PEI6QF8wOstz/Z/0ebFm1Aw8odbaFmNkmaaDfZsuRBesucj4L/xA7qwyE43mQcSklaGLWRO6d8zG+/u0DvNSRomF6YcQaZxNoXXfvPkDV7C8JQs4qGuu41to8vzHzB6N6w8oOXZjxSpXuZLdwVKgaHLka7u2pUo9h1s4J1E4xBx4/LKqC1wgoBsFryAK8Ad2pMbHReC5tfadeAroAnEXHLC7NVyivz/d8bEwspXGuTzYN7Bnhi283uRK++iWWzeKgRfaEQL7fZHa/Xp93RtcPyJjQG3pEHZQKryWkEHx5sx+6q/Ja/7YYMLibrOtYSdzr8nKvXagNrly8KurYyzvcnbkgzNv7G4o+Vcghcp7uexKLu7cjER4R7pC0yNtz7N7bwxV5skgrNEWM7lZ699Z9nDxyBp90GYITh0/bTaYyBSYav+R7v5E8OTcTrlDsg9oi9oFnhHc/WCHjCVizJnkLGCIpaVSdgq1x584d2lDdZiNuN90HdSJJFjFZ/CebAxL1IErkinA2X3lszPht1Y+o8EIZUUe3v/FJo+f16lSDQEBAMQiBsMt+XKNOCMZ+MwUjP/1Ne3U7IQ9ENJ8oXRSzdvxqUZFb38vGJzSo82Ds3PAvlh79UxIML28/ExkBlmIdvBvqz4R7PwcJ8vIR9krFHjiw+7DbxfCa2VZgA7k8hpJu3R0XsmDKcnzQ+RtpwMcvRjZGJNEzTytr9izIXSAHcuTNgtIVSiD/47nwZIkn6NWfhdJmZ9Om7g2HY3wPEqqmYIJYpUJftqzcheGfTMCR3cdRoVZpjFvygx+HlRvLxqAXz17x0K9k49hDxPsi94rbM3Nbr9irGsPnaKWis39BaNimNob8MUiyTyShsTXe7NfhC6z4c51gLOXxtWdCw0PDsDNyuffTVC0UAgYRUAyCQaBUNR0BebnFEuGtkqMxou4+tFc1aNW07Aj4ZdFQVK1XwS1hdI6tvGrPcphgsvz+aPg7aNuDdLFCjG1MmiB7ICv+Uq/jv0Nn3G5hu14t8MGPnKPBOJH9jtI+Tx7uLBiS7VBSNDx67jeo1qiyS0aF5xp5LxLPUxRI06NYPEtqlZrNqqIqvaY5lXamrGRNLwiF8fkl/zOrMUKaBIUxeHDvgaCD6SkBWLzE+zaL536jSF1VKSvbzni27WAPgp13lvkAHxN5drMNRhPKtXHqGBnIsuqFhnT02uBz+TTt8fTNY8i8QA/7bVWG3KIQ0C/kawlTDNmlOIoWxMyC8NOfn6N2q2penVkfFqWaBDACikEI4M33denC4p3+WTmffPhf/tgFfedbMRjhpNvfTqlnQ8L5ljOmV5cd0mUpVMRBqJi1PrncRZHb2SLSnTOhNFr4wqa00nPXo2+bz1w3Yt9++uuue2Qr4IV75rqFW9CrxSCLr7qzASRWTAA8RyqUz082GuSXJPem68j5B9cifvkSN5762Sh6CVlPJ6SWMTTaqKt+xDucIwl5c2RcTZiY2TFfTcaor36TOThcFN2To/vHHdDzk85eL1/XFrWlgEaHdh2W9gZiX6S6x7ZEpE2DHXeWiH3l/eZ9t7XfGPvVFPz8Gc1XJFximxQ+G9Ye+Nc77q1AOMfxUEUhkEAIKAYhgYANjG7NqC+yJ1628+V2XHvtFmQRPuMLIWkwnneAX5dS0r5q9gYRTOip0sUxc8c4rRe+MT1TD65ljo2ldMdN8CgqSqZnkP+zmab8uXWXJvhkDIf3dU+QRUNq/u+2A+hYvafDqvS+7W90fiQP/Kk32veS7p9e6zPcEjVjLFOcQEbaLG7fuu1Uu5ImTQTSpEnj+ihLzsSpVMO6egfKlgQfjFja/yrZmwopgu2ux5mK5jWx8tQM5M6fw9hMLcuTPb/T8hOsWbBRO0OuR1t77m9hCBrXUUOcWJQMJQNYp7Ei5F6369ncKvEytv3G1qNqKQRsb0a6NNx+ZhRaCgF3FIJd2CpkYBcu98dowcGpKPJ4fp/A5PdXaRGgKZg8Iz5Gg1Y1DWkCxJwE/QrCW436Ycvy3c4D9LB1ObkWshc52wpkyppeMBGe7B1OHzuHxk93sNTj155485NMWffm0O9u/n2ufFmx+jSl6hViaGNqEreAOdBe/ijfIxH9if/+w9nLV3D58mXcuHEDTCBjTbEi2/1PWgAAIABJREFU3j/bZDDdiaW8CrJo+m0n2xfE9g+aZIKagf302R0xiGwpgkPpvUu4htCaC+bLh0KFCqJAgfwonD+fT3uckI0O7DiMVyr3oD0m3N15hwhvimDsur+UvFo4ZLHnoqvS+Lz0avYB1i3ZqqPq8hNRvlop/LZmOFsqSONFOwJvxs+fTMS4wZSDIU4PzF4HISYoBpsuzEfWHBm09knPhHlGStVIiQgoCUJK3LXkNGe6m34mY8Vxg2W4XZeFX9wU/Ma7PA2aCIEuym5N3qNUwf8gPE04NlyYQ8GH0ruIS287A/3iNOPOzXt4PtdLQnQvbADtJmqVKLzQ8HmMnP+VIVnHjSu3KARuC8G4yB61CIPUXW5yISxeoiiq1auIWi9VQ4EiuW0kH1TBwbXPLXQaD89fbtFr/9ad2zh/8RLOnr+A02dOI+phNBF/GVOAi2VtGnGXSaZsRtAqSNdEvYGsYxtAyfYBK5N06QyX1pdmDyG716QuOgEWeQeIKcqeHYULF0KxIoWQLXNmZMuWDRGkxpGi88Qp5TLVp1gED41Jr2gZex+S14thWw8J5vfvU4KwH6YLVYJcWdzYGPpqhbItNBR/bh0jpGK2mxMTHY3KWV/CQ5J2xdGlMfzUbX5yTV12YrqNEEqJEBLnJAXeKIpBCLw99+OKJcGIJkOqukVfpVjxNwQRiatKoLc5BUyqWKMMfl3xk6Zf14i/wbtt+9rdlJFQiv9rvfQ8hv/9lViH5+ZWJqFarma4ffOuTupc4rCKwiPnongBngL1MNEpn6mBoPVPli6Glm80RrnqpVD08YKISBfhpH9pE2GU+Nwnkfi+gwdx+Ngx3Lh5i9zl7gpGwL44efp7tcPuEHTXt6Oaxsigsk2aiAhkyZIJ+fLkRYlnnsZjRYsYaexFHX3eQTj87zG0rtDVbs+tM3dYAzE1T5Z8DDMproCxcyWn9Gm37zH718U2xoTW8cXnQctfEUySI5Owd+HsjdJm5MXmdJZnUEROjSGZNupvyncyUnCxzl1zzVhyZBoKFmNJje04XsCjqioEDCKgGASDQKlqzhCwXlDHKBBOy3JdqFLcl5N08iJRKl2KQ6Z9TK5dLwhRLzMNRj0SePSy6esi9hFlUKQxFh+ehALFOXqc8bJu0Wb0pMRD4vJ1SfuCKWFREczeRcFnRCVXL10RFFkalmk8iKTdxowFHe0BWFVz5+5dbNiyDXv275Ph+Sl6npkM9diHPzUWaZwnV8ZrzJU9G6pWqYInihdDGjLiCwnWQgf7Sgep3YhPf8X4b0m6RaJ8Vu0EC7WJ7m7KEh/rCeI9afl6Y3w2gcJeuz1ZGqNHcx42cAJ+/XG60/oycDaPS+oZYgBWEuO5fv4mfNVnBLlBErOgpXoOpnX+umoYnnu+JMpnbIhH0Y/EZyWOvQ71EUZGiawCMWJ/kxrPjFpT4iKgGITExTvVjabbHjAt/ajzEMydukyKj23dyVifzyRAMARBWHOeDbSySOLqRelQoxf2bD0gxfPUel80J6gx3kfkg0hUydaUXMfYRsAVh8CMixkTVw5DBZJ4uCsicqAgclYphSGZBts8UJOTp09j/8HDOPbfSWIOKJiOZC80ghlfyYAXwCZBVUn+bNYols06DvmFd7Vg/vx48onHUPKZZ5A5U0aBjhF85XK0k0lN1i7cjBlj52Pj8h3iXMp4hsx8xI2k+MHw3mj3tm5I6n73v+49HH+OmU+VpMdOXJsBfU1m9P5CD8Zlwq3rd9G72Uf4l8+yFvOCmYlizxSloFGnLN47cRVhQfhi/AA0f52DJ6miEEh4BBSDkPAYp+4RbO5sExnCVcvVgiL33XVYM0caZJWCvJozUijfrTcXeXHZy6ty46Kt6NF8oMaABKNN1yb4eFQfQ/hKUmRC39afYsXcdS4lF3pE25CwEPxLIZJdMSBi2bwkXRTM32sEz5UKgV+om7f+g7WbN9MrkfJMmEgaYuOeKGUFOoMgpQbCTiA12hGL3AIagyAzNml8n8wxIHZcZ+JoU9hAMm+enHilVUs6P+kMqGm0SJIW6Y5ZJEratHw7ueZ+imjC3pFHZJx/Xf4jKr1Y1sOZMuOzHsPw94SF1r2h9YhgmnYiLRl+OphsLvbep+yUti4LNK+tq3eia/0B0qlGuDtKTQNLHYQBYxwpRhB23aU00Gmche029DFQlRQCXiGgGASv4FKVPSFw6shZvFSyE939/Lqm284Sqta2ZTAq1SqDccu+E5bwxjIlCWqMkhTeWNJh7htYdnw68hbOJa5Sj94B1O74oZNoWaqL69DIYs4y5sDA73ugw7svS2JlQFJhlwRJW+5F8iY4fPQ4qQ42IzqWMUkOkgEp0WHipXt8BjHB1oi0xT5P12y4ehx7OgwJ8nc5mYL58qJG1SooXrQIhUSmPBoaw6bTVGcunZLtkDIajqj4de8RWL9ksxR2aZzhkiN/oEBR0u/bEXrNm4Mxo9/3e+VzrPibIhwK2wLX+8kYB4cQo8nRDp0ZPVLbqKhovFq5G44fPKWF7Hbd3/MUcGzswqESVW90awmyD6rTQEBAMQiBsMuJskZ5iTIhnTl2Ab7o/YNQIchXkfXSk3kL5FXNotIvx79nUHAsn4LlMjfAowePpHia+s2WOxvWnP3b8u52vVRrsJpSDtkNbdsIAqK/9Eg3vOzoVOQtlEdbgzF1BsfgX7xyFY4eO4EHUZGSedF17cmBP9AWbBX+6ImWeJI2hns6UdNftoKBMGZjkRhHjjOKcmroXDmzo3rlSijx7DMe6ab+StcP3SPyAGEVxIcU4jqaiPUueukHh7IFQlwKzGtv//zb2Eduk/KcMFxuKDX9/auJH6CZSPrkUERbwZmQC2oQauZrQaqHe/Sza3uTNWdmUahtip0g9kNxCIlxxgJ9DMUgBPoJ8OP6pTudJDAdqlMO+22UpyBOUCL+s06szfh+2qdo0JqkAh7uO73r0V9OwpgvfheMiK6j/WJ8P7To1MjtZS1fmDw/kJX4CEwf7SIDIs0/W45MIgHO5+MHimyPRoI7RUU9xIFDR7FgyRKR1JeiM0lVCP0nJBu2+nY/Yu5TV2Q3ER4eQgmcIkRCojB6gecljwLeOiaNDNOtW7dwP+oBqUKi8YgMQx8+jBJGdUlbNGkTi99pskLOo3M5bPRKcQ6K5C+Ipo0aIGf2rC6JqNwPq4GkrcupZIC4Z/s4FQ+jHqHR45Rb4dING8mBDTPlBJjHyNh1zu7f7FULjswZzX/X5r14reY7Evs4jIT8TIVTOu2dd1d4cqxJ2u1Ro6c6BBSDkOq2NHksiC/Uhk+0x9VL1x1sreyvwGASbf+64keUJ/dAUVy8jHTXybPHL6DR0+3pTudAPdLMLC1ZvK8+O1MkRTJSYqJjUDZdXa2q5Eyy5sqIbh90QqN2LyJrtiwGupEzOnr8P7Ir2IqTZ84aaJOwVYThn6bPly9k6T/CapxiRQrjqccfQ768eZCf/mPLeW8Lx2C4QMGXTp4+i0NHjuA2eV0wxyURdBYnM6nEJUEUayEM5cqURq0aVSkccbgNs2CVm3iz/hr5muPm1dv2TRz4A+uP8rvtt5cIbwwpQbPlgO1/rpG3GW5e0+12HDDTqk6krI3lPRjNerMeVVchYAQBxSAYQUnV8QEBM+5T8qHKWRqJF5dwfrSoG6yXpSRqlM3v2gKRoEcjaXEECrqO+T5FCqycrYm4gHViyKTphSbVMXIO+ZMbLLULtcWVC5fxHEW1G7v4O6RxErfAXpxuf6kvXr4K23buFI5sYh66wZ3B8ROimp5LQKrTKZlWxQqoU7MGZZEkozcHxssfqgL25b9w4RKmzJgpVSlJxQ+4AlMzhOS4C2936YwsmTP5pCIRe0yc6EslO+LU0fMWVZrE1CpVEcIyjlRJQAyd8jkatq0p+AKzkCY5Rs4UveLgP8coymM3IRBjptc+qRNLc9hDAtgTucrHlOcJcdJUn4GCgGIQAmWnE32dkqAeP3QKLUt2JvGv1NnGFaFyNdIlk953xvZxeKxkMRIb66oK55Mul7EuRcaLliJ8zWaAvQlWn55BOtochvSz9+8+QNr0aeglrendPTws+c9XrlzF8jXrcOzECZuJMTXmaSQ9dWSC8zS5BdatVZNE7DIFtPCndyKVcWZQ6faIuMWHJDlEx7bt2Ikt23dQpMc7FjuTpGEamM2UxNasxRrg2AfhpE5pVK82SpcqIZgm74oMADZj7EJ82fNHaSOrJVmy9iMlB4WfKISFBybRd/YJmOzG09RdNfK2wo1rN21saOzPkYjN0LkxvhjXX3yeVFEIJCYCikFITLQDdKz1SyjrYdOPhEug9H+XxlmSsFovvTASC6/87y9kzZ1ZCq4tbmH2mQzbVuiGQ3uOy9eVTeH2O+8vt4Yl8AFvZ3TwxKkzmL94CW6SXt7OiM+H/v3dRFcr1HuxBio+9xyJ05PeBe7SlSv4489ZuH3vPi1XekoEmWTGQlHiEFZ/o+K6P55LaHAYSjz1BJo3aUwMoqyrM1FGFBDnTl5Ck2c7IJZdVQWDyrEzxMKEpGzFmZkiEqeuenFF2Ncv3kqBu963+wzYzlywrjSh5af+pORRuRV/kHjHRI2kIaAYBHUUEgEBMyb/OBNDB4wWr35pM68bDcZ9FU1aMwLPVS0h7RHEjW3PIPRuPghrKSqiM2LdfVAn9Pz09Xhfpiw+P336DKbPmo1IimwXxEl1hG968inBwaEoV7okmjYkK3kjlC2xpi4kRWZcv3GTGIWZuH6bg0AltYGjzeL1Y0XzLFuqFElcaiBDekrQpRUtgoJbtB6SUWrdIm1x8/odwczKGBhmvNSpPr5mzxxxzt0UkmzULvYKLp+74saYEsiSIzM2XiSD2jh2DIm1mWqcQEZAMQiBvPuJuHa+dGeNW4iv3/4JsUTwXbnWSzoXhHe/ehNdBrbT+Vi7mfZt8wlWzNnglEHgZE6bry5ABH31tezeux8rVq/BPYq8KEidECf72ltCtAvC48WKomWzJkhPRnDx5oYSYorcp4bZgSNHMWv+AgovrGeQTKgBvetXeuXKWAZPPPYYWhGeaclewTOzRcyOcNcNwmsv9MTuLYeIhzUjLXm8bL+12Ka5axbhyJ4TaF2e4nF4mPK4RUNRmeIfKOWCd3uravsHAcUg+AdH1YsBBPiV9c+a3ehaZyBigqWrGqdGti+aWyBR5AJF82PxkalxXlh9236GlbPXiPTFjvr1DBnTYv2leQghdYO3dvonTp3GlGkzRZAntpngwowB54sQYaI93eYGMIhvFRZiv93lDeTNlcPWOy++3fqtvS7IiGuYZ8KYCZNwkew4pIGk34b0uiNdq8VbbKIYBIJJYAkHqQqKFMyLNzq2d2vHItdoFdm81YBSia/+F6PnfI0ajSsLBsM2aKLjBLllqdCa0o5B68nZIhgiziwpU1YkIWBeI6wapBYEFIOQWnYyBa3jv0On0bZSd5GCVw9PHCc2v7g96dIm3fWAYd3RvkcrcPhjLi+VfB0nD58SGl9xbWov/Kr1K2DMgsFSNSHJuwFUSJVw5jym/z0bDyjAkRMzSgN9JGwVjVVBscIF8Xr7Vw2tKmFn5HvvB48cw8y58xEbK9U10iszGXBe2pJ4JnzKypUrhwYvvkAxIsLcxx6wqMA0Y1cX0FicQGmtbHvQq9kgF/lAmGlmBsNMOSFa4YOfehk7xr5viWqpEHCJgGIQ1OFIEgRuU/riOkXaIfJ+lHi9CWLv8ESXbl/SHSyC4s8Xf7YoMlAc/n/W7dGIP0sfiNDQE+ur395Hs9fqaa9qXQrhXobAWfNGjZ+IG7dvaUaRyYdQ2W4Kv0ab1q+PCmVLG/LQSJIN9WJQZsR+GDkG0YS/P9wtvRjabVWLKomf7BR0KTgoFM9XLI96tV7wwG8aMQDR5A70pXre5rh1jc+cxiHZzUpPMkUZS49MRiHKWKqKQiCpEFAMQlIhH6Dj6sZcMuRyEGWAHIz5U1cSkbdPTsOXp4kNvciYS1ytFoNFScR1whJK6W//2DACT5d7ykYMq2fNcS5BePToEeYuXkqZFI9wT+K/5GdnIA8IBzTq2uk1CnBEVuypqIjESFOm4fS5C5pXS9IvTiTG0vxshOZLeN2YERYSjs4dX0UByv8Qp4iKnBnSfQhqvd/5k5ZhUJdvpQOP0yVL98x8RfJg6ZFpMmqjZ6OIpAdPzSBVIqAYhFS5rSlrUScPn0aPZh/g3H8XNZ0sBytmQa/2MtN8xtkDgl0bxW/pa/5i+TF982hkyU5ukYaU2iTe3bwVK9euT7YA2WV3pDW90+0tZM+WNdnO19eJiXXSP/OIUdu5Z6809kieAhzJkBJFz5szJzq0bYNMGTPEIdmGJCG0vhKUbMxI7qs+g99C5/66ka6vKKt2CoH4IaAYhPjhp1rHGwGWHISIC/c/YhTaVemBB/ei6GeOPkcXMxuR6eoHLYBSCOUO6DeUMi32bsmiBLfMge6ydv9BFIb89JMci9QWycHg0BY6x7TOQSQ5+HRgf5ntMhUXJqzMJOwiJkHalCQjd0hH3CkaIs+3QplSaNqgLqXZ8MYM1ozWFbrg0L8nPBgcEgKUNn1/LKckV0UhkLQIKAYhafEP+NGt2lupfOBX5b3b9zF34hL8s2kvzh4/j7u37iAL5Uco8lRBSuxUE7Wb19BUDNzC9SUtHqT0v7kLF2PXvn1SrCtsH5Od36LdOeD0xT3ffAPZKRpiai1SCmS19p+9YBH+3bffWWiLZAgB2cREhKPdyy1RtHAhQ/Pj9T6frSnuUQRPTzEhMmZPj80XFyrjREPIqkoJiYBiEBISXdV30iFAN/IJDnQ0cxYekv+9yOSYjAtLEIQ5JhnIvf9uT6RLny4ZzzYBpkbb89u0P3Dq9AULAXWUqiTAqPHusnjRYujYtpUlZLcrVQOzv3du3BMRGG9dJwNFU6iNF4Pt2QzCL0uGoGqdCvGem+pAIRBfBBSDEF8EVfskRcDWRU63Q+AUxTPmzMeR48eFiD45udG5AkuK1814k3zwCxXMH5DiZTMFG/p5/ARcZQKanFUNNpsojQ2D0JncT4sUZo8DqRiIyyhIGwuuO/bryRglUpZrIhRb4wtiZLdcXyQTl6Vy9VKSXhxqcEMIKAbBEEyqUkpB4NSZc5gyfQaiY0lqIK7g5OuhYIspi9urV6uKOpSe2BLcIaWA7qd58l7FUH6Dr4Z+Lz1YkrPVou2aNT3Zk48VR7vWL7sIAqUb3MoYB5fOXMXL5d/CnZschtpa8hXJi2XHpvkJUdWNQiB+CCgGIX74qdbJBAETuUNOn/U3SQ3+s6TN1SPmJTeDRGeQZciQHu+9Q0FxVIEwKP1xRHKLb+1+ZzQ3XM5E2rt7V7IfceJ5YjG40b8x4eVK3XBk13FL36/3aUMGuJT+WYRPtFroqGOhEEgKBBSDkBSoqzH9iIAZt27fxYQpU3Hn9r0URlQIBjKYDKUIkR8P6OuTSNkSoY+lJURP9MiEIjQve4HQ7y0vcS3Yg3QwlEUnQUbc9OxDJDv3zrengb4TuFXrNmLdJk7IlbxtRxwPMqeV5uBe1Z+vgjovVDe0p9/2+RnTfp4jJAsTVw5H+RolA1aK5MeLQXXlBwQUg+AHEFUXSYfAzn/3Yv6SpULnm1yDHblCR5A+otSvtmqJZ554PH4g2tBiaXMhQk3R/4Oxd/ch7N95BHt3HUHk3UicPHYaplgTYug/LjFks2GKJSsIyknAWSz1Ek6W+szAMNMRHh6C0IhQPPlsMTzx7GMo+lgBFHuqEAoWzacxJjZOeVZpuo0thXFmQXqfmDB0+CiSJrDVf8ootkaVvAdZM2fGu927ISTUvacNG9B+1uN7/D2RPDkerEaIiCjujQtlysBHzTLlIaAYhJS3Z2rGGgLTZ83BoaPHmJqkzFhzRFNz58yFnl1e1wi691t75dJVXL5wDScOn8We7Qex559DuHDmEuGhR5OUBF8P66tHCLSOpBMi1/EHBOGjP5NZgDS+s8gktL61CIT807Mln0DF6qVQquIzyF8wD/IVyoNwYiy89dnjvu7euYvvR472HpQkamHPoFrEN+jeuRPy5XEXCVNGbGQPFqVWSKLNU8M6RUAxCOpgpDgEHkRG4qcx4xBJyZ4c8zekmMWIeP9mDOrXBxGUedK2SCJsjREgX9QyBO/6ZTuwfP5anKCEV2fOXEDMw+hkvWRmLrJmz4KCxfOjbPmn0aJDQ+QpkFPM2arWkIyGlDHoQYilRGLm3AXYd/CgkA5x9sWUpXCwbk21yhVRt1ZN8QvlnZCsj6yanA0CikFQxyFFIXCGYvf/OnkqEQwisGSYmOxCIhpEkwlepefKoXG92g55JqRqgCNI3rt/H/9uOYifB/+KU8cvCKGzSEwsKCmpD0To6eRPMjlsNkfG1AurPYIpKmGzjvXQ+d02yJw5I8LCQzX7CUlAJfNgRhQxQIOHjdBCbLtLjmwQ+CSoJtcSgmxZMqE3hc4OCVHqgyTYBjWkDwgoBsEH0FSTpEFg7fpNWLVhs5Qa6HQxJbgoOIErhBTN7/d5h6QHpOfXCntibF27Ayvm0zoXb8KjyEf0F93MkKUKnBSIw0RrkSBTQowH4cvP+2VNOsQrksaVWqG/Pf5sEdRuUg31W7yAfAU0cbxmdTlv8RLs+JcjYSZ/ZijOVmtr0GRCSJcmLXq+1Vnkc1BFIZDcEVAMQnLfoQCdn8UiX7yaTfht6l84STEOOL2z1QY/JYLDuukglC7xFFo1aypeyqsXbsLQQWNI534PsZrhYEpcmb/mnCZtBCrVLIcvfuqLNOkiSFBkwiffDiUVg66j99dISdNPEBmD9uvZk5iE9GICRjxIkmamatRAR0AxCIF+ApLt+uXLOTIqCsNH/YIHjx6mXAW0DcYiNgP9r2bpqvjl+6k4e+K88AJIFYvz21mSBnuc6jg0LBht32yKmAzRuHX/dqrASTC/xCQ0b9gAz5UpQWtSKge/HR3VkV8RUAyCX+FUnfkLAaaZUWyM+MsEYhLI1Y0vVUu+An+Nkvj9sJogihL2rJu6U7NcJ8F5ClWTJBR60maBVSmkiCBCyl+Dw8JQp0ulhBoy0fuVnqhBqFimDJo2qqekCIm+A2pAIwgoBsEISqpOoiNw89Yt/Dh6rJAiBNOL20wm7CnBIM8TUEwX1k7agej7nNKaterS2FBJEGzFLBRsKFhz05TpN0UCxGodKyBdxghPECf7vwtrEtY0CW+VYBQrUgivvdpGeTck+50LvAkqBiHw9jyZr9iMEyfPYPKff1kYgpSQ1c8oqCZyQVgxbpMUoaeQhERG15Yg9WRoSBF6OP+zufBszcdsDB4TZMTE75SWWCBfPnTt1DHxx1YjKgTcIKAYBHU8khUCBw4fwV9zFhARIGNEi7tbysjIaATIC8euYd/yI9KpXxWPCAiHFc3dITg0BPW6Pi99GVKT3QYziyQxSR+eBu/3e9cjJqqCQiCxEFAMQmIhrcbxiMDuvfvx94LFJH5NvcRzx4L9uHHutjRMTMXr9LjZRitoEgThuUKgvfB6JUSQZ4PkEFLTOZHeLZkyZ8D/enRFqIy3rIpCIEkRUAxCksKvBtcRWLlmLdZv2ZY6AdFeiObYIKwcv5mCILGrplIxeLvZIpRzjSdQiFQNqYk1cMQhQ9q0GEAxMmyyW3gLlaqvEPALAopB8AuMqhPfESCd/Jr1xBxsF/EOUmORdnbkvRAZhfWTttMS+XUYm6qJXELtY1j6CNTqVEHmLUit54UODCfH6t+7J9KmSZNQUKp+FQIeEVAMgkeIVIWERGDVug2U1ncrDZHaRMZW1PTYB5ePX8eeFQctthUJiWtq7ZtVDfV6VKXl6TkbUtlK9SiZ9HGIiIjAh/3/pyQJqWyLU9JyFIOQknYrVc3VjH2HjmLmnLmpalWOixH3PQfCIe+F7bP34+aVm6l6vQm5OGYhg8kOoV6PF4RRX6o34SD31zAyzPxoQB8ZPVTGDlNFIZBoCCgGIdGgVgMxAvodt3PPPsxbtDhAQGF7AzOW/bIh9RO1BN5R9mwp99KzyJ4vSwKPlEy6Z8PFTJnwv7e7kOEip81WRSGQeAgoBiHxsFYjaQicpYyM4ydNo9eQNcNfqgeHXn7LR5OBYirVmyfW/jGDULRMITxWqaDI/piaC4dRkgmqgpAhfTq8904vJUFIzRueDNemGIRkuCmpeUrMHIyjdM188QWGJb8uGg7C8jEbFYPgh8OdLX8WVHippCaP8kOHybYLljuFCONd/rTkzpkdb7/5hrBh4f9UUQgkNAKKQUhohFX/FgSu37iJkeN/pYyFUnKQmiIkutxmzcWRMxEuG73eEvRHHQvfEOAzkzFHelR5uYxvHaTwVk8UK4YObVsrSUIK38eUMn3FIKSUnUrh8+S4858OHirEpTL2Db2JtEiJKXxp7qdPQffN5L155/o9bP1rj8wroEq8EEibKQ1qtCsfcERS5CIJCkGJJx9H21bN44WhaqwQMIKAYhCMoKTqxAuB6OhoDP3pZ0RFx2g61Xh1l7IaMzdEPMHd6w+waeZOZYTuh91Lm1ljEPzQV8rsIghN6tdFxXJlU+b01axTDAKKQUgxW5WyJmqVEACjSK1w+fq1wLTg54A+5I938ehV7F11OGVtYjKcLUud0mZMg+rtyyXD2SXelBiHXm91Qc4cWYVUThWFQEIgoBiEhEBV9UkISOvrmfMWYt+Bg9rPgQpMEM4fvYQDq04oI8V4HgHFIFgBZBPGge/2Jg+H9PFEVTVXCDhHQDEI6mQkGAJbtu3AktVrqH+SsesBEFJzEH0nSMrAeMG4e/UeNs/alWBYB0rHikHQd1pGkkyXLh369eyBsDAVIyFQPgOJuU7FICQm2ql5LIcob5euXMXo8RMDPmMhMwjBpiDcvfEAm2fsVhIEP3wG0pGRYvV2FQL+bOlQZsmSBX17dFOaBj+cLdWFPQKKQVAnwu9DRa+NAAAgAElEQVQIxMaa8PX3PyCGvqoiETCJTI4UB0HkeVYlPghkypmR3BxLx6eLVNe2coUKaFS3lkgZrUwSUt32JtmCFIOQZNCn3oGH/TwKt+4+ECJQ3aUx9a7WwMo0d04OlKRK/BBgFUPWvJlQoXkp9pWNX2eppDXzBCH0T/s2rfBY8aKKP0gl+5oclqEYhOSwC6loDouWrcTWnbus7ox6drpUtEZvlqKTMA6au2zMBm+aqrpxEJB69+KlKNRy1UIKHw2BIPqMCWcZEtgNeq8vwpU9gjobfkJAMQh+AlJ1A5w7L8Mos3V1qs+0Z3DDZTx9LhxqeYPARpX4IVC2YQnkKhIgyZq8gYoOWoZ06fHeu5SzQRWFgB8QUAyCH0AM1C5soyGaTCZ8NmQYgokzMLPUQCUlEsdCClBkPoYtM3eLiIqqxAMBSptdv2dN7XwpZktHUs/NYKKz9lzJZ9GiaaN4gKyaKgQkAopBUCch3ggwozBqwkRcuXpVpax3QNNWw3Jq3wUc2fhfvPEO9A4a9KgmmVAlprIcBQscQgsTjK6vd0CBfHkD/aio9ccTAcUgxBNA1RzYvutfLFy6TEHhAYHIuw+xYeo/nKVKGNip96+3R4Z17SRB6FZDZDhUxTkCIttjcDA+G9hfVNA9Z1QGSHVivEVAMQjeIqbq2yFw/8EDDPlxlEpCZOBcmGJM5Oq4Vbx8lRrGAGBOqjxWvjCKVygkHBiClATBKYgyJEkQCuXPjy6d2lsSo/mGuGoVyAgoBiGQd98Pa//2xxFgJkG9ToyBuXX2Xty+fEezTTDWRtWyIlCjYwWkzZBWujgqBsHp0RBZUik4F7s1tG7RDCWfekrFRlAfIp8QUAyCT7AFdiPhpcBW+avXY+PWLdpPSmBu5FSc+vc8jm4+LbQMJiUmNwKZNS04pc6u2/V5BNNX4den8POIH39SPxvYDyEhIR7rqgoKAUcEFIOgzoT3CBAvEPnwIQYP+0m0FS8WFbTGEI4x0aRmmLCJrm0mcIqp8gSafraCCbGcxXKgbP0nYWIdO5sgKAmCJ/jECcufNy+6v/6akiJ4REtVUAyCOgN+QeDLb79HtCnWL30FUif8ols1fhNiY/jqVgyCx72XsZGInQpCxZalkTlXJvqBfqEYUo/QyQrEvNN/HSjK4pOPFTPYRlVTCGinh15+6pZSp8ErBNZv2oqVa9epF4lXqOmVg3Dz/G1sm79XhcQ1gh/fTqRSCCGpQe1uVYXUQAoONM7BSB8BXUe6g0aEp8F77/RUWR8D+ix4v3ilYvAes4BroQdE4oU/eBCJoSNGItZsUhJen04Cv4XNWDqG1AzCm4HzVSgVjUsoNQf/J6sUR+EyeRVT5dOZk43KlymNlxrV15ireHSkmgYMAopBCJit9s9Cf5syHSfPnrXmWvBPtwHTizmIGARirk7uvICj21XQJE8br9tq1H37ebI74IQDSuDpCTNnfxeMKMVG+KDvu0gbEeFLF6pNACKgGIQA3HRfl3zx4kWMmThZRktUEl4fYWTjRCD60SOsnbgdHKJaFfcIFC9fiGIfFFHBkXw5KDIRiMXcJXPmTOjXs7uIwyE+w6ooBNwgoBgEdTwMIzB42HBERkUZru9NRVsxu5kt/PmlSMQzmF494n4TkQdJF02v71jSSdN3mnheGqyJwENszEbeXKKulgPBzDprenmag5kQs/5ac5ETZvBJWw5tOIkz+88n7SSS4ei8t+ymoL9663SpjKBQkrwI3/6kkyAIcy06e8HmEPKkiBFnic+qPiU+Y/y9fpb1c0yXLJ1HPncyNgHX4W/Z1pLPrEhdYqHjco3inNpSdj/sk5h/UAjaNm+CZ595WlpxaCouP3SvukiFCCgGIRVuqr+XxJfIth27sHjFSn93bdcfi5OFySxfkPQlPDwC2bNnFf/lyp4DcyYtwd6tR8SNGh0VjShytcyYKT2JToMQkSEM6TKlQ/osaZA+axrxfbrMaS1+AnpGRcEwCBqTdITGlhgsH7NRM7dL+vkk6OZ60TmRUGYR+CCg8HP58USlIkRMJdOXtIUYAgvxZmJLzCslj4qhCJkPbkUi8nYkbl+/gwc3H+I+fW+mvz188AjR0bHIkCUdJ75BuiwZ0O39V+n0xeDardu4efsObt26aeUFxBoFl5EAnhoydkQIcdGfDOxLQ1iZbxXoLGlPVnIdXTEIyXVnktG8THTRfTH0e8TSiz4h7mhLrHiSFpQpUQIVnyuLrFkzI326dBYUVszbgI96fq+FdNaD5Fj1HOLFRb/WJQ0cS4dfe+nSp0GGvBnwOImpMxAzYUbycc1kluDamZvYtehgsmBYksuRM5tpj+ila6bXdoPuNYSLI29uUu6dNSunZBLOH7qEcwcvI+puFB5GPbKIAax0nedMnxdNji/OOAV3YsPUjFkzYPmePyx/i42NxS1iFE6fOYt1m7YQ03Bb8q9+lpbIBFc8p2BUr1IFdWtWVxKE5HLok+k8FIOQTDcm+UzLjJlzF2HfwQNSnOpD9Drx8rN9/umveLow06SNQImnniDr6gZ2Sxb3o/iNGffvRaHm063F6PyPr2mOmInIVjALnq5eDOlJwkD6Cpt5JdSrzc1OigUG/5+96wCMoujCXy4JCQQICb0XQZDeq4h05ZciiiAoRTqCgKAC/qLCbwMUFRUB6U1QQRGVLgjSe++99/Se/O/N7CYBUvbu9vZKdjQQkt2ZN2/m5n3zKrYu3YvwW+HEIslfkQPIdTaA4ZQkJXoTPkjEk51rkjaI0iob1NT9rWYKFbtP4E4L4qLicfPsbRzZfIYsX/aBTO6zWp3KmP7LR4QB2JyWMkFV5X/uwiX8TgXQbt9WtAtq7gcdNQvvvT0Cvj4+BnHXHMYdOWACBHdcNQNoVg+qSPI5+JR8D9SEK7YAhAdj1mXiluJFCtENpglKl6LCO2kJROWHfFg3Ld8ZUZHRMixQeLLb4j/woMj1yeaDYpUK4vG6JYWmgQ9pafc1TtUvbdVAdEQ0/pm7j4RRvABhfFe2FQQZsDUMGCIJhR8vgKotqIaAgWla5A2bNyP7CUg/mLuUs+LUjou4dz1M13Vhc9p7XwxFm07NMgSDcXHx2LpzF/7evIU0eAxMGCLr0ypWKI8uHdsJkGo2kwNpccAECOa+yJADc39cirNnL9I5TULZDpVnAr3OyW4KFciHAX16CZksKzqk31hUjx/2Ff74hX0fUryubcntJe/mbMcWmXdkMj4BBizIWyQQtTpUlELBQIDAM2e6EkgI3jp/B/tXnVDU6HqJAPfc3BbyQGgxoKGww9sGSG2cN61/kiWB9oYPQq7fF8msEmnjilBLRT2fJICDLQA1hSaplZBrvPbwfPKjCUxFsETGKmhOdiKkH5w8cw7zl/6kODHaOMcHRvLCyCEDEZgrl/2dmT14JAdMgOCRy2r/pPiACg0Lw+dTvrO/M+qhSKFC6NSxPfLmyZNmfw9qEeS/juw7gV7tRorDVL1RC0dGG8wcYlAl6Y74lkcQ6lr5L1Eetxo5xNUvKYsBPdIcoV1QbqwKDftWHcfNc3cU6nRhuxt2QgWZ+j4Ji49cE2M0KaoxywuhVGlz76ojiI2ME7yTEQeKaYs1C4QN7HWWlDuJ52dBcIE8+HPPXLHflV0p1ywDtRpnMv17C2kUyHchGWHboPhijVkp0uD16tZZGd8Nt4tJskM5YAIEh7LXvTv/bsYsXL91y6ZJSOFLBytduF7t3AmPlS6lrR9xIMtbW4OSHcikIDUXjtQ0q4KID0zvbBZUalIWBUnFrYIRi1I50JHCSoTBkTPo5vm7EBkRR7PnefOPbPP70MZsV3lKCkfmf9VnK6BQyXxKDKCj6VOAgRKZsG3ZPoRdj1C0TI4eO6X/Ln06YPj7vYkF0jkzvZY662ZcXBzm//gzLly+lPK4QC4MOrVpOORnKgnvvT0S2Xx9TIdF45bcbUYyAYLbLJVxhPK5EU2+Bx9/McVmFS8HqpUuVQw9u3axifABL47G/h1HxLt87LF5wHGN0x2TSKYTU8RH0CEdXDAAddpWBciHi00PIrzNkTQwCFFMwWunUTEnsjdbOH+DMIk4cu6O46o1PfN+KVmzCMpTSKMaimpECmr2O7h98S72rTpKzoeSz9L/QJuQtWaOGT37y5YZKFayAD1ijT9AEs6ev4SFP/2C2PhY6T7Bu1QjmlYyi6BIwfwY0LunCRD0WkwP6scECB60mHpNhQ+Y72fOwdUbt0lw2nZQvtC+HapVIiczq1yqhGMAdm09iNe7/Fe46zEwEM6DNtKhhSesKeDYAeERoWax4aOaTA21/1MJeYrlUWbhSEEtYjQFu2Kj4vDPwt2IJwc16bJo2xpomburPFOyalFUaPhYMjiwx99F85xoX+356wjuXLiXKv+GdBw1ZPxkQr1QsHA+/LpzZrJvgrY5cDIpC2LjYjFnwWJcvnaDfHsYxmrfL2r45rCBfREcFKRtWPOpLMMBEyBkmaXWPtEQ9j345ntS7yckx2pn9rZq3ueb+JgRw6h6nG9mrzzye1WFWqf4c0IwusLNmedVoX5ZlKxRiG70MnNekhfxxerZWfdCDNnA/5m7M9lXIpGLYxFvhbOohzThrEdakqJPFMATTR+jqFPOfeBojYkEgYmU3Gjd7G2gfEVOL5gl600AA955BT0Hd7J5df9csw7bdu+T7rhWZkgs99hjZAp80eaxzRc9kwMmQPDMdbVrVj8u+w1Hjp/UZF5Q1cB8y8+VOxeGDugLH7Jn2ipAxwyYgA1/bnaoz4F1zGFfiiQUKsthd4+TiVjeMB1qbhAE0jEfn4C/5+xAAgkziQukhsETmvTBs6BYxYKo9HRZoSBK5BTaDgdA5Ih4KxI7ft4rHSBdopKm9ILxogyHqw8sQO48AaoXrealFuYC+gzuP3wEy1aspHkxkNVecZUNaONGv6X5QqCZMPNBt+aACRDcevl0Jp7OS1bpf/DJBCkErRBGRQsXRv9e3eWNN00P7MxpPXvqMro0G0hHFTtqydoJzm4i0E4ctJSVkdLlPvlyTSHYJH2ObDKsMzYmHpsW7UR8lOO1Fo6cTVp9s0mheNUiZMphJ1TFGTNVpIne9DCYvXPlPnatOKJEIzh6DbXNQI2mYSFfs0FVfLd0/CMJlLT1xB+ZBFy6egMz5s7X/IoCPVG6eHH0euVlEyRYxTnPftgECJ69vlbP7rc//8Ke/Qc1vidvPoULFcaA114Vd0JbmrCZkvr+lWfewOmjF2VCJBcABw/PhWfrmzMbnu5amzQJqb3NHSxoSLBt+3kfQm9GKMBEml/sCvm0ZaGsfodBjhqBIgGPrCKYhBrtKiJ/0WDFcV/6njiuSX6F3AjD9mX7HTeMDj0zfxau/QplK5S2CqA/PPTlq9cwfTaBBCtylyTS2ONGjyDAln4khQ5TNLtwIw6YAMGNFsvxpCZh7MdU70Dz7dgLRSgj4oCe9oADCSv2bD2MQS+9S8c4ee9zHn7NNDieK8kj0AHKDu55CuRCvReq0S2UQxHZpi3NEI5q0p5swfkDl3Fi23mpjqcxpQunazd5O2YAIFXe2QP8UO/FGvAL8JV2coMiBu5cDsHu3w+5NrMEdV6Ufjw7Np78UYHbtoFu7olBwrTZC5SkZBmDWFEejf5/ql5dtGz2tBvwySTRCA6YAMEILrvJGNt37cHKNevpQNEmdnLmDMBbQ16XB5k19ojU/BCCNQkNSnRUIgnYa588x1zESfGBpeM5ckpIKioVWDCnAhK4eI+DM/4RYPKiELxELidMTn3rZvwr6wGw0HVFIKUwTZqbOE5UlkYuWD4INZtVpXLdlFI6gTUJzDt+SLut3JaPUixV/tw4e6fYU84s+KSFdunTk4jB7/TAq3Y4LPJYDMAOHDmK5b//wSk2MvSbUXMi+GXzx7sjh5pmBi2LlQWeMQFCFlhkLVPkw+Tzb6aK7ImZN7q9kkPZ6OFD4eeXLfPHM3wiEVP+Nw8Lpi2np9Rbjkyc43ItOVRDXorL1iyOspR5UajNDaFXTZpkwcldF3B290WFT6n55UzePTy2NCtkz+WPWs9VRvZA/xQ+KY+KSAbWzOjOP+knwg6e6374l1GI+E9rjgDn7j0qX+7vh9X755HGxf5iVX+u3YDtu/fQpk1fi6C6DfHfvV/phlIligqemS1rc8AECFl7/ZNnf/vOXXw1fUamJkuR8Y9OkTcHDUBQntx2cy8yPAotKnclj326VbrbeUS8qPd8dTI5MB+4zoPjb8PMcDXzYzwJv71/HML9a2Ei/FLNF+EMIShuvsllKJkasmOTjK75nyeQl3wNpKxxsK9Gqt0ofR2ALYv3ITKEsiM60ARk94fg4Q5YI0VX/lcHdcLrY9jxV/poqKWjbRlv+pz5uHTlqiZFH5dZf2fYEDmMjQ7HttBovuN6HDABguutiVMomjlvIaVt5QOEncoyur174emnGqFZo0a6XDAm/Xcafpq70j3PIQXQtOzXSIQ/epGjpTyBHScIpeBj1byqlreIhEp7Vx7GfaojIFAKrZ+hYEsJeZHaAMDXPxtK1yhGuSMoQoG1AwJUOo4nj35gpD395PbzOLdXpiJWhaurA4XU2SPZL2DbueVUl0IWOre18ZxjKTXzxK++QRwD8czAEg015s3h8GftoAkQbGW7R7xnAgSPWEb7JzH248/E3ZQzCqqV5tLqNSgoD4YN6GfXbSZ1v/WKt6ObLws0Z6rGreefDOWUhoWAwOxo/HIdkUBJoiYHmkdExUG1YpBwLZNj0pDRUTG4dPg6zu27RPLYgTQ8zC6+8XIYaJA/nmhcBsFFgpT9If1LZNklxwKnh0mKCSe/g/nsd8DNQF5Yv5UeeCM1kGGe1W5cDd8sHKdEI1iThvlRQs5evEwZFxdKbVMGIJb3drmyj+EVSpxk4gM7F9TNXzcBgpsvoF3ks+aSToMNGzdj01bKKpdGE77yFFvNuQlYAL47cgT8bciS+GDXnOnNC8N7jcO29bvtmoKrvFyRCjwVq1RIKRlt5G05FQdERIAUylEhsdi7+igi70ciKV7+jN3Z01JXqzfKh2/ZMh+FIiJIY8HP8ZcEkKwZSIKvbzYUrVIQ5ckXQ9SscKD2JOO1VjJvck4F0uRsIL+D+DgnrYOOm9KLHGI3HFmMHDlz2N8rLeWshYtx/hL5rmSCmXx9fPDft97U7SJgP/FmD87ggAkQnMF1FxtzwtffIDycY+wfbSk3CAuebFAPrZo+ZTf13Gd4aARaVSHfAw4V9IDGB3nLPg3I1ODMFNESIMggFHlzZ4EedicSNy/cxr1LIbhHuQAEIBA2CAU4sLjnspsMABTJoeboFxoK1aGQvvWnPBBBhQJRoFQwCpQJTs4HoUYzGuOsmdY+TVHCn9pBDpxkWlCV8vo7QBq3YRmgP/tCU4z9cogA6fa22Ng4fDL5ayoVzZFCaTdZ+sQL3Tq/gPKkSTBb1uWACRCy7NpL0X/r9h1Mmf5D+ocFPUMXT3iTAOQbhYX+1qN98va3+HXxKj26cpk+gksGoc6zVUTYnlOaklOANQEJZPPnMtVJdKOW3vsyFJPBQzylcI5PSBBahvA7UYi4H07AIVSEUFJxBHFr9M+RHX65vckBM1B8Wai0ho+vt0iio+IL7kuFGTLK1YkJroT/gzfZ2OMoDHS7KJ0t525E1kvHrHaKRscLfx//ETl0iGhgQL5t5y6sXv9PuvtUAEgKrS1WuKDIjmq2rMsBEyBk3bUXM+e8B7t2705f4yiSAyWhXetWqF2zhh2uUimMjo2JQeOyL1mVK97Vl0kKoiQ83asBOelRqSnhnCeFptkM4gChlJ3LD+HetXsC/Lp7kzOQgLxTjzYYMb6/gshESINN05NJt4APPp2UrL3LqKz2uDHvJI9jbQEomwg0X3IpDpgAwaWWw3hixtFBES/U/OkLMj5APhj9Nt9DdTl4F077FVM+mkVJhxh8OOm2rTOrhQse3bryFc2F2m2ryKqEhuVH0Hkybtgd6woSYhOwYdZWsZU9BZax866FtSEEFHZc/k2p0sgLZBtAUJf27PmLmL2IszUyYEg7PwSP+VKHdqhSsbwb7giTZD04YAIEPbjopn3EUsjTRxMmC7eydL2a6fDo/HwHVCxfTheHJc4S16BEB9XS7aace5Ts5LoIxK+ne9alBFJ+yQ6DHjNJF54IC7N9fxzGrQv3nWfi0Zk/HN3DWTsZaPK3A0e/gh6DqCSzyNxpf/vw04mUGDQdgK44vAptwyizyqP93HbPHkyA4J7rpgPVSZSnfT6uXLuu9JX6zvVgqF5qNaPtA0vtw8ol6zFu5JfSDz6dm4vtY7jGm6WqFkf5RqXS4Ktr0OdZVMjIjITYRGyYvV2kW2Cw6wkaBMV7RHxueJZ5ggKx6uAC+rc+mrytO3bhr/V/K5rBh3dFyhnw3lsjKFqFUmabLctxwAQIWW7JVbmVhPco9wE7HT6aOEU9HLxRp1Y1tG3V0i6Nplo6mrUHLzbuj8sXrrtN4hpbtgcf7M8MaGxqEGxhnhXvqPH8HNZ47cQ1HNx0WuTUsGuzWjG+8Y9aMHPFZ6hcvYIuU+SkSeMnfJ7pNFo3fRqNKILJbFmPAyZAyHprLmZ8/cZtfDtrZnLmvbR8nvgAfqN/b+QPChIx9LY3eWifP3MZnZ8eqHTj4IRCthOry5t121dHEPkjOLLKoy6EunEnMlKTQzup3sJ0yuNB+R44w2RmiQLddcr8GS1bsQwWrPpKlynwp3LarDmkRbwpMqim1woWyI/X+7ym+D/Ycw7oQrbZiYEcMAGCgcx2paGWr/wD+w8elXHv4qB99IDIlTM33npDFei2U6+E5eO/gydg/Yp/lWQ6nDKYE+/Y3q+rvsmCK0duyq7YtZYutmJXnaez6WJHUE7OlEhhm+tmbBOGBZm3gf70wI2l6kZ2XPpdF9bzZ//SpWv4Yf78DPtjrr47ggqzZcumix+SLsSbnRjCARMgGMJm1xgkOUyJTppPJn+FqOjodAjjWxlQp1pVtG3TWhfi+TCqT2mVs0Tj6AXKadOy75Pw4uIEZnMIB1QNwvF/TuHikWsOGcOVOhWRMqTV69rvOQx7rw+lepA5SmxuIjEWMPbTCRkXaaNx+vR8BSWKFrF5KPNF9+SACRDcc93sojosPBwTv/42/T6UssZj3hwGfyo7a39Lwq7NBzC461jqKisITL5zeaPGfyoif4k89rPP7CFNDojUT6RF2DhrB2Kj47IAlyQaCKCESRsocZK9jgiqRuLLqdNx9x7njki/FStcGP3MpElZYI89OEUTIGS5JQf2HTiE5X/8lYGwlnn2x49OSZJiL5va1OiJu7fvelx4Y1p8UaMzilcsBK7RYDbHcSCJMgavmbHFcQO4UM8pUQ1JmP37l6hYnfeW/U6Zh44cw0+/rUh3ptJw44XxY95yIW6YpBjBARMgGMFlVxqDzpPPSHsQERGeAVVeCArMjeGvD9CF8vCwSLSo1JXMwlztMOs0Pyp7/HSvuvKmJ85xI7Un0glUDCts8sx3KUxS/iRfiewB8KXiW77enEbZAj/SGEVFRopFYhNUJFWITOJYedGFzEAkUwDLuahCy34xZdu+uHX+Hvb+dYxe9oyEW1q50K5zS4yZxPUZuNljZwBCQsPw+TdT5X6hrh7Zpooj6Mihg5E7IEArieZzHsABEyB4wCJaMwU+yD/4eEImN3kvPNuqORrUrmVN1+k+u2T275g8djr93pnV/nSZitWdtOzXCBZvlq7Sr8NYQaaEsCr1GHJmz46qlSuheNGiyO7vT+ajbGJNJIBQMuoJqS+/F5KCJEZsXDyio6NwjwTJiVOncfrcWSVboYQFyQWaFEFiNZPseOHE1nM4f+BqMmCxoyu3etXbJxu2nPlZ+GOqNRtsnQDXZ3ifkial6+CplBivV6MGnnumla3DmO+5IQdMgOCGi2YPyXdCwvD1d1MVJ++0b7T80zf690G+YKrWZ2POdylnpKDp3GwQzp+8Qt97RgKbzPgvEuNSdUR2pG/+WkP4+Nl3w8tsvLR+z5z28/FFofwF8PRTjRFAxZeSi/+Iok1CsqR6Vd0LrC1Qfk75BVLeUR4VSS34ey8cPX6CImEO4X5EmPiloQoShZwdP9P4t0JsYZFbv8NL9OfuuQguEKzLPL78fgbu3r2bZl+8B3g/BQXmwZuDqB6E2bIMB0yAkGWWWk70tz9XYc/+A+KAT99h0AvvkDoxIMDeGvRJpK6OxtPlOwv1tEwQa6Sa3fmLW6d9FQQVyZNOtjod6ONslMzbVGwtkC8f6taqiWKkKUgpv6yCgdTGAGsMA+oAqfuR9MfExOHgkSPYe+Agedbzc6nMD0ILocM80+qCQM6aaeR/IIZw1CAOol2Hbpu0qo8JM9/VoSdg4dJfcOI0aYYEHx/ipfKxtdBe++/bI+BD5iizZQ0OmAAha6xz8iy/+p49lu+Lgzz9e60F778zAt7etpd2ltkTk7Dn38MY1GVMFuNyynTL1CiOcvVLKbxmE4sD/DAUFXDOHAHo3rkz+/YLOGZs4wRFXjhz8TzWbthI33MNgYQUDURatm07CUyiYl9rp/0rxkh0BF/tpM+Rr6u1P7ZfWqEAb/tGW7V+A7Zu3yOck1NA5aN99n61G0oWL2bfYObbbsMBEyC4zVLZT2hCYgLGT/wCiQkZO3RxoaF3Rwyzb0Al5e1ztXvi1s079vXlxm/nCsqJhl2q0wykP0BGGeusn6YEAfnyBqHFU00QTLn6RRVJMg3YWg7YehpSTEn8rgpLdu7Zi70HVY2CLb1m/k5CXBLW/0DVG4VIy1pOiip3VuyYg4JF8mbOrEye2EuRTb+uXCVLsGfwbIsmTdC4YT27TI92E2t2YBgHTIBgGKudP9C16zcwddZchZD0VbLB5HswrH9fxahs201U9ZSvS8mRbOvB+fzSi4LWA58Uzn5J7Cyooyacb86tW7RA6WKUwIZ8HnFoxCUAACAASURBVJKzByo+AnrRr6kfAX74SVmamFtMbAxW/rUGN+6QbZsFj45z5/7jqbzz+llUoIkhggdmTsyY7+xY6oWXerfBiA/t9ws4cfoMFi5ZRjiWgFYG61SQfFpe79NLmrXs8E/StKfMh5zOARMgOH0JjCNg9959WPHXOhJUGR/WRQsXQv9ePewijG/LR/adRO/2I+3qx91fZj48M6gJTcP2G+7DVS9ZAAfnzoUuL3Z0cfbIVNpnz1/Aun82idLC7BwpUyTbT3psbDw2zNwhsgk+WnDM/v5duQcJiiwoUbYYftr4Df/LLnLv3LmHr6fNJD7KkNaMUII+1V3tItd82SAOmADBIEa7wjCzF/6IcxcuZErKY6VLocfLnTN9LuMHkjB2yOdYvXyzuD1m1cbCvVX/J6XqXw0ftJkZLFy9UL9mDdSsWlkxI9DP7O7XZoIyfVG6UCYhPCIKS35Zhhiqm5CRjTvTDlM9EB+VhA1zqbaHDmDDmnFd5VnV6Xf9sSUIyGmfQ/Hdu/fw5dQfFK1hxgz9cMw7dsIRV+GgSUdmHDABQmYc8qDfj6X8B4kc4pZIse8Z1Aio8Hg5dLXzdspCq0OD3rhxhbMnOsAxz43WpfXAp5ScArZLMtYaWMjpr3PHjggiXwO+gvMNMjm2gKMZXFhSqvErS5Ytx93793VZvZvn72D/X8dlEicXnrsuk82gkxnLJ6BKrQp2qfyZfe9/PFFDrg4LXuvWBSVLFjdBgqMX1gX6NwGCCyyCUSSM/fgzTUOVJ4DQzU6AEEb5FppX6Soz72ka1TMf4ltey0GNFD6wbd42bQqHlr3Yvj2C8hA4SNVkLqPUIYhSfU8YUFHjS+7Lm7zarF8RJZhS9qNI+5SgVXWM1OGGMoHSw9EU/LO1/2zBSRFSR2DVjsjXkFsR2P7zfmVStoMvd995L/Rog7f/11/x/WAnQ+ujjyIio/DZ5G8yNT/yepYpURw9X3k5S3+u3X3PaKXfBAhaOeXGz4nbFZ3E72sECEWpMEt/OwuzHN53HH3avy2FVRaMUU8WxXTLbzmQAIJy47fW3MKaAw7i69HtZQT4+T/CSRaLVPBYhBjKcL9EHNx3DGEhEcge4IcatSsLgWERpbXl07ZEOMj+pbiXUIOFuw9uXr1F2RXPCSfBSlXKIzAvFaeiaBmOcvRmf4OHxIiKBzZv247Dx+n2TxEXmXnOp/fRi48hH4TZ5KSYdbGBYI2vrw+2nF1u1wnFPghffU8mhkycFBlqcvjz++9kbd8iu5jtRi+bAMGNFsseUrds34k1G/7W1EWRQoUx4LXump5N76FvPpqLBdN+EXb3LH5+oxWbGPgWLzzLrNMgsOag60svIWd2P4WPD97+1Vv6tcs3yOdjEm5dvivkf2KSNx3l0rSTzc8X46eORPkq5R7SJFixxMkZFC2IjY3Edx8vwKaVO5BA87FQ5crUmpEeb3bC8y+3FvH5qdde0KpgFP7Fuo3/4CSlbbbVYTEuOgEb5mxPid6wYjqe9CjzedvF31LVyLBeQ3Tj5i18M302lSlnlVTG3OGaHR+MMgs3edIeSm8uJkDICqtMc+RiLCGhoZpmmytXLrw1ZKA4zK0JZRLyTwadoXmlzggPiZQ3TuvPK010usNDFl9vtOzTQDlzpTZAS+NDP4GefaldO+SnzIip2wNOicTujWu34st3ZyqPqMx+WDQDLZ9/EkPG9JSaBCtD1ETyJZLkYaER6Nd+DKLCohVQoI6X2lbghXyFgjDtt88gcm2JLZH6OSZV0rd0+a+4cy8kJbLBCpNDQlwC1v2wPZVWQwtnPe8Z1tKs3DUb+QtRanQbFf8c5riIsily+eyMAZv8hI8ZPhTZCbSazbM5YAIEz17f5Nl9OGESEsiDXGsbJ0q7Wm/LlP0non6x9gIY2G5110qpaz8XXCQQnG5ZQic+vrUBBI5W+E+z5ihFzmCpRb3qjKcCt2OHTmFM788yyYwpecQHf4derdFj8IuCHquQG2kKEilzYacGAyhckWosp9fYcZJo96Z5FipREFN//pj8IRRDQ6qJSODIMfcWzJq/gKIbqE9VS6FR5cQJv9ZN3yZEYpY2YxG/u/Rph2Fje8t1taFt3bELq0nDKHJwqk4mafXDpib6UHd76UU8/lgZG0YyX3EnDpgAwZ1Wyw5a3/+EKjhaYazlTIp+2eiGYNt5g/rF2yr2Z42nvR1zc+VXn2hcBiUqF1H0KtopLVemDFo+/dQjNvzUPcTFxaFX6xEIDY+gCIfM+k5xGVyw4WvkyhWg+BJoXeBETHp3Ojav2aXcUtMeULUgJBJEYDDUd3Q3/KdjEyLuQbCZrCigPRkeFUW1AH4CV5W2xomT9/Oa7zmTYqaTz4w5bv/7AoXz4/cdlMeAwILWFU096eUr/8Q+Krwl9X8ZNQn5n27UEM2aNHZ7vpkTyJgDJkDw9B1CiU/iEpIwnjQI2psX3nx9APLkzp3ZafFAl5xkhW+2f6/ejtF9PqHDhm+IZJ+20u6unU7Xf7JZj/rwCchGtzJtmgOeEae67sV5KOiqlpGJ58CuI3j/9clKamU+2tMXlGzcYIdHDjmt37oWRo0fIJwXtZp/YmNi0fnJ12kIumOqZoM02C9v86yt4L4lTb/t5Ph6fjiV6FF8U7gAEAv6MxcvYfX6vyWftEo4GmPzgt2IohwL1oBf19811lHI6+hHDqmbji+17sVUT8+YMw8Xr1zN3KTIVUrJCbXyExUo5LaDzeOZL7oHB0yA4B7rZDOV7CJ46fI1/DBvvuY++Fjv80pXlKRwJlva8F4fYuu63ba86iHvsPpemt2b920Ab5/MTTXC/KBI15dfegF5yA8k3aao4kf0/B/OHDlvE89+3UVCWzRt0vjcqQsY3nWcDWNZsGTLN/An0JPRPZ+BEPsj3KaEPdZoBPavPoGb525nbYDAfoW0jFvOLINvNl8b1gj46PMvqSpnjLZ3KXVlgeC8GNyPTRpm82QOmADBk1dXmdvOPfuwcvUaK2bqhSoVn0CnDm2teEfxRSMx8J9avXA7CxdoEmJXuRm3HkB1GLTJYHHDr1S+HKlv2akxnZcEOJCRIR1r99WsAXhgIUma/LZ7RppREekt+K8/rsLcL34RqXgfTv2c/iaRhoQPpw1H9ZqVMwYIpHeIio7D7IWL1QQOme69JAqRvHTsGo5vPpOlAQJvMAaXs1Z8jorVy2XKt4cfiIqKxieTv7LqPYvFmyIZzFBHq5jmhg+bAMENF81akv9csw7bdu3OXH2odsw3Err0jhtFKVU1Crdk4yW92/SJlxBJat+s3Filn7twIOp1oJTIGhur23t3fxU+FEamMv7hNMoyAoHhgwXP1+1tWw4AWtzle2YIvwWt1vtli/7EvMkUtpoK/GicFsZ8PRh1G3BFy/Q2k7R8c56Fzdt24NDRY9q6pnlE3I/AlsX7srQZS6wJ7YfRnw1G+64ttfFOeYr3041bd/DtzJnawk2J55yFlbfhf0cORzYbNRZWEWk+7DQOmADBaaw3aGD6JM/58SecPXfOigGlx/14EclgXUtISEDDUs/TS1pFj3X9u8PTao78co3KoHRVqrSoqVlQrxbVWKhWVeFdBsiM7ff061F9P8WJ/Wes4LW80bMwWb5r+kPhhxkTeebEeYx45X9Sl634FmiaFo22eNMUConz1xxa+d0sisfXUP1Salm8sG7Gv0i0IkJHG93u99QLr/4Hb388QDPhKvj8fdUa7KJCblqbmrzrrTcGI1fOAK2vmc+5IQdMgOCGi2YtyZ9/OxX3QkJETj5NTajHvfDyCx1QkVTe1jQWJN1avpHFVb7SxNC4ay1kz02CUUNjuTuoV08h8DJqQsQLgJCIAzuO4cMhXyq8To4LSPN14d2uRLE069AYQ9/tIcbSCuOEk2KjQTJfgea6DwxFvAiMqOYMDYygRw4eOYotO3bKcLsMHFxlMGUCNi3YiZiwWG2de+BTqiNr1doVMX3Zp1bNkPfSh59MtClMdOjAfsgbFGTVeObD7sUBEyC413rZRO2Hn05CPBX60ZqxToaqeaFgwQIY1JuFlva2buW/eHegdYeU9t7d5EkSbD5+3mjeuwGLc01E16tVC7WqsZ0+M4dGjhGQUC82PhbdW76JaOHFn/kwsm6DNxZt+JKASwD1QimRRUiChkYvfzF2Bjb/tZO82DMW3Kl76/NOVzzXqZmS7VDjWNTBtNlzKexRmlMya3evhGHXigOZPeaxv5cBIl7wJy3NxhPWRTLEk+Zl/MTPbQL0PSnSpnSpktpNlx67Ap47MRMgeO7aipnFx8dh3IQvUjTDGuYrLMIkOCw+wHtvjaQ8/vJGrKXN/fZnfPfZvCyd/pbvzUUrFEClpmUzZJlMnCRv5P179lDcDlRNQEb8TolWP3bgBEb3phBWIf3FwgkzAC+XFK0y1DCJbtsWcjDs1L8tuvZtzw9qWc7kZ9juHENOhN2aDqFUy/HCf4FxAjc1VFHIKfqSYY5eKFIqH75d+jHZrNU5aQMInD9hy/bdOHD0iBZ9itirq6f+I4QkJ/rJIArTqjm7y8PCpCVVS9hy7lf4+HDqa23t9z9XYef+Q/S69jBctefGDRuIXB1m81wOmADBc9dWzCySktB8OvlrOkDo0CAtgpaWbGamA7dzh/ao9ER5La+JZ/434iv8vnSd5uc98UEGCC0HPilV+hncgEUOAjqXS5csiWdb0C3blkb97997FOP6fyXzTvCfPK4Is5QFnNTMyk+3r49hY8ixUSPYe4AcJbQyNjYO3VsNJ60Fp1pWEIKSTIGdDPlHbJ7KGZgdC9bRvqM9J5P3SH8BLY2fCo2IwIIlGd+G2cSgznn/nydw/cId8RPe5dqNJ1oocv1nVLPPP6d+gZ9/Ns0E89kQEUkp0W3YE+XLlqWMii9oHst80P04YAIE91szqygODQvDpCnfiXuVtbcEPveDc+fBsEH9NB8gfTu8jYN7qUqfFp23VTNxn4f9c2VHk251MnXmk3oAC9o+0xLFimh1ZkyDD6QZuHLpJr7+cCZOHjgntUUCKgiUgKB8gXhzfG9U5VBDLyk+rW+q1iKJtFLxmDZpEdb+sjm5G7Wws4+3D2kpnkPnXv9R9pzUk3DL3FjwIFXzFi9BRFRkuqRKICv7Dr0Tju1L9ithn9aOZD03XPMNSlJ2bAly5MyuibxLlBhp+twFNoOpvHmDMbR/X01jmQ+5JwdMgOCe66aZ6vvknPjFt9OE77q1AEEe6hzN8Lbm8To27IurJKzkzS5rtjptqyK4GGWh1FCJwtvbF/16dLNDaDOfOa0xY7JEUv/H4sa1O4iKjKabpC8KFSlEoWjZYOHQtGR6rAcIqQ0fQvwSAEwg7UBEaBSuX+X1TkLR4oVFiWlfAglcrYFdCFmbIbI4Cmlu3bi79+3Hrn3pe9dLJ0XeodIvY/P8nYgOjxG0ZDWIIC1MFNFxZBFyBebU9MGbRTknLlAGS+HqYSPHxo15R9NY5kPuyQETILjnummm+tbt25gyfRYf1dqjGB7qvVABclbs01OTEKtfop1NDk+aJ+SyD8p7sk8OXzTrXp/klWKkzyTNdN7gYGHGcZpAU+wPUkBI99SUpopabb4D+i6NBDTfz5qludvLR2/i6KaTYp9mJYgg4ZHUC02aPRZPtiDtVSYtgQpdffjZROUt23efCRAy47R7/94ECO69fplSf+jIMfz02+/K4Z/p42k+wAf1W0MGIHdG6X/pTa4W2bB0ByvC4Gyjx3Xf8gIXZypeubCi4s9EmU836uaNG+PxslwVz7rbtW48UG6PKX4JD+ZwTDEsOIe+qZQTQVuT9K35fksWBajS56THkBcw8K0e6XyO+RiQTrHf/zAbV2/eks6sNpoD+b3x747StjzmU27JARMguOWyaSd634FDWPbnX9Kz25aDQPFYfPyxx/BKZy4TnH6LiY7BU2U7KR70tt9KtM/OlZ4kbwLSGrToT86JQtwrxYoy4DlzaNBrr9FtN56e1+55ruesY8hB7Y/lG7Hw62VUxll6TXIlxvJVimPg6J4oXa6oko/AQICQrNUAfvtrFa5cu6YpCof5GXozAtuXkVkiq20/ZVM0/09jfPx9xibBkBDyS/r2e2makQjBpi3F5wlrEGxxcLRpQPMlwzlgAgTDWW7sgCtXrcVOzpImqrRafxCIvHt0hvCrwwb0Rd7g9BKjcBhcLBqXe1HanLPcCe2FRi/VREDeHJrtuWw3HtC7l2EbQs2cJ2AA+SvMnfILfp2/Kt3x+bl8hYMxfupbKFw0v1zRlBAXQ+g+ffYc1m7aJIRY8tDpjCz8FYnIrZR6OSIkUkZviB9Zv+8NmZzug1hQvVZFTPv1kzR7VrVB0+fMx+WrV+0fncJLx71rfbZV+wc2ezCKAyZAMIrTThrnj9XrsH33Hmv9w1Ko5Zh6AheJ9LeFJNoHo95K58aQRPUXotGsQucscyCnzigYTHUXaj9fRUten2Te+np7o2+P7oaLL17HV1uOQMjdMJKgGTiTchIl/j0hxDl/TEKevLlo7YXrodCQGNHu3ruHJb/+ShtQoSUjOCOQjxciw6Owed4usedFTicjCHXiGOoNXjiCUpDnjksr06XmyrUbIgmVrU7LqTvmPfChDenYncgqc2grOWACBCsZ5m6Pz5q/COcuXdZ8q310fin+63yotHjqSTR5kjMEPtoiwiLRvCIDhKzTxOFM/z/dowF8/WU0gVb9dtkyZdC66VMCfBnZxgz8BEd2nyU/Sr6Vp79aUvvMKZpJOHsnYdryj1GgSF4iVRpRjGjR0VGYvfhHQUPmkTEcLUEZQ8lEcujvU7h84oaI78j8PSNmYtwY2y+uSBPEJySSY+KnE4gQFdzZ90k1AYJxa+qskUyA4CzOGzTu9NnzcPnadUU1bH/ooReVeR3avw+Cg/I8MoPQkHC0rMwhe/aPYxB7bB5G5EBUshbWbFMJ+Uuq/FABVeZdN6pXF1WprLZU7zhY4Cpg4ODuE3h/oOq9njmNyU8QjfkLBWPGik+lf4UVr9rzKAv8qbSHreeOF9bO2IbEOAIMovogox0Gc56/N3dcYqfkR9vcRUtw5vx5e5bjkXfNKAZd2elynZkAweWWRF+C9AYITF12Pz+MenNo8i1FtW2HEUBokVUAglKwKLhEEOo+RwmIbHD0at/mWRQpVEjx2LBeBFq3U6RIH/ryB7hw+rJ1r6pP0y1+1uoJCM5rYIEeEuizFy0l/5Zo63hM7IwKicamRXtJ+0AmEa4OqaGug22Mca23HgQIsjTzsZOn8OMvy3Un1AQIurPUpTo0AYJLLYf+xOgOEMQF2YIypYqhZ9eXxaGt2kCzEkBgceuXwx9NXqlJ0QtUtMKGm+mL7doif15S2VuZQMiWXcKK9tjYBHRq1N+W1wnE8O07CVUbVsaHXw63qQ/bXkrEwp+WISQ8zCr/DqmRseDK8as48vdpMXRWcVZ8WIMQxwWZqB6LIzR7JkCwbVe7y1smQHCXlbKRTr0BAoMBkb2OnMZaNm2Mxg0pKZDSshJA4Mtoi74N4UWFcbj0suZS2qnW8aUOHZBPiQpxrMpeqtYjQ6LQtfkQm3aStKZINf2ve6ZLdb0Rjeheuvx33L531zqAQCBWeB8QmQfXncS1UzdE7iqjyDaCNemN8bAG4QOq5pqYwCEd+u8yEyA4c6UdP7YJEBzPY6eOoDdAeHgyr3buhHKPlaYfe0H6IHS1K/mKU5mlYXAvDumguTbqXB0BQQHSAY7PXhvkJQMEGTaqBqClEPCgJ4NMXsRpi08eP4dzRy8JGoqWzo/ylcsim5+PVKGL16VTIYOWlCbfP3bsDEZ1TzsELtOpKxENDBB/3TlDeMGn3dRxSatCHvXXr9zCYarNEU/ai+ACwShXqSSCggMFnTI5sOrSmT4Dly7/FXfu37c5Xp917Lv+OIK7l0OkoofmQCWkDPSkyJS7uj6wXfgg0M4kUPD9zNm4QdlU09hiuoxpAgRd2OiynZgAwWWXRh/CHAsQpCDq92p3FC9WGKH3w9CySjePBQgitI/mW5N8DvIXzasUPrJ9nV6iFMucallmjXhQQMp/ka5GgA8LFv6wHL/OWYPYmDj6twQUZFqnktxeKP5YUUye91+KRlRMHQLEPNpu3riNvs+NsimiRc2nwyalFbtnpeukKIAM/Xdw7xFMGjULYXdJKHNopKCZhDIBmQLF8+Hz2WMQEJhbqXiZMbpa+utv4HBHW/w8BGRifxGqUbVxwS7ERkQJaGBPBkHbV9yYN3dcWiH2zXczZuHGrbs2mb+0UmoCBK2ccs/nTIDgnuummWrHAgQ+8xWQ0P0V5MkVSE6Knq1BqN2uKvIVyyMSDbGNmw0uao4IzYuiPCg0CBwNIuRjGkKSpFpsTCIGvDAKd27eJ+HK0QPs86Fa02X9BxGKSD+ftpLCEKluhtClP9If+SBQpsuXGr9uLZnieTXnQwCVcV647pt0++Biy5P+OwP/rtotn2FaFb8V5Z/UFwMfb4z6vD/qN6mVqZPmkmXLcY+KjtkKEJLY3EB0MI/+WbIXUXcjMtCA2MQel3pp24XfMIOSIV25TtFLbF0Su5Tmr7+FQWRSNJvncsAECJ67tmJm0yhE7IqOYY7psYvPnpaNn8ZbL/9PCCcpxB5UlLsnq/l4pXmQ0K3foQZyFySzAgsbHQ5bEcVQmAS6kKAPAwQeIwmDXh6LK2euaWMddfHLtmnwpmqKjzQlzLFbs6GICIuSN3cLaRoE0Mm8qULms9mjUYHMGg80pl8Y+JMw/YtF+Gvx3/TrzF0CmYVf//QBSpDDq1oS+mFKWLTN+pGiGKI4ioF/ax/jWZOwh80NV0gjwTxPxlL29Zs5Bx39hHQi9Ur0Qc8PO+DqrRu0tJzQygbblxWkqgAhtbOyFa+bj7o4B0yA4OILZC9502YRQKCbBMsBjgd3WBNhZF44s+McTu+7TPKCnPfEoNoEkMPosrNjvjmzTb9Zv/rwphwQfEOWfgj287JxvfqoVLGCXBe28aduxLddOw7j49e/0jwSC4NST5Qkc8O71NPDZgYW2In47ce1mPf5L0ig/r1EmkFt8xCPEaBYvoNy+NP8HzaJcCruqMhwvNpkGBIo86IXS2Lht5B2/2omRhZfy3ZNV0wpaQgzev+7WXOUktHaaM1wyTkjKP13YP1xXBGOi8QVmhflgRK3bHds7H/CJhwL8b1Vn4ZIpLIeFt6jNoTeWjN//mx8OFp7KXhr+jafdQ0OmADBNdbBYVQYpUEQE2A5R2f8zdN3sG/tcaneFE5h7nnw8pRy58+Jeh2rETjgQ5hvnIrws8Ur8aFVrlShAp5qSFkpmUkPAAQpfjvU60u2c5WJmW8RIcPpa9bqz8kR8NFEViqo6dZsCGkRYoQWQWtuAO579MRBaNCkJiPNB/UDgn7gvUGTcWDXMSlsBbCibzJYe/YF8KFnhvyvN55+Ju3snLGxcfhhwUKb/CbS5pgEITzva8dv4eCGU8JZUe5Qd92nXggskAv12lemeuMyd6RoBijwTBND5p9Ld37CBAjuvHoaaF/x1xrs3r9fsVUbdwDGxSRgy+I9iIuOU4rmyFuOEBou2EQ6YTaLiGx7Ml1v2dolUaZOUYdRGxgYiG4vdKCb66NBkiFkc+/R4k2rzngvNhnQVX7o+NdI4DZMg26pT4+NjUanJwcLq4BQIggQJ/5IJVVktkRhvSa+tO7cDINGdhVA5uGkQ6If0qy8QvSGh4Zbza9ajatg7BdD2dFB8TNI0SSEhIVg0U+/KX4L+gpxHiU6OgH/LNhBGRdJoyLG522g+E1YPRMHv6DURRFcUPKPML0VniqNkhWLGa6tYxg7foypQXDwqju1exMgOJX9jh98JRVr2rGHijU5fqg0RvDCsc2ncfHI9WRh5Gi1py3TVC9a0tUvCdmyZ0P9F6she05/Popt6VLzOwN793jUvEBvHzt8EqN7faa5H35QJKwicjsPaIcuvdul+y4LwIjIGAzt/B5usvOjGi2hzFZ4+bPzJQEDH/jilSHt0fHVVvRbJUriYXMI/YZBx0uNBtvEr0IU1fD9L5TCWZD/4E69cvUaVqxanaoqsc7rwZoOAlWHN5/BxaPXhPZD5xGsWsMMH1YAlEVZZ/+c2VD3xerw988mzEcyYZkBagOFSN4n481iTfqtrwv2ZAIEF1wUPUnavnsf/lq71mFezOnSqvgksLNidHg0dq08RN7jseIgc8XmleRDtuh4VGpcDsUrUfpjIjORbekOpndgr57i5vxwUwFC6oqRmfNN9tOlf1t06dM+/aURYkT6CGxatx2zJv2EUKrsKKs0ysZagmYdGuLVQR0RlDdPsmZFmkKkbkFtDKri4+LQqeEg2wBCifwSIKTx9qZ/t+LoiRM0ggQtejYBBIQGRSZVigyPwd6/jiL8NmlBnIOoM5yeF/n1JJJ2iwFCxafKoegTBSX9KqQRa8N+P3pyKYO+zHLPBjHaecOYAMF5vDdk5L0Hj+DXP/4QN2NjXQE45t1CDmvKnZAO4fC74djx60FKmhNvyNy1DsLnac5CudDw+epSRImkQzKc0LGnrQXPt22DwgXySQGcqkWEh6NbU1nvQmt4n6pBePOjPmjcKiXD5SN8EM6jPJ7yd7JGQIYCsieDal7gEE4RIkgASiRf4hBFskuo6bW5b5mhMBFdmw0n3wbrTQx1n66OdycOVkDAg9EP38+eI+bvCIAg+CJMS5Q2ifmh1IaOvhODf5ftRkK8voBE635M7zkGBnlLBaFmm4pi6ZgnFlpLQXsyaDNQ/2ECBHuX1OXfNwGCyy+RfQTevH0H30yfqQg65x94LIJuX7yHU9vOURKdyOTLjvAgF8JIyi6tQjEj7iQfm6K/lCeZBhaE/PuilQvj8Tol4cOlmoX/gX38tuZtpqlEkSJo+2xLcdg/2BLRsd4AJCbSTV9jY/985uOCDZORK1cujW/p8RjzIa7aKgAAIABJREFUMx7vD/0KB7YeS1Z3Z7yGsnwzg8gRn/RBoxZ1U0BHstNmEqZSBIOz2o0zd3Fyx3lEhEQq+gsJeqVjpwKwdCJOBYKyUqb6OZXuk940VImqRVGW9qm3rz4RNHqQbZoY9OCia/dhAgTXXh+7qbtz9x6++p5S43JFOx087+0mSL2p0cEXR1kBj245gxunbouDUO+mzpdvvCJ3gTIKH7HVn62MfCUCKTSMYsLUZEfqjVpvQjLoz48qY/bu1vWR2bM6fc+OYxg3hIrsWMGaspVLYdLs9wycgRyKuRsRGYHuTYYKkCKU3UKOpkO8oplgNPjrzh9EGmlVSHoLX0svXLx8BX+sWWP4XMSAIlKDq0ACcZEJOLblFK5RdI74VXKiKn1Ie1hLJFJwERCxZANq0T7NUzgXkUP7lICTN/2cTUGu0JjuD0a95RrniiswxANpMAGCBy5q6indDw3FF99MdbFZprJjs/qYdNT3r4Tj3IFLCLkeSpEPnClfn0NQHL50oOeiugkFSD1bqibdwlgCsemDzB7SuUsRcqrQMopbTBv914UyKgYHPVhCWSS4IVD3xqtUnvmEtvLM3r7ZsPSfKfD2Yf6mnW7ZsVNLwqLpy/HTDDZpqaqYtAGCKPpFCGLGn5+hYAFKW51KdSPz/lmweOlPuE+mFmc0uTIslFmzxSYW3kdA6PUwHN99DuE3IwXA1aMlAwTqn/dpocfzoXSV4uQTKnmoRo2oigupv7ACNepBZBp9MLh9dwRFnxipdnPQXMxu0+aACRA8fGdEREbi08nfKPZ0158sH8sxkXEIvxNNxXXu4fqZW4gOk86Nj9jjRdiXrHcvf6emP05CniKBKFQuP4IKBCJHkJ8EBS7aqlWujIZ16xB1au7JFJtyLPlrvPnq+7h8lrMpcow7txR9i1qG2Zvi32etnIDceQlocJIiJx3avBY/fLEAfy75W2g+5G2YTTcS8jH9Yg50Ex715SDUa1xNmJYepjchnvIfzF9MmgTtJhbDllcxRUWTU2Pk/WjcOHcbdy6GIDI08iFNmDSZ8QblvBDMB+FPwUmN2MxFWzJvsWAULJUXOQvmQO5g1hQ4X/Br5WPRQoXQ/zWKwjGbx3LABAgeu7RyYnHkXT5+4pf0nT43coeyS6kYKISFqp4WbgHyTqk2zgCYGBePkPuRBAByyd+wgxmLGaGcoIPYItXDQhZJ+eR6TTpbiLt+/9d6yZuqSH/8qMFl+eI1+PG736g2Q4x8ju+QNCcu1lSxTnn8b8oImiRlekwkB9B0ijUZwwB2QPXG1as38ParHyMsNEKGuNIsvUlFzhkmAoMDMPOPichGKaETaL6PyESa2NETJ7Fx63ax8q7Wkh0mU1W4ZDOW2GuKqUTsRZpvNIHdSIriyVNQ8QkRdTPEk/Ql65jw3pTJNLU7pLoCTxrUqYVnW7ZwBVJMGhzEARMgOIixLtMtHTxjP5mgHEguQ1UGhEhwIC+VagSE9NgW2WOl+7biUJjKUUzBFNIrnZ3fVI+DjFXdzuSIClxYVLzYti0K5Mv7SC4AFjgkN6SnOn1/6cI1XKbaDLGxMVTuuQhKlSsB4bdGQvnBO7qzEJGqJxAiEiH3QnFk/wmEhURQuecgVK31BPz8fB9ItiT1Jam9QxMwZ/FPiIqKcubypDu25KxSo0NNJZ7MbolGhVZLzEn+QuxfJbOkdJFVMTA/LzVfSpYml5xzWkQ9/9x/UKMqRVQ4xZzlNmxya0JNgODWy6eN+ElTvkNoWJi2h82nnMIBLok84LVXpWefgzUAQh9DMfVq9kSpn/HGyeOnceXyTTxRqQwKFckvzABCmImogtQCXH8WqX4HLFxDwiKwcOnPLmFn13+mbt6j0M7JkOkh/Xojf758bj4hk/yMOGAChCywP36YvxAXL2lzdMsC7HDNKdLB267NMyhSqKDiNOlYgSzvtMD2TXsx8d3pisOd4jwqnTpQ+6lqGDa2F3IG5hQ3Zsc21pSQyp38SGbMnY+4BL5VO0sL4tiZunfvtA+UfEwjBg9EYG4jw2ndm3PuSL0JENxx1ayiOQm/rPgDBw4fseot82FjOcCmhJwBAXi1S2dx/jpWNEozwP9GfIs9m/YJMCB+IrTjrB4nzQEnRKKfZfP3w6S5o1GiDHnVO7gxBDl38RL+WrdO0b87eECze5s4IJRJ9AdHMPhTJIPZPJcDJkDw3LVVZpaIjVu2Y8M/mz1+pu4/QS8807wZSpcs4dipkH540n+nY/OqXQ+o8aWOgOLs2cGTrQrseMff018/bpoK/+yOFQZJFLEwdxH5HsS4pu+BYxfFfXqXvjNc6tnMgeA+q2YbpSZAsI1vbvXWiVNnsOCnZS7pEe5WjHQgseqhy0MMpIgGNc7dEZqE69dvYEDbMdK/QKOuIjAoN+aunqxoFhwRMpqIHbv3Y+/BAw7kstm1/RyQkRd5cgdixOsD7O/O7MGlOWACBJdeHn2ICw0Nw6RvvtOnM7MXh3BADZ3jMtPBwbnR+fnnKZGQ/tkv2ZTR+7mRuHvjnhoTqnk+Xy35AKVKlyBIQbkJdHWkpKyaVG55xoJ5rhmOqplDnv+gmgr6sdKl0ePllzx/wll8hiZAyAIbgG+hH1Coox71DbIAu5w7Rc71Tx4BzRo/iQrlH1MKCOnjIKiuf8cG/ZBIToB82GvOj0EkdOz5LLq//oLuEQ0JCQmYt2QpYqKj6XbK4X6ul/vAuZvC9UavX7s22rRq7nqEmRTpygETIOjKTtfrTE3c8sGnE8WN1GzuwQHODNn7lW7I5usrc0bRlxDwdtTT4PdDQ8PRs+XwZCGvNaU101O3eQ2M/mSwFYaJ9HktMwTIhE9/UDnyC2aUjXtsTLH6Xnipw3OoUvEJN6HZJNNWDpgAwVbOudl7H034HDHxrlVm2c1YaDi5LND79egOX6qt8Gi1R9vIYXNTj2bDKJbdupu6ChBGfTxIDGxv4S+Om+CCTEeOn8DmbdsFXDCbO3BA1jYZMWgg8gTmdgeCTRrt4IAJEOxgnru8yoLmj9XrsHPvXnch2aRTJE60kDNYTnTp+DzlCGDXcftNDQlkWnixYX+ZzlnIZG2CmQFBu1dbotcbnUQCJT3a6bNnsWbjZtN5Vg9mGtYH15CgCAaq4mg2z+eACRA8f42FCAgNCcPn334nbn6OcH7LAmx02hT9ff3w2qtdpBZBMTOkJPG1nqxez76Je7fDHqpw8Wg/bJDyUZ7iffPp7NEoX4n8IlKlELZqdCXVMIdSXr99B8tXrBBzsojUxNqAilXjmQ/rzwHaBwwQPniHQhz1793s0cU4YAIEF1sQR5Iz9uPPHNm92beDOMAhkEE5c+El0iR4s2mAD2nNd/9HiTp29CTG9JgofpGZD4JSFgq5g3Jh3povhO+CKAths3igehKXr2LlmjUO4pbZrSM5wOseRNkT36QsimbzfA6YAMHD1zi1g9v7omiT2dyTA17Int0fvbq+LLQIiamqBlo9H3r3k1FTsGP9IaUeQ/o9cNhlAvkLLFz/FXLnyiHLYlIdB7ZDW924SuOp09j071YzUsFq5rnGCwwQ2j/TCrVrVncNgkwqHMoBEyA4lL3O71wFCEzJNzNm4+atm84nyqTAKg6IJEqc1ZCrW9L1vesLL1AO/ADqg50XbWheCUhK8MI7vT/BycNnM+jACz4+PpRqeRRKP16KKmqT0SHRm0QEl5SmYk9WNDYhcDbPk2fPCXDA8zDNClYw0EUeZYAwbvTbwspkmhhcZFEcSIYJEBzIXFfr+u/N/2Lj5m0y0Y3ZUnFA6MypydK7Un2vBOJJfbo8DIWdXHUWTBUyys+IYgas/ifekjAXQp1v2Ymy/DS/x7duL/q38PFjDYAN4l0YF2i8BnVqo3rlikomRK66KIMGtTSus8AE8mxWLd+EHyYtRkIs116QPfDu4OLRVeo/gWHv90JwvmA5b01NLfesPE9jxcUm4KffViAkNFRTDxk/JP0wRAZIxdQi2C/WSIFLAnyk9CJ/rtCjOGbK9yXfeEGSOKU0fyv+Lc0oZkubA+PGvGOyJotwwAQIWWSheZrnzl/A7MVLFEGXhSae6VRVi778m0WlvOECEbcjcPXETVw7dQex0THi1ps6xE+9BYukQ4qzXWDh3ChYLhglHi8Kiy8JGxJAok8qk8tNaOcZJQjgYF1jlX8SgxDqI0eOHOja6UX4ssyk8bWGHqbMlsdnsEC5FoioHdv2IuxeOCpWLYeiRQsJjYGYF9VIgJePJkJV/kj5moRTZ89jzaaNCsDirfcg/zR1+tBDzEtRiFo43FJuhxsRuHH6Bi6duIHEWJ6RBMAS8zH/Fb4ra8q0BRcPRKFy+VC0bGHyxFR+T+CNQZ0AcIw4zPYIBwJoz70zbIjJmSzCARMgZJGF5mlGk4D7aPKXKTfiLDT3jKcq75gx4TG4efYOrp2+iZAb4SmXTkWoJYcFKtdLIWiTr6opegf1+sm/S6JnOY9Bocfzo1Dp/MhbNA9ZBmwXPg+o5hVJ36BOXVSvRElr2IFRQxNAgtT8qpZEClPWTTAgUEW7FLApF2mtV2qpGblHCZnWbvgbt+/eJR6xME+Zs+3mBS9Ehkbj9vk7uHzyBsJuRQgAILU3sqoEUylqTIiICckMdWQeV1SrTJ6vAgzoQV9/XxQqmw8F6Su4EK2RDeBNA+vd/pE6tWqibeuWbj8PcwLaOGACBG188pinJn39PULDWdVru5ByR2bwTZhvlkIQCsEqSxWxbf/o9jO4efI+AahIh7PF28cbOXL7o3LzcsidN3eKajuZJpZwUoBb0/x8s6FRg3ooX7Ysvaaq+RVhyYpzoZHXKuQzG1nCCW7CWZIAj1DPE0/jKW3yn6vX4sqN65l1kur30vxiYedHUeeB58/+Ffw94ylao81ncf3sLcRGkYrAYVuX50U0kLIkT95cqNKyLLLnlI6ZyXEjqvrFitl50qPdSGNVvhyHulrf9NAeWT+q+YY9HDABgj3cc8N35y7+EWfOX8xyZgZxWxZCkr+zIOxuOPatPY6ou1HC7iwEANvlHXxzFECFVffiGuuFCk+VQtEKhUnLQIJJXIFtlH4CU1jIqdALTzdqiLKlS5FCQYZEptYD6HVIp+6HNQ/3SWOwcetWXLl2TQh3MQ2tvFQcFpPhCwEF9uUIvxOFvauPIDqETDty8ZL3re1aiPQ/tLIQERPOAIvBSiKFlXqhctPHUbhcfsFH1gjxfLNaEz419N+ooUPItJXd6unrte+sHth8wS4OmADBLva538tnyQ9hzqKlLJ2UL/ebg20U83wtCLkZhiMbTyHsDqmn5aknmrwY2iicrSQotepe3Fm9vUgA5UOlZo8r+MC6a+oDhy/PSZgwLChepDCqV6mMYkWKWElhZo9LPsUlJGH/gf04cfoMQiMiVF9M2/aV4ihoIZBz5/p9HPn7NCJDIgV0k+Wr0jJ36LteKSOlaF7UnUHZnFC6SlGUa1iSviWKslRiJ6nhyZUjAG8PHWyHH4l65mgzhWW2C83fO54DJkBwPI9dagT+iHpyZUchGsVNk+55rC1Qbc4kzDYt2ImYqDiQw7rABq7U2OmOaxNUaloWRSsWILqtAwmZzcXf3x9PNWyIksWLEH+8YaFLuhBywllSCkQRWZHKDCG0Kclplal2AvEwMiYW23bswOlz5zIbMuPfs5aB6zEwmCGNAWsc4qLj8e+Pu6iqY5x9fTv47WotK6JA2SDFVCWdU5lP0hXVA5sARAkoV+YxdO9CqbatbCogPnX0LF5pNRzturTA8A/7wJ/yelgIeEmNzaOgQUkaauVo5uN6csAECHpy0036GkeVHeM9tbIjmwlI6Ai5I7wMgBP/nsPFg1fE8c3HOKuv2V7uUk1Rq7OozkYOc3XaV0ZA3pyKRsF+lXZKCKT0b8jm64N8+fIhX1Ae5Aygceig5r8ZJ0RFRiKB9kdoeDgiI6Nw7/49+goR7FL7sSVEMzW/ZRwCO3HSFwGPYxvPCMdD9glxtJnH/nW3ICAwG2q1rQb/XNlk5ANbQOzv2IV78EKf7q+gRDHbtFGsA+r5zJs4fuSMMkf6JNJHsVHzumjzYlM0blEHPtkosbf6uZQ2KvmsiRScti9MgOA01jtv4LUbN2HzVq6g53mNzxdvus3FWxIQQ7brbUsPID42XpgPWCRxPUuLuDW7Vi4IQZtw+CNFNydFIhILkd27SotyNrslpKyuzMtAMYEPaQjYTUBJtiS0BylmFvE4Ow6yGBfCT2oa5G1Pah/scXqU/XshISYOG+fvQmIMuSTSEN4iusLFG+8fUkMxpaWrF8cTdcsg0SdRaqZcnHSbyaO14gJNtq75+TOX0bkpVQJNvW8UMMDgwYvQQr78Qej0Wlu80l+mFE9lAbSZbPNF+zhgAgT7+OeGbyfh7r0QfPnddNsd4lx21inpgq4cvYVDm04o91SWaIq/nvj2QYu2K0xHOL8lh1NKbwgWzv65/dDgxRrw9VMzF6qmB31NEKrTX2rFirjN8+GtW/QDc1rx9qA+z+66hJO7LirugARByKThLqZ9mbBKag6y5/FHI1ojb9LKyOZhMIHWys/XF++OHG7zR6VHm+E4fuiMMGWp9T8edDRV01lJ3lm8LehMYKFtl1Yo/Vgx8W+zGc8BEyAYz3Onj8ihaeM+/Vx8UN3e2Yqd20RkAp/XNB+yr+/98zBuXbjrdD7rRgCdjQ061kRggYBkKzdrGUT2ZTcSRgIEKdhsx7L9uH89XNwS1dgB3fhlYEcS7nBKam/Ue7E6AoL9RGIssSy2RqQYSL+moWiSHZ5ri5qVKdeGRrAoNUwMoLwQdj8CLat1laYCaxKECdAMAsc+qFqnkvBdaN2+SSoQ9kCOTIXnmmZkPqSRAyZA0MgoT3ts7qIlwtFM39uhc7jE1QGotAASyJHq33m7ERUeL2Lz3R78qOxkBziSrJVbP4FCZfJLx0sl94BzOG77qIkJidg4dw9iY2OEp6iF5sKmBncCOg/MXg29FHk1gHpdqiFPcE4J3jxEkcBnxMghg5ArJ/moWNtofZ+t2R33bt2XHkDEFGuNSAJwKWCDTYPM2w8mDUfT/zRAjgDKUyFa2o6O1pJrPv8gB0yAkEV3xLETp7H4l1/kRceNeaBm6UuIS8CG2bvI4Y21CPJm7TEAgRWz4qqahIqNKQ1ylUKphI8bSSEKTlg/bzvi48gTRLFlyHkZF2Kq/1Z/sPQ2g4LKLSugSFnKm6A1D4T+ROnaY0COnJRemcs7W6vmT8KW9XswoueHinuwGkisdc+mmNEkhOSNIpGXemYF5ArAM883FY6OFWuQv45bn2a6LpsunZkAQRc2ul8nLDzf/3iScojpa892ODeUmHmpXScFdUI8/p67E/Ex7ILo2Y3NKRUalEGZqsXIqU9mguTES95kWkmyMvui4zml7Ct2fiRwsGYWlXkmACeiAt0ZlabLOA6rlTkDarepinwl88iy2CIdtFah6PhVsXaE+rVroU2rFta+JgB6s8pdKD02ZSh1aJPXHB8yRRQuWgAjPuyPBk/XkIBChQymx6NNK2ACBJvY5hkvffz5l4imuHZ3c6pSHfjEkUsH79qZO5AY79qx83rtGCFc6dCr3ILyJZQrpKh/1FyQriiEyPxD2p2/5+2kv8n0wwLUjfwmrFs3kbw72VxS/ZkKKEj1NzjkVpTKdsPGQn74oAEIpnBY69SNSfh14Rp8+s63EiQ5sKVOcCUAAQNSojtPvjx4/a1X0KZTM3Ig9TV1CzasgQkQbGCap7xy+cp1TJ87T0n04kazUlTSXpTAZfOiPSLj3oOHhBvNxWpSRalB8VbttpURTMWf5GXcRY3eRNbfcyj5UWQsCUo2/zC17O3vedoemYRZhobKJfFCvY7VkLtggNv6I7D/wYej37Z6l8aSNq9xuY4CDDoYHyiVV6UDZGrfoySKj2nUvCY+nzPWauOI1RP20BdMgOChC6t1WmM/mWDIh1grPVqfo/p7OLDuMJVhvk2vOPaGopUmo5/jw/up7rXhn8Mv2TZrNA0Zjce36R3L9lFlzLDk8tmuRJ+jaZEwwYKW/RrBi9Jpp4T4uf5+ZZjDn6u6Naqj7bOtNLJK0WTR9AZ0HoP92w8p/iUaX9fpMWFNINObL9VB33Jueao8Sx5p19KJa2l3YwIEh7LXhTtXvBMXLPkZJ86cdTMvcgsuHbuKoxvPEoPdU3Wr187I5p8NzXrWUyIBnM8LNeyPNRpnd1/EqV3nH1C76zVvd+hHNTb4ULnvZv0aSt8LAROcv04ZAjuhjJK+FONHv6OZ1QL20B+H9h5Hv/ZvO9y0kCZhwrwg016vPbwYuQIDUj1mAgTNi6k8aAIEaznmYc+L4k0LqXiTG9lIY6mewkaOWBDZELP2h561CLny5aRkStXl6ezkxip2UTKZwhjXztwlAJx0SnQzR1gd+KhGQHKYXtEn8qPi01SMS3jgu7gfhhIpkINqJYwaPlQ7JxTn0ydLdUQCOQ4n0JkispYauC/VipzjvhlJOROekmMnp2/WPhXzSckBEyCYOwHjPvsC8Qmu7uQnBQw76m9eTLkOKI1yqvKBWXcVlXLONZ+piPylggw9jNNmOqdmTsKaaf+KsExeNYIICoxzPoBx1kZhINewU3XkyptL1ppwaVaIOGE816ol6tSqkQEEVychQTr/663e47F5zU5FuBgdrSK1Hk2a18PE2f9NWWrh+5LsGeKsLeCW45oAwS2XTV+iFy79BcepZK9IVqNee/QdQofe5L3rzN7LOLXjvA79eUYXarpab28fNOtdj2zdfLZzWmYnqLEFhvPC0U2ncfnoDVotJ9DgwstqsfiQP0J9JRuhSyME4fQ7esRQ+PtlS5+jwkypJCgiMLhv11EMeHGU4eCHt108/eFNNOQvWAArd89S4ErW1i7q8VEwAYIeXHTrPpIQS2Fo/5v4OX/auQBvihe2S83LItSWa6ZvE6l5zcYckDdz/jOB/itSoSCqNq2gHI7G8Uim1eV8lkmIiojGpnm7PDjXga07TworLuVducnjyhrZ2pdj3+PkYwUL5sPg3r1kZGOm6ZWp0BaFGzct9xKi42JkqmlDwSHDGQuFMlrwx965yB1I1UnFx8MECPbuFBMg2MtBN39f8VXEx5MmIzqWzQzGCRZrWbdj+UHK3x9q7Wse/rxq2+e89V5o0qMusuXksrnGTlt6jlPY6eJdFHYalWUdE9PjurCNs4KOkiI06V4HfjkyuJkbu3SPjMaGodcJHBQsSNkgBQDNoHHab3pgQCeOWjgiVPwWg3NdyMJZXpj2y6eoVucJJV2DerI5mZluPrwJENx8AfUi/8yFS5i7cFFKTLFeHdvaD91CEskJ0ZLEOvNEhN2LxL8/7qVc7tLGbba0OZAzf0406lRD2P+NaqpJI/ROBLYu3WvUsG45Dt/GCz6WF9UoHTPf1IWHhgvcdEU5dLLTCydT2jqc+0A1X6VLn5KPZO1vmzH2jUmGfS4lPQoA4KyqpD0b+b/X8WL31i7BS7fcmOkQbQIET1pNO+aSEJ+AjyZ/TXnyObOiCzQFCKiZ7ncsO0Tx9KHSIdlA4ecCnNBMgjwyvfBk11oICPTX/J7dD4qKmonYsnA3pdWNtrs7T+0gpbyxF1oMaCAEsusowRUnYNJ0tHuWnBNrVFPyB2RM4d3b9/Fc7Z5k/uOIIqObpPmpVg0wceZoRWtlNA2ePZ4JEDx7fTXPjm/lK/5chT0HD9NnzkWcy5SaC5YEb6ya/o8JDDJZTRnN5YX8RfKgVrtKmtfe3gdZ8IXeisS2n/aKpFtmS5sDKQAByF0gF+p3pAgBsWYu8HlTQht5/7w7chj8smkwgdBSt67eDffvhokjg80nRjTpRy2vDnny58bKHXOo3DZn51ScrI0gIouMYQKELLLQmU2TP9ox0TGkRfjScPt1erTxmWWhg2frzwcRetv0PchsDdU89KwmbjXgSelsKs5Mdh90nBDiddr3+1HcunQ3cxLNJ2QeBOJZy74NYaEMi67R5G28YoUK6NKxfSYk8V7ywrCu47Bt827jzZIMDrhAGYGYLWeWuZAWxjVWUk8qTICgJzfdvq8kfDl1Bu7eu+cyM0kizeXa6f+aN1MNK6K6ZbEXecmqRVD+ydICGDg67JHHXfP9FiXo3ZhbpAZ2uPAjErBxVc5SNYq5iGZMFpoa8foA5AnMlQnvkvDnz3/jw+FfClCh+igY6Rvk7e2NpZumolhJKlhmQgSH7XUTIDiMte7YMR1bdL5/QPUZuMnwNSfdcBSV55UTt3F4w3F3ZKZTaE52LLN4oVX/RuKmynnpHakWunzkOo78c5o2DIW3uVFGTqcskBCppBmjJfHJTmmyu3NeBMdpd7TPkeIs6PP+wRhKrZzhRz4R8bGJaPTY804BBjwfBsDf/vwRatWrbGID7Qts05MmQLCJbZ790pRpP+D23buKL6BzboR8m+GIhX/JKz6c7Nsi+5zZMuYA8UukNeYvztz3UnUEBud0EO8UT3L6a930rVTKmQZlG7Rztotb7QwBEIT5h8JSX6OQR39fcQtW3QSNm4yKBGSRpVHDhiAgR/Z0hpf6qaiIKDSp8BJ/OunfKZ9JYy4TkkNvjuuHzr3aykuM6Zro0O1iAgSHstc9Oz934SJmLVosboTOKyxDiZHi4rHuh61SdW10YL97Ll0K1Zz/v3IBVGpSTslIrbfklpELCdFJWD+L0iqbzSoOKPkHUb5+aTIzFLXqXUc8HBgYKMwLaTbFdpWYmIgXn+qPK+dvipoSRjqkquazdi+3wrsThjiCBWafaXDABAjmtniUA/RpnDjlG4RGRHKxDidxyIIwiqvfRhoEIw8iJ03WIcP6ZfcTiZMomk5nO7e8yVmSfHDh6GUcZfOCuM6ZJgatC8mmoETls/XMwMaCn85sPV7ujMdKl0oHH8gCU4O7jsXuLful6ZEdLQ2kmcd7olp5zF45UW41Z5qkOGwCAAAgAElEQVQ/nblQBo9tAgSDGe4Ow/GH79yFy5izaBGRqyYlMZhy0hrs/Ys84y/eETdgtSCbwVS49XAscpr3aQBfXyUETK/ZJOep8cKeFYdx+zI7tRqdXlevyTinH+E4ShubMULrQY2k0ONQQUNdfngwLwTmzIERb7yeASOS8NmYqVg2/y8FBBpfRbX04yXx4/opCo2GMsk5G8RFRjUBgosshCuSMZadFZ2kQeCUraunbhU3FXFXcRIdrrgummgS+fBBSZNqIyCPhph2TZ2mPJQk+k+gqo1q9IKVHWT1x5PLIJOvSOcaVOUxJ1n04w2ug8LhgkDfnj1QrHDBNFaEP3de+GPJeox/a7KIhnFkuOwjBLCbBpk1AoPyYNW+OVSIzFc4d5rNOA6YAME4XrvdSBcuXcYP8xcKHULqJC/GTMQLxfyKY+aXlP7ZYHWmMfNz7CjyJko8rFgYFZ96jO+nOg/ohfiYeKyfvd1pIFLnCRnWnZJhWXymGPx+vnQsVv39t5KzQu91ynhaATkC8M6wwWk+xCaEXZsPYAiZFoQzoOG+QF7IRtqv1YcWIHtADsEr2UyUYNRmNQGCUZx2w3H40v7tjJm4efu24dTnC86LIf174eUWb+D8icsO8sQ3fFqGDajmq7d4W6jEMIU7OkADExkSi82LdjkAfBjGJucMpAhaXqO5f0xGznw58P3sBUJ7wHUFjGrsSTCg56soUrjQQ+HMrDkAjuw7ib7t31LqM5BTqohSMRbAbDi2BDkCsqeqCyFjQMxmDAdMgGAMn912lAtUxOkH8kUQ4XPiCDMm3LB2jepo90wLSuMagTY1u1M5WU74I28Ohqo53Xbl+KLFOlrKqjjoSZ2DQDiqBLhy5CYObTqZ6mbnzsxyLO0Pa+D4321eaI73vhiK0LBQfP7N98YALcWRlDFKwbxU0rlvb1GBUf1sqZqm08cvoFvLIUJrwL83pIkMiTKJFKdOXrpxKoqKREhqzIchVJiDpOKACRDM7ZAhB/homEhFnMIiqc67g3MRpD5Eu3TsQGlfywul4s5N+zH0lbESHEikYjYrONB6AHnJ63rIM/AA9vx1BLcvsIOiuSBaliM5iRUJQm9/H/xz4ieRapmdEz/4ZJLOa5QeRVLge1GV1IG9u6NQgfyK9kDRDlDIy4nD59D92aEC+MmkykY1ctxkDQqBmBU7f0CBIvmITvbc5J+bzRkcMAGCM7juZmPG0+39w08nGXJT5DoC3nRI9e3xKjlOFZahVHSr+GjEV/h96XqRAEgcGmbLlANqFkwGCI7QuqyftYP8EOIypcN8IIUD6ppsv7hCAithbgA+/XIKoqKiHGIKUkdXXQj405M7ew68PfzBfAJJlNf87q37aFvnNaGx42qT8SSwLQaFEDFd/NlftG4KSj9eIhUwUbMgmDvJaA6YAMFojrvpeD//thIHjxwVh5ojP66iQBP9MahvLxTIT7cbZbSEhES80Lgfrl+6keq+6qQQTDdYQ7FGwsLghWa96iKbyNanZ/PCGooyMdJmrif1zulL7teJM/+Lxq0oP0UqETj5u2m4d/++IWTx3nh/1FvwsUhbvsxGCJw9eRmvthqCeCr9ruAWaVo0RIUgeTN92WeoVqeiVEolh9MawhZzkDQ4YAIEc1tkyAE1IUlMTCw+mTwFCUkpoVi6O77xSaRoGYe/3h9BeQKTaWPfqJjoaDR9vItwmpJ2SUdCFffeGMlWW1LXNuxcjcLoAnSckIRtq7/bIjLqmS1zDsjU4Ulo0bYJ/vftCEX6pbw3ZfpM3DLCGZg+Y43q10Hr5k0JPEoDAms1Thw+gx7PDlOggrFrKiJuaMifN09H0VIFmVPCF9LYnBCZr2FWfMIECFlx1a2asyqEE/H35m30RXHvjmrsEEWe0uwYNXzQgwBBxQIXz15G56cHUxa6BGMdqBw1Zwf1q9q72SRTr31VBBXOrEKfdYSwwJMVHI0VJtZR6TpPs7agWKnCJASnpUnU1JlzcP3mTYeaGHhPeHv74N0Rw+BN2gOhOaCfHdpzHH06vKXoM4zPkMiRNtN++RRValVQeKPuKUNUF66zSVyQEhMguOCiuCxJdOMYP+ELxCWoN3i9KWX7AvVJfkqj3nwDObL7PzSA1HcunbMSX7xHB63weDYFVNqrIIPm+I5YtVk5FClfQL/FUkwXa6aqYNFcg8yYG5wvCL9tn4Fsfn5pPjp7wY84d/FCZt3Y9fsksu93e+F5VHi8bHI/6//YgjEDZPVW1diQkm/AruE0v7xg9dcoV7G0AjZT2RVMfKCZh4560AQIjuKsh/bLORGmUG4ErgvtiFLQwkmR/hs2qN8DJoYH2EnyaHDX97CL8sIbn8DJPRZWtR0zQKjXtiqCi+XWlXC+Ea+aulnXPj2xMw4NZtPCuoMLkTNP+lqcGfMW4NLlK7qzQJo2xMcVOTkp0tDXFf+CRKxYvB4fvf0VLKRNSOQHjGoiQRQHJ1iw4K+vUKZCSQMjJYyapGeMYwIEz1hHQ2exYOnPOHn6rLhx6Npk9Jyo9z48I4CgjDuw07vYt/2wfIeryyWyR7jONOk6QWM7EwCO2NHgJU7lm0O/wZVL3prvZRVH3X1R9KPUyT3JTInzVn1JN+QyUgimY1j/hnwQHJaQjLRuFkIJwwcPRGAuKv9NmsApH83BomnLScNEAEbo4Yz73DBXEkmbsWzzd5TnoLD8yJoOB07eq2kPbwIEl1wW1yaKQ6A+/FRWVdO7CY9p+uONfr2RP1/eNLsXRxn5IBAZaN/wNdy+es/QA07vOTuqPwkQyCmtW00E5H7YXGPPqBIhrCITg7wLGidc7KHa+HeTMHnOh2jYvFaqodNwrKUffTVtBu7cvas/iezsR+CgQZ3aeKZFM9F/n/bv4DD5HchiUZwXQYhs/cdOp0ffbL74c88c5M7DWi3JD9Pd2DD2WzWQCRCsYpf5sMqBsxcuYs7CH2XSlUT9y/z2oxSwxYoUyZThfLC0rNQFYSFR4sBTm2l6kJxgj/CWgxrqrFiR3g3rf9iOxDg2CpkAQeW2UOmrGq7RPdFj0PNiFTJsxL5Pvvxa5EHQv1E9A8pK+O7bbyIyLAJdmg3Gzet3lGGMWTfmSKKiq8gdnBO/bPoeufLkzJwv+jPD7NFKDpgAwUqGmY9LDvDRMnPuAly8ep1U+/G6+yN0pkyKlSiTYqaNCAkNDUeH+n0QGR5NdFF0Azsvmt71yazTP9WyLN61Z6Usx222ZFgqc0/Qf6+98TL6jXw5OTIgIx4l0l794BPWyDlCYFswcshA3LlxD73ajEREVAx5+HB2QgNNQ4oJoXCxfBTFMYPSKKu1FEwvRFf/7JgAwdVXyIXpi46NxWeUhjkhQf8CM43q10XrZk01zz42OhZNyncms0O85nc8/UHVUbH1wCf1nypJwnMHLuPkv+f079uNe+TYkRd6PoeR4/vQLFgQsnTkr/QLDIWFh2PC198pinb9Js8grmHdOvCL88M7fT+RNCTFEYjxQSKHExtkVeB9WK5KGcwjh0Q2ZbDjprxlOMbRWT8Omj2ZAMHcA3Zx4PCxY1i6fCX1oe9pE0Q14IcP7K/QlpmFUt687t4KQdt6PREflwJYsq42QXoHWCjxVIt+DBD0vp16ISokGv8s2u2Avu3akoa+nFKKXPpiNHuuIT6ZOlrhibZUgNeu3cB3s+fqBxCUNIjZfLMh6lws1v/O4agphiDVDKL3jmDGP/p580L7rq0w5jOKnhDFmAQy4CcNXSdzMNs4YAIE2/hmvpWKA9PnzMelq1d1/cjzGTd+9DtW8/n29btoV68X5ZLnV6kCZBY2N/ARXLxSEVRoQh70OksDFjLxpLX5e/bOLO6DwEKPI2iA1s8/hXFT3rJaAG7fuQd/rluvG9ASN3SvBGyatQuxlAFVZiV0vNlNDXsW2VdFpALQf0RX9B7axerPsfmCa3DABAiusQ5uTUVsXBwmff0tomNi9JsHIYRx774t+lPTPWvrPAm3b95F+3q9RU751IeWtvc94yk1xLFux+rIU5AdwvRFCDKSJAlrp28n4ai/icl9VkHehJ99oSk+mDxcCbPl2zobG7S1GeTLc+nKVQG0tL6TUc8cJnxi+1mc2X+Fih8Z52uQ+rPm7e2NT6a/gyatGmhjgvmUS3LABAguuSzuR9RlUpNOnz1HORh1MDcQQOjXsyuKFilmXYg0SS4+aMNDItChQW9EREjP8KzqtNj0tXrwo+x9+lZz5HwTEiDs+u0Q7l4Ncb8NqxPFrJnp/WZX9H2Tb8mpxLsVxQTe+3giaXho14o04/YTFnY3EluX7EteIyO0B0y1ChD8/HyxeP13KFyigBIGa/+czB6cwwETIDiH7x456p9r12P7rt26qTNLFi2G17p3FbyyJWtjLJUiblO9J8IjQpPVrAI+6HAIu8MC+vpnE5UcZeo8PSetZD+gfs/tJ0dFuq3Koj9ZA4hJ50+ZY2LQmO7oPvAFZY9atysYtPLXB5xTxJ50Emzb532tRFCsmrYV3rIOk2OBMWkq2NNR7Ab6n6Mx8lJK6b/2zjUTH1m3FVz2aRMguOzSuB9hfNhNmz0PV69f14V4f39/jHlzqB19STDQ67mROHbolNCyc94GuqjprHC3g0QHvcqx54UfL4DKzcs6JJmRsDKTRIqJisXGuduTQVxW0dTw/D/6ZiRatiMHUMoKKJv1zndbtm7H6o2b7DMtkKCWhZeAbb/sQ+jNCAkYHLS31G5TSkHL8du80AxjJw2GxYdLsuphLHHwBMzuM+WACRAyZZH5gDUciI2No7LQX9kd+sgaAw6IGtK3Dwqkk1FRE10MBsiD7JU2w3D6CIXk0WHKufFlyWjPbXyBbPhCdeQW/gf6KhBUMSiyXlLbMG0bFfBSbpI6R7O46gotWDMF5SqUSiUHkwtsW0XyhK++IQ0Xm8FsN8sJcED1FM7vu4ITW0mbQ5kT2WnSwhoKQ+R0EiZ8PwpN2jQSmgPrYZJVLDMfNpADJkAwkNlZZairFNEwjSIbWGSwatsW7bbQuNIfjerWQ6vmT1FP6ceRa+ErH6ITRk/FsgWrxN1GaGCT1bqeARaki5vM5OdF3mkt+jUUk5T8d9wcT2y/QMLpsseaGOR+kUWPcgRkx88bv0dQwSCb78hCgNIfkZQ58VPKoGhb4xTJahbTJETcj8SWxeR3YAfQ0EaH8qERKZqTkCtXAH74dSJKlytuKg20MdCtnjIBglstl/sQu23XXvy1Zj1d2OlotUE2yUApquxIFd/Gvj3SJh+EB7mVIBwoN/z+L0YNmiiyyfEY8rZjA4GuuBTq2U0zKlQuP6q3eFzwXmTCdugUvcClnx2v1HYO05l1XNKoWOnCmL9qMrLnyC60Ul7JpgXr6BJmGAJum7duw7qNnKPABu0B2/9539Kac7zEX1P/EZ8YWa/McYut8oJ1cBWqlMO0ZZ/C399XfIrM5nkcMAGC562pa8yITpLZP/6IC+cuiTzs1raUI84Lb1EVuty50y+Vq6lv4X8gb9Lh96MooVIPRFPaWY+ymStOYzzRVoMap3jGO7rK5f/buwrAqI4teqJAcNfiLsHd3a1Y8RZvoRQopdRLkRbaX6ACBYoVK7Q4xd2d4lrcgjvx/ffOvLeSbLJvN5uQhJn/acjuvHkzZx7v3rlyrskLu/46jOf3nsaRSdvQjrutEwveGg0rY9zvEQmQpLh0pfFzN3Lc/xDKFcdcEegiIFHqFrv+PIQXD1+SMk5WDlYIY1XhZTTC0HvY2+jx/pv0jFG8gTYXpSK48iTE72uUghC/9yfBzk7nLvj+p1/w9NkLIZh1q4CxRVnCuv2SJcPwwQONXRZtL4t39Mnjp+jb9hNcPHNFnH70V31CPgVLhjwPpMjkR/EHpeUJMw6aiRSTRwGPcGDp8QRuRdCfUR00EoYkdD//fiCatedKiO4SgSYEBNzDL9NnOBVAqj+9svainMvR9acR8N89q72OSTpEVA+LZq2gCaRMmwLTl49Drrw5tM76M+YubOLggVW3MIyAUhAMQ6U6uoJAKNVpGDn2f6I0swcfb1xsA/r0Qsb06dzgarBMgGfzwxeT8destXTy4gnGRey3iwAYvsyEim+W1siRDF8Uo44yzx7YPucgAp9TwSxXTsQxmoF7Lqa6h6RTEdkXBfzJNXhg7+VlYLYhmdjpvvbF6G+li0K3+hgYWjjdROqijCs5f/AKLh24JmIBYkMZNKcWS08GCpXKjxkr/yerVYp5G5i06pKgEVAKQoLevoQx+dsBdzCZ0h9jwriXLUtW9H2nqxsVBKms8Kl777bD+KjHKIQEMyOg8+6Q+LILLECSp/VD1bfKxIrAiH6dHnh48wkOrDiWYBUEqRLIE3iVuhXwA7kUOGXPXcqBblVj1sRpc+YCYZrkNfgAWebniXvXHuDgquNOWSAM3kZ008mV+KePrw9GTByCOk046NVihVMagjOIJsy+SkFImPuWAGZt/SIx4RaZVCf/PksQq7jSOMDwg749kCF9elcuj3SNnJ02R/rx8mUg+nf8AicPn3HL+K9qkFrdKiBpcmZOdN1a48rcZQaFCZun7bVJcU1Y1gSpCvz65yiUreovlUW3npSlC+PHXyfj8aNnZKnQUiPZemWgMTkTc0+EPA3ClvkHyCpnCbN1twVBVxDy5MmJ31eNRYpUMl1W3sfi7DAwbdUlASOgFIQEvHkJbepHT5zG4pUrZVCWHthkVI7RyzEFEScN02IRnKvP4BgpaVE24a8ZqzF+xFQq9kQqie7O1Uyp8VHYyVRNNomHI1XWVKjcupS22AhCR18Lp6dF5eoRUZyy+JCMNjQmuKzRDXpKxElz9zsGPF70kKDI6H8T8ubLjZn/fI9kycjV4GKGQnTL4ufn3H8XMW/RYk3IGgBBKCiaUKYfXF9k47TdbrSkWcS+Xr+D/336+HpTbYlBqNe8pqtxmAYWp7rEdwSUghDfdygRzM8sWEma/bN2I/YfPiz9pnwCkvVfDTW2IjStXxeVyrMJ3b1NKhxyzIf3nuC9Dp/i4rmrQmCafa3x0bdOgtyTYwBIjtTtURVenHEmmrXmpeXMa2WAo7QuaJTMXOzHclJ0Dmce4vj6s7h14a5T/nXn7uKu3tKX70mFhT4c2RttujXRzsbsamI2QPe3r777wQlXm+0+hIaEU5zHAYQEhUbY35jP0xLaaEKpiv7434zPyGrgJxVF4/9EYz4RNUK8QkApCPFqOxL/ZFgQ/71sJY6dOksC2ZkTqgwgZGH4+Ucfwod8w+63IugKizSh7tl8BIO7f0N3DREcCvGRL4HxCCfrQdEaBZCjeGaRxyBZoCKYZkjor56yDd4aLW9UT1oYCYMmfWtohYOMmncijuaJtb/tiNV8fLf8S6G1pkqTGhuOUTyAaNLkb+0cc8t9tEGmTJ+NGxSP47xlRjIjbpy5C2HBulvBnTNjPUASQf0yfyTKVSmpuQKlRUm11xcBpSC8vnv/6lZOb+C5i/4mc+slF16WQLYsmdHvnbfj5N314tlLfNpvLPZQIKNtc1V4ug923U/slzYZqr9VjgaOfk7riMzISGvwXjXXiZVERoMJL+4HYueig0LACMY/YZVwRiE0MlOjfeS92X8vXFsEk08SL3xJJvQGLciE7samkyAJZVL31NB916/fhl2H9ukODWN3FLKZFECytO1eSDwTDzld2PVmXr+e1MtWM3ELDzTictUTBmnPkFIKXEc5cV2pFITEtZ8JYjVCjJGsmPT7dNy+d1+cXJzz73ugTs3qqFU1DmrNsyeEBNyl01fQs/XHCHxBvPnsx39lwi6ymtJQCHTHAjguFAQRuqDVuziz8xIuH71hFfn+6pQqSUAtXQcde7fEAKrC6O3t7V4rlDA9ME0RW5sgiLg+7z8Oe3ccQ53uZdmXIbEw6Kribp5Eg7lz8UE8vf8ixmd5VgfYccIcCkxexv/u0qVNjdnrJiBTlgzyH6VQopSCkCBepHEwSaUgxAHI6haREdBiAjFpKikJ95noxYnGLzB6l/Xu3gVv5MjmxIWudLUYnNnFsfiPtfh51HTx8n+VTY/dqNyuDFKk9zPk/ogLBUHP69etBrsWHMKzh4EuZ6+4E+M8hXJi2mKKyE/NeFkYEN3nqjLh5fMg7N56ECOHTKRnhIsweaJOr0rwEumSekwBr8qAskTP+cHlJ3D/xiNj/R2AxRTMYR5eNItw+Pr64sNR/dCqYz0zgZkM11RNIWBBQCkI6ml4pQiEUVT2lFl/4Nadu4aEnPVk+QQ45L1+SJ4iufR3x+rJx6IoBL4IwuRxc/Dn9BVizuIbtoIQpbH4aeTlHwPUdddCybpFkKVgevFal+ImHrgYzOuSrgUORN0wfQ9MIdIjJE6u4jTvbneDlpFgrsAlNkIc1pn9b8LsL1G8TCHeKUPIy93WKzRaRSVEClCQH2xYsQPzpizD6WOyrLh8DjxQtnkxZMiRxuHe6JOyBAsCh/45hftXH8iQEkOztt+JXQs6zTgrKd3fb4t+Q7sIlkjbFlvRFzGYvLr0lSKgFIRXCr+6uf5KGjeBKJnJfM+lmB25G/QTn/7z6+EfEfmda5z4ru4Az5uVm37tP8Hxg+eE6PMgukgTz8OgCdmVe7ORmAVvwUq5kbt0VulXN9jixIJgNRehENB/QgPDsGUm+d9Fvr9jV4jB5dh0k8oHm/b1/5rolJyEKg2OQ8ESuW0sBobG1+MHNOFsfuY0xSGYSLXO/nsBg3uOwtNHT8SQerEk3n92+RSokhP5SuVwWl3kex1YeQqPyHIQc2WT8Q4T2UL5C+fFnPXjNTsBP8Fx+2/GEO6qU7xCQCkI8Wo7Xs/J8KvKRCdNDly8cJHq2Rs4yOinaD6lpfDzw5AB/eBN6WrOpE3GHG15RH32LBBjh/+K9St3SInoVHaGc7NgIZStcGaUqFWAqjQ6V0o7rhUEq/xQKiYUiB0LDwlLD0cCuF00WaVwpk+fBgO/7IHGb9bWwNUtK8aVKfMjaPUsXr90C5tW78KKPzfg+uVbVo+pZr/R+jLNRM7SOVCkch4yoHA9B+NxByIgcdERPH9AAYnGp2vnIWIThuS0YMvJlz8Owhv5SKE0DxqjwZ17aFXvBIuAUhAS7NYllonb+vinzpiD6wEBJEiiN0HrCgKjwEpCquTJ8dHA/jF8qRrH1FaHkUbgZ0+e45cxc7B03mrjAznZM2v+TPBvUFgIWg6edKaMc9wrCHJxIoWOIAqi/P2ts/aJtEx3iycez5fKDs9e9RNyFchmx6JkQOu03gvRPRzb1h7Abz/8gZtX74qYAp65TISUTbeJ8N+Fe4AsB7lKZUWhKnnFJ9xXxo9G7f7RLWb8TO/88zDFbLy0wid6t5G9x0f82yBFNWkKH8xd8zPeoDLVssajTNXVqKHoM7eraU4+zap7fEdAKQjxfYdew/ktX70WB48e1dLS+PQVNQji5Uq+VF1QfjRwAFJSTMKrbOxfn/ztPCyeswpPnwaKoDCxBOYgoIlKhkZHxmPNp85dWcyQsCpYITfyltGr6Dm/QnsKgl5oie+WMVd6lG1anEoEhArsw4LC8OgOl3AORzLfZMQuGYbgEPqOOmd6Ix0FvMmTsTDsCz83i55oFDu6LvBZCHZTeeKQYCb7kU3GUBgRhBom2r10oVyweF588v0AFCmeX8Q2iIwOczyKrfXAXFNUi1kx023TYDeu3sYFqu65dM5q7N36rxT/Wtpm9GjLYk6MEysGeUrkIOsOz8PBHmnBttwxLDQcm2fvRXiwc7EZbDjx1IithCWO/uSmSotjJg9DvqLsWlFNIeA6AkpBcB07dWUsICDzyIGdu/dj/batQlDJiHjHN+OXpa+3D97tSTUb0nFg2KtrvI5wEqiHd53E2M8m49rlm/KEyQJRC2AT7Dd2m3ytS582+dRJAJRpVgzp30gjRKmrza6CIM+4KNOEgulypSX8fLF/xVHcvXJPuxPPRXr4bZsnvH08kLVgFhSvIQUzt2gFvZBm5BEnIbhjwQEEP2cCKv1k73hdsiebzZlrIRyderfBW72aIlO2DJbnxFokahUZ5Ufyav2/LJC3b9iLdcu34+p/N3H5wnWEU0yJoCFiJY51H02Rc4w3uxGAcs39kT5bSmFlcLRPsq4CZz16kNIVjJ3zDyH4JUVyOtGEO01kJkoW0LyFcuOzce+jWKmC5p2IW5ebE5NXXRMEAkpBSBDb9PpNkgXshUtXMHfhIil4ogj8szbPiqO5kFMmtGnRAv7FyBQfq5kNUe2LlC4sYNjj7mmiwEKa2Cf9fsCuTXsRHMSC0YEQEadgupYyNWp1qQAfP2+WJjHiGrKnIKRMlxKVO5QS1oKNM/dKRYDM4WwX8BLxlvYEt3aStzpdZy+QGcXqFIi2hAGLX06yE2oEgXN03WncunRP5OY7Vg+knpImTSqMnDQUFapSzQmbvSUrDQtcqxoKIcEhCKY/QS+pPsS6XVi3bBeO7jtuvpceVGhRPi3EQdbPlYTA/gx5CpzCWKdXFa3Qoa0iYvcJEWWeNetEIGV5zNitKVccnWH0zC+VNg8Pb+Sk2IJZKybALyUX6bLKvrD2f7x+rxC1YjcgoBQEN4Cohog9BC5evorZ8xeKk6Y8fUfvcrCeSb68edDtrfaGX7mxtwrbkfnkumTOWuzZwuyMQkwJhYGb0AHor3wCzUbxBsXrFpJBbm5oERWENwpmRdG6+fE04Bn2LP7XfF9nbyUjMNjf7oHG/auJQleaRz4a0S+zGQIuPcCx9WfI2sICU+suTCx6fUgPZMyUFo3b10Onni2QNkNqm+ndvXUPN64F4MaVAATcvEPBgwG4eP4KLp27QjEDwU64L4ysWnf7aEoO/Zq9UGYUrZmPlKnobQa69cNyFw88oCwFLtnMAbqOm+Xe/C/By9sTrTo1Ru/Bb0XCxPFYqodCwBgCSkEwhpPq9YoQ4JNccHAwxvwwQSN5k1S+RhqfUiG9uocAACAASURBVL28PdCtQwfkzZ3Tvax5RiZgp48QFNr0+XR7kQTZsD7fIeB6gNnYznb4Sm1LIFXG1Jqp2th6HU1JVxCkCd0LjftWQxClIG6azSdY3abh/L10nc3EsSA094bvVhEWE7lO+ydinXGRlSNWKPb+RZH7FJxnPrnTldlzZ0PGrJnw+MEjPHv0FEH0HHCUP1c0DKHCRWFBQeKZYAXFS7Mm2D4bcj4yb8L1Jm09engiu7vYVOGJ6p1KI1lqWQaZ4w9kymkU+Alri1T8GOnb5+7i2OYzUoGJ7nkWliRaK93PSwR3emL42PfQpG1tqrhIVSdZkXolVjLX8VRXJhwElIKQcPbqtZ4pC9MpM//AvQf3DSsIUjxJH3sOqt/Q7s3WSEsm6lfb9DA5zXzPvmgpYrCbLAq/TpyJvBVzUtQ/iU4R6BaN0HFyIbqCwIK7QKW8yF/mDayZvEMIP8mAyMLNBQVBTFEToqR4pMuSGmVbl5DWnijH007cwi0gz9cPrj/CsU3nKDaBWCqFu0hIVOHukAGD2nA6HbAWr2IOFRBBkowrm2D0dbgJP3YTcTwIjZ+jGFleasgsBd0ywIXHotVbNUHPhpITW88h4Ox9Vo0c7CDPnf6QBcm/bGEMHdGPOB3y6OEUliDeeGcjc/LBVN3jLQJKQYi3W6MmZg+BZf+sweGjx6Wk0EzRRpCS1eo8UYjcDh3bt4mzV6pubI88R9tvjp08g3WbNuLp8+dSKOgBdnYErOZ9NosnY0LdA+tIGZCYUXGed6vhyLqTCLh43wh80faxFsE6nXDdvpUp1ZDphaNSOHSTuW0GA5+m715+gKMbz4mgQankaU4YwSnAegNbQDSmxhjPPvIA4kTOQaasXmomH1Y9chTNQgRVuajQE9fUNqaAcEaFrujxirdTBscLregSjyCJj/XYA/5Eui94Dj6+3vhwRG/UbVYDKYke2nh8QiyAooZ8LRFQCsJrue0Jb9HWfPmHjhzFsjXrtVep8bQwEcWgmWML5M6DNi2bIXkyevEajQtzBbaoNQRhKr94+QoW/L2YzOyWdVhzPES6JadKihD7cAQ+1VMFdWUpaixYEG2et4dOnV5ISnwBNd+phA1TdyE8zNEp1rlFy8O7FP4N361uJUiNjyMommmdARfv4fSWi+RaCJJbZGMMcJNlwGpauquCbx/Kfn627pC8zpQ/I/zrFhRWHVEOmoJHjTXNAkDjvXjygioy/iv2nB9B8RgKJVCWT9KzP3yTJkHJsoXww8yvkCSZj1COLBwGxu6qeikE3IWAUhDchaQaJ04RePDgIX6jGg6BgVQIyEjTcsW1UHOztMmYIT2qVCiPMqX8hTCTukJsagzALSKC2nvgMP49QQFqQtaQoJAlLR2uxBIpQOlxz4KwZc5Bcb6OID0jjGNJ7+MvanevRKdgX6yfut3h/ZzuoLkbhJXivapmwefMODIbwcJQ8OTuc6oKeQ23/6PUS5sASGdGNdCXLRS8G/SfNBlTIGep7MiaL5OZu0JujxTYhhpvKXW8fiIAp7ZfEPvM+6eFOIqxeDTOgqjXsjqadaiH8pVL2NlLXRmK3efS0JpUp9cKAaUgvFbbnXAXa6/iHp+6J0+fiTt3jVeDFKmHGrmPtauaBZJfsmRoWLsGSpUs6XagHj56jLUbNuP8pcuihgP7s4VCoPmmdatBtNYDoUto7HfiFEvmacrn3zBtlxQ1UaWCilM9iTU6rHL54JpdylH9gJc4vJIUFDfLHBZ/XJCJTeuNBlQjgW5QmFojrmEilstCmybPeyZiEYJNOL7jPG6fD3D7HvlRwGGxmnmQOmtKykqQ9FaCe5Aw8iLcwglzUQvDoILAe7l3yTE8uP2YAgyJ/4Gm78VZpEJN8ELpKkXx7eThSJ02pRXzozQ5sR7EdUkscQ5uX64aUCHgEAGlIDiESHWI7whs27UHm7bvFGZ3btKHLM9rzjadjpavzpE1G4oULohsFOCYKkVK+PklQ/Lk7Au238LCwvGMYggeP36MR/Tn4rVrOHniNIJCmABHO066vU6DPI+K+AKtRaQDjjjbxu/WwJ3r93GICgIZi19wFkXZv3GvWgj3sTAmujZKhKu0wzQrILy/D24/wr0rT/D03mMEvSDOAyJfCgrk9EZL09kihaGG0gOTJvdFkhS+SJ7KD+neSI2MOdPB25e5CWTGgOtNv6uJXApBRJt8iHwVpE7wsDRo9pyZUblmWXR7ry0yZ88gbxONC8r1eagrFQLuQUApCO7BUY3yihF4SAJ5wqQpZsp7R0x2UU1XP1HL9DPN2SBOscxPIFP3kiRJEim1LIjY8MLDpEIiuRp0nntdSSFxpp3k3Q0V++yvH7uDUzsvWMmbqJWjRv1q4v6txziw/GisKQgsZmu3rYikGTmgz12NlSxdQ5CGft5nT3MKoa4UeggqZ8HCKciEWHf0gDcFF0oRLvdCd8toB3WNQZEtBEZjDGzXJcf2wuVj13F29yV6FsNQvV4ldHu3NfIUyolUqSglUgYfaPvkZvONu2BW4ygENASUgqAehUSFwJIVq/DvydNma4LTixOSQ3txc+paFEI9omk+IhW0pdqkVBQEra4wIsTkhGpvNWysJvM3WU8u7iHBdPSyFs4QnYJQnSwID3B41Umn4TF2gRSCLQfUR2DYS2OXGOqlKQfWLgiBre52sTqQWy9fswrodTv0W4k9IfSE60Ac8zW6aBe5BThL5uLOW6QQtKHMg6qay4eVS12V0aMO9BnwJPmPKppkaPtVpzhHQCkIcQ65umFsI3D56jXMXrBQFBeSrobYDjuM7RUZHd8Dp3f8h6snqO6DyNtnn7n0pVtbVGp0rojnj1+QgmChHTZ6B8f9tDM6Sd9G/VzLYnB8j1fdwxI0KJ4t+tW/aBG0atoY3kSNrZpCILEgoBSExLKTah02CPBpcf5fS3DmwkVBuOMuuuJ4DbPgE/LAqU3nceX8DQqM85EWiwi+9dpvV0Ky5Emw6tdtbj+76tkHHKjYiJgaEyvLHytdXqLugwkfvNsP6dLYUkDH6+dETU4hYBABpSAYBEp1S5gI3Lx1G/MWLSYComcJcwFOzVoj2SF7wdbZ+/HyRaBV2qbF5s5Cu0G/atg+7yBePnGnC0C31hCpUJEsKForXywnjDoFjvs6a6yTJYsVIS6N5u4bV42kEIhnCCgFIZ5tiJqO+xHg7ALOcti5h6oViqACSxxAbAUOun8Vzo3I6sCGybvMmRx6XQReb9lGxZEhdxoc3XSW0gXvSBeMVj3SFWeMMLgLlkPOpZSUzfWJA8GdNNHOrd7dva1KjhNOfsl80fvt7kj/ikuKu3uVajyFQEQElIKgnonXAwGSXYHEyDdt1hzcuf+Q1iy5/T0E33/iiyYnol7BArj2N6q1EGZJNSxZozCyFssk9pzdD+sn75aFhkSev8jAd/p5YIuEpD+mXH8aI3ehbCheJy/lAui+eqeHjDcXWHgpPOFN3Ah1iSejasXy8WZ+aiIKgdhEQCkIsYmuGjveIcCpi+cvXsSiJcsQHMKCk4WY80Ix3i0swoQkRx+l9lHQ3Kqftwh1wMvbB/V6VxLpfKLSJYcuUmrm+qk7ZSCjE7UtbG9nUbCSEMdAre7lRXCkrFLoPBdFfMS2ZIkSaFKvDpIlTeqKkSU+LknNSSHgEAGlIDiESHVIDAjYY2LctmsvNm3blhiWZ3cNXmQODyPrwMNbz3Fg6b9owGZ/kc8g8xo0Pili9/PG2slENMVpnS4oS6xeMVN07bZE4ZzBV3Ip0u9cu0DUVUigjUmzknLBpIH96SeVVtbb65MWk0B3Tk3bXQgoBcFdSKpx4gUClmLKxqYTEhqK5avX4thJ4gTQZZmoA6CRHiVc+WYFgKQrFtn4gjPAymKiBdx5+/jin4mb5elYED1F7x7QKyzyaFnzZEbhavngnZKIiRM6XmLZHkhBjJmtmjRBwQJ5GBBjD5PqpRBIZAgoBSGRbejrvhzBnMc0vMKfbry9ePESfy5ehktEjywZ+LjqnjMjGL/Xq+gp2QJtSyvr8winkzKf+q+dIjbGbeeldUEoSNFIe+JZqNO5ErzI4u6ZVLoTEgNa7Hrp2bUTcr2RPVHt/6t45tQ9Ez4CSkFI+HuoVmCFwKSRs1HAPy9qNSZzt69zNL8s5IKpkNIf8xbg2q2bWnR/YoFXlB2S9Zxsjvk6c6Rk+zu/+zL++/e66BOVwM+SLyNK1i+i0RVr9nbuL6IcE1Y8h+56SkqxBbWrV0PlcmU0RYrRUL6ExPL0q3W4hoBSEFzDTV0VrxCQJ11+2fv71hMnX1/i3W/buwWG/9hfCD5RH8GmRX3e5XEePn6C1es34twFLtMr+QXEPcRoCd2OHt3meeLG6QCc3HpOrJZP1BaFQmLWqE91mLgsYYJsln3nXeSdbUkMiKVKFKeKitE8EyIng8phWh4C4ajhklHCVqV0iQT5NKhJR4+AUhDUE5LwEdBezj9/PQNTR/1B72sp0KVwC0XZqiUxbe2P8EnCL3g2nxvxP+gmdk9MnTkH129TeWEqvmMpt5xQBaSjFwLlH5D7YO3U7aK+g17dUjAHigqKpCAQyZLJMwGtnwU/p7NqjJK8Jl+q6ti5fTvkzZ2TVkSrEwW5HDlJLFrAs0fP0KpCH2w8N08qCJq6kPD/MakVKAQsCCgFQT0NCR4B/WxfyreuyMeXSoDM82dhIAsDm1C5XnkMHdsX+f3zG6IYtmQ+hFNKZBi27tyNvfv2I4QEZ4IPxoti1zl+g7mOvAnBDVN3ISSUFQHNYkKLzpAlHcq2Kmb5LIE9PTmyZUPdmtWRL09um5kbMQCEUlrs+sXb8Pu383D+1GVRjGn12Xl4I2825wJeEhhmarqvLwJKQXh99z7xrJxOhwt/X4mRA8ZrUfr8updESOwo96QXebjV6TBLjoz4dcW3KFginyVxgbuy4NesDxKcyCfK8HCqmnj5Cub+9TeVd+b+5HDQfO8WUh3p7nB8Io3/WyCIlAhLQYJEikP9d6rCy5csMfEu1sA2O8PaM8LWgZJFC6Nxw3pI7udnCHSpMHDZZy88efwMfRoOpUqZ5xFKChM/T2GeXEPThJpNKuOnpaMTI9eWIZxUp8SNgFIQEvf+vharY6HdqEBn3LpCbgBqRUrnw09LxiDLGxmF5WDuxL8xbuikCFh4IEmyJPhh/heo0qA8fDmgka0Pwp1MFgjx98gKglnw0/fPX74El5f+jxQGngObsPkStmJEjnlIeFvBSpU3CcjVk7dJfYDWVrdHZXglYftC/HIx6AqBtWKQOnVqVC1fAZUqUOCh042UAGKg/KznWKyau0kL2rRyJegeC7rhvger4JfSmOLh9DTUBQqBV4iAUhBeIfjq1jFHgAX22X/Po13FfiTUwzF9w48oX5Mj0Xls6WKonbMN7t96YHMzkcrIjIL0aRIKaGzWtT4+nziYTsfemvtBhqBF2awUCFYOTp89jzUbN+Lx02d0lf10wpivNm5HkOmOwIObj3Fw+XFx8/rvUYVG/otw5cSjJlJbacY0r/JlS6NKhQpInzaN/MyFBMwXz1+iaaEuuHfngXAnjf/7G2TPlQWHdp3Ad4N+Ec8Wx7rw89f7o7cwcEwfF+4Sj/BTU1EI2EFAKQjqsUjwCJRP2wQhL4Nx5OU6zUVgOflzoaZSSevLF7pVK1quIHLmzYW1izYIRcDEAYjEtV++hj8mrfgOyZIZo9SN5Eogd8dmilXYuXcvmaMtNRASJMgc1Me+Bfp/4NNg3L/0GG+UyCBYEuNTY1dOaiq33K1DB2QgpSCipHbF3VMvT3vcvnGH2CC9UK1pBUxaPlrjh+AnKRwfvPkltq7cLWBgVel40GbSF+IZMPFpk9RcEiQCSkFIkNumJk2OfzodeuL6xRt4078XFh/9nQR+9gjCIRyD2n2FTct2aYCZ+RGxloLLcuTNgjJ+DRAiajJYmhf5lzdd/QvpM5OwMUsbi0XBqMDhVMl9B4/gOLE0Pn2mlZs2Z8VZgikjVpiMn7trlR4oTuqxN0tJ08RZKHz695LFpHRWAsHyKMNO8+fNgzL+JVCscKFoUxTtzVTGm+jpiZbEVf7bhVOX0LpkT/Nl/b9+G30/7WblcaJeNI1V8zbgs3dIcaC/d3q/HT758T2ZEiqyJWIPHzWyQiCuEFAKQlwhre7jRgSkNYDdB639e4g4gnzF8kQKGWAHg793bWFVYIHgScKGPytdrSjmbP1JvMjn/7YU3w6kv5ubJ5p3roMxsz6jT2RcgfllT+/+cBIA7EJwtr0MDMSZs2exZv0mBIaEmOMVeJxwFoCxKHCdnau9/hZBLYM540ICsoIgE1Zp3zyYh8ADBfPmRYsmDYkKOYVQCvTAUKMBoZJumngu7jym+IJv8eOiEUjml1QoHDIGxUO4Fq5dvGmGocvANhj2wwDb50v0NWHTit0Y1OYLEcOy99EqKo7lqwIW3fHAqTHiBQJKQYgX26Am4RQC9HLmYLQXT1+KtLNWbzeWZ07xfrcI72Wz1+CLXuM0cW6JCzgeQjUHxAHeA5fPXUXzYt3Nt/fy9iJXxQYpsPmAqQnuKaPm4pdvZqDXsE5o27MpWR8otc3Jpoct6BUl9+4/gFsBd/Hs+Yv4H9QofPx8kmcuCavURycxcKY772XGDBlQpGAB1KhSBT4+rC44r5xZ3zPoRRAqpm2KsPBg+tgLex+spgDDpNJCocWllk/VCIEvg8yXpU6fCjtuLaE94rVrD4T4Ifk0Zk/4Cz989CsGfNULfT7vqGHkzEpVX4VA/ERAKQjxc1/UrFxEQJQkEskInmharCuuXNBrK8hQtbcHtceQcb3Fy57f8U8fPkPVTC1EKh9fM2PTeIpDKEHfaPUFZEQeulQbiH/3njArIJmzZ0StFpUxaFRfpOAIdhflFp+S2f1w684dHDl6HGfPX6DoeSmEROEpTWjJ0sksk6RZ3KSVZhbZEqKwEn8Xf8wQlpRPKy2LLTmagJXr4lwIfV1yrenTpxOshvnz5EHWzJnIShBNoKjNM6K7gMw+nCj3pFyqxgh6ESigPPR8fSRK7vJpGyPwWaDN6OP/+gZ1W1UTSoENBbN2u/GfTcXs/y3EkcBNWhCnDGJUTSGQkBFQCkJC3j01d/sI0Ev7yn/X0bxwVyvZSY4Bb2Dv/ZVIRpX6rOMISvjWoUNxOIqUKohFB6dqY1plMdB4JXxqmwWOFNY0HrEJjpnxKZp1aeCqfmCevyZnJOMfSa5Hjx5jy85dOHvxAoKDQhBCKXdSB5A9zZUSdF96PHkWbLggGBWWk8KqI03yesEoLxL8vt4+SEm8BDWpBkLxokWEy0Ca+uU1RmM9bJfuIPuEOjfM1wk3r94SOB4N3AhPL127k9gObP0FtqzS41akFcmL5rbs+EzkKZjLRvEQhbOFQuqBbrUGonSV4hj0LSmgMX4i4smGqmm81ggoBeG13v7Et3hZ7hnoXK0/ju47o5325Kdd3m+F4f/7QC7a6sRfwqeOOJGvOj4LuQu9QV9aTqNCZNAJvTgrEcL3bhF4aTOmw5YrC+HlQ5qHGwWCWVnQt4c+CCUF4dqNm7h+4za5JW7jZkAAHjx4KHrIM7gswPyqm+3cJcheXl7IliUrsmfPgjeyZhF/T58urTshs1q2VDDkdtg367Qu3QMXTlwSCsvx4K1W+y0vvR/wELVzvGkZUygsVN+DMlvmbP8FRUrm1awDusVGKjZhIeGolK4Jdt1ZSRwbXCjMRbPSq95EdX+FgIaAUhDUo5D4EOATvy+d+MULWtIss/g8Sqlo8pQqz+D86fPHT1E5Q3PKWMiArdf/svtSnzFuLsZ/Nl27ioPlpOn469+HoVX3RlSjgH3RctQn954gVYZUVkJHr2dgJbfsaQAuCBM+YXMqZWhYGJ4R/8KZCxdx7fp1XLp6FUFB5EMX1gbOAqBgP2Hpl7Eb3PTTuQfzKlv9bvMwWLMl6sGamkzkcTyZR4LvodU4yJYlC/LnzkWKQHbkpHLJ3qQYeHsT1RL9dLaJ25iZLaO42moubFl5SXEDX/X5Hw7vOoqNFxdJxUmGCVgaffhW1X44sf888Rpkwrr/FohnJKIwb1umJ84dvyxcT9bfs2Vj+IT30em9VuZrLFebEPQyBH/88jd6De2kghWd3XTVP94hoBSEeLclakIxRYBTGzcv2y6sAiw4+AXOkegf/6+/Jgp0kRGO65cD0LhgRxx4uA5JkieJLKbp4rq52uHOrftCUJgFK0nIY6Ebpf9fC4yU1STrCuWgTLWSZLF4E1UbViCXBo9LgliLgtMVFrlO/dQf+/5qnt/du3fxPDAYz7S0S45/CKQMCxMzQTJeEYRpxkwZxScs4jNQwCB3yJgxg1W/yMGhQrZzimI0xY/MGFgRTlkEsS1CUT0P3Ov+7YfYuHgLvv/4NwQHkvImQjRMWLB3CoqXLWhX+Pdt8jF2r9+PHHmyYc15LrYUWUF4+ewF6uZph6ePCBsRn2KrZJSqXBzT1v2AJH68t/IZk+jJDA/X6Jli+uSr6xUC7kVAKQjuxVON9ooREFHq6SlKPZR59OVrml/e+x6uJkFN0epCaFn81Ef3nsT4T6Zi5uYJdgVaaHAwyqZsQiEKPB5fK0d8e1gHDB7dR/6upbxxXAK7K0Q/dkdoVaJHzfoULTvX1wSNFvxodbR1JEydhVQXd9bjRnWP6O6tf2e3j25d58m5YEm3qAC2MQM3rwdg56o9WL90G+7de4xlh2ZEufwpI2dTZslsM9yS3lrWZEiSNCkOPF1jd2qf9/gOy+esRY7crCDMt6sg8LPz/Mlz1MrRjjIabAMWee6cMuvp44FPf3wf7fu11Nw80r1l0XlcAMbZzVb9FQKxiIBSEGIRXDV03CPwy4iZmDJqtqYaSBdDw/a18cO8L7XJaA4G7S3+Tf8f0W1AW+QpkkMTLrZz3rR8Jwa1/cJsjWBXAouBvfdWatkLUmnQUgvIglBTExYcl8AZFSYcJEGVJFkyObC4fRgGdxiJjUu2IVeB7Og88E3UbV4DKVInh18KrZ+L0Llb2YhuGrb34oXpAtrA5NkzQS6MLUt3Y+ywX3Hz8m0JD/v7PbmsNuNHDIWckhpFI68/ejX8GPu2HJJqILs6dCsP/fUnokeu3aK6tj/6ICb8MHwyZRwsJgUhc5QKgh7Lwnvbr8kw7NpwwGoWfB9ZyInX4EdWhHUXFiBNhrSaQmJtUTCAheqiEIinCCgFIZ5ujJqW8wjwa5lP8LIWgmYpoB/bri9BukwUFBepmTDhs98xaHRvm2+sBV/fJh9h94ZD5u/5HoVL5sffB6fZjkby6cbVm2iUv4u0HmhVIX2TeuPQE6JztjpMshD85avpmPrtXJtx2Q2RKm0KlK5eAiXLFUUZon0uS1HxFme2kKrmeIfIhnF5rJfFpqSpXddd9KOtdbVKY2ZwXaHSK13KKVswijwLwztHQMz43wKy4ETA0mqAJUdmoEDxPNon9lZsIiXhI+zffESumZQvQWVFv6Ql/oKt15dSlgJP2EJ4NXnULEwaMZsUhKyaguBoxibsWHsAQzp8iUCyUJmZL83Tkfdr06MpvvxtiNlqpVub5OjKmuAIZfV9/ENAKQjxb0/UjJxAQBoCpN/397HzMPHT6fK0r3ECpEqdArvotB+xSUY9eZ19XzkFAIaECSpmc3VG4eD2xLczh1NqI9d3sDQWmHN/+gvfD50sBLQ+r+ET+qNz/3YRhCrwz4INGN5tjNUITEQURgGPkitA8hzw3MLh7eODpHRKbdC2Bpp3bUhKQwkr54m15mHRH4QeYSVWZcAij8fCUsorw6JddLSimua7azeIkcWC5hROe8BxG1HFK3Sm2JHhFDsi/PoR4hrMv9P8GhRsT1aIu2J/RPCkmK4Jo6cPRwvCTA8i5WtWzVuPT98ZRzEIZEE4xy6G6GMmpDWBA0JNgnhr5dx1msDX8RRmD/osnMicvLFo/xRi9swt5uJBc5DIKQXBiX/Wqms8QUApCPFkI9Q0XEVAirmw0HCU9iM/PxddEk0GBe68vRypRVZBhCZOmzqbgP2X94WTF9G6VC8hUTX5SpH5nuTbXicEQcTWvdYAiqA/KYQJn2L5mv2P/hFuA90vrQvlfxZsJAVhtHkIIW9JkjTtXA9lqpbA1O/mIeDaHU14ccaAFOj8Z+T0YWjdtZEmtC0ZAvwdx2DM+HEBZo5bRFH9LwUGLHz5f2kzpkI1CpqsWLcs0mdKRxkGXqhYJ+pSyBdOXcaxfSdxYOu/OHXkvKZ9hKF4mWKo0bQSajWtDF8/HzG2K03YO+g//pxCqjlmIo6Tv2geLD0q4xDsKTTSmE/rpmJdjQt1xD2q2imjROSc+HudOVMGMHpg0/LtGNx2BDJnT4eNlzlzJXpVSWRq6AGv9JMDGAe1+xJ7Nh6WdxC1KbSAE81k07JrA4yY8pFIgbWJw3QFKHWNQuAVIaAUhFcEvLqtexH446dFGPfhr/R6lmc1E0ncdJlSYctNMjGLWzkhxDR50bBgB9y8JIW0PkLKdCmwM2ClndFMxMjYGk8ePtZ6exJDnwcOPSPaZqtofikUTVj95yYbBUFeZMK8XZPhX6GwECqbl+7AoA5fidMvCyAWRCzLjrzYSFYFqRhYm/pvXr2DlsW7kWIQQpYIOrnS6VUaUvhaTQRz6qDV7I+HbLHZCFnEyBOVMjbD80fPrdbO5bGlgCV+KPp7KKWMepMlpR5G/T5c4CsQNgyzPFfz/Bvm74hbVwPsPhBe3p4Uw7EeTIEd3dC8zMcPnqBW5lagg758BjQrStma/pi1cYJ5/LPHLqJdmV5CeThGMQ5G6zhYJijnfu2/G3in3mAEXJeWC46JEChoKa9+qZJhAe1n3sK59O11qJTaBUF9qBB4RQgoBeEVAa9u6x4ExKmaSjpXSt8YL56FCJOuPBCGY+S0TwRPgWFTujYlvX8Jn1oRJJ4HflryDWo1q2pXqJRNGrQ9JwAAIABJREFUXo/4BzjVTtrxm3Soj7FzP7VdqDb47AmLiL9/cgQQPLD77jIKVkwp4w5IeJ44dBZdqr8nLCQsfFhgHnlJ6ZVmMS8N4C8ev0CN7C0REhxCGRfS9O1HRYi2ByyHbxJfrF24CR91GUOWCDO5MQqXyY+/9kX2//MU32/5Cbat3ms1P08Uof53qQTyXSISkoqYHoxHlpLHqynlL5lx/cBq5IFvfo4tKy3MhbageGDWlvFkVfF3IMil0D5KdNhdqr8vTS5EWa1bDZb8Ow0FiuQThiW2spRLTRYYakeDNghFx5lmsShIJWTBL4vxHSmnIvREbJtm12D+CQJzzKzP0awzp78a1p6cmY7qqxCINQSUghBr0KqB4wqBHWv2470WH5vFO/vvk/j6Yt+Df+Dtq5vgnXk5m7B+yXZ82OHrCEtgc/VWu8t6eOcRCWhm35Mmb77bj3+NQL1WNewqCGOHTMLcn9m8bWlc32Hj5UXmD5h12ZM82Hs3HUbvxkPpcy/0/rQTBo6QpYjlnWSoIVcmXP4HBUNq8QH83bzdP5M1opgQ5Nxmfb8I//v0N/O1b/Vrgc9/HmxnPeH4a+oqfNN/vNV3JjTtVB/fzv4U3w38GQsmLTWTLvFfMmZNQ/78BZStkcTQtgsRKk76HphEWSeTv5ll9zqeeZt3mmLE1A81VKMaXnc2AB91HokNpBCF68WVSGBnJ86D1WfnkDIgCy6V8KG4B/p56AXVYnCWCVNT8nRrC6/j/p0H6FD5Xdwht5BgtqBn0JNwEZUvSUto2aUhRs4YrqkIzjyLhuBUnRQCsYKAUhBiBVY1aKwioL+gNeFYkoLcwkgIiPA+zcJbrWlFTFr2nWvToPHfrvUBDu0+ZnN92oypsf3mMrtjrv5zM4Z3GS3S3nSTxbHgyOZr4Y+mEd5tPhw71+0zj+VFn9duUwPjF46wa/F4t+XH2EEneqYGtjWJkyuBTsolk/IJ1dJ8kyQh98Za+sAquJDiM8qmaoIQIkpiM/iAr3qi72ddbZQAObtwXLt8E405I4NFuOZer1i7NH5f/6M4IQ/p+BURFO0SZnXpnweKETHRn0RQJLeHa0cYO5n/+dsyjH7/Z7qI0xtthafcT09a9yaz6d7RpvL8KqZtTrEC5CLRTvRcbmEUneSbU4wHb1Bxn5r0lTcOPllLFMpUotnRoBG/t+K+0L/i+7Yr0xtnT1wU99CfRd0N1ODNavhh4TfmAE9nb6n6KwTiGgGlIMQ14up+MUZAvnB5GA+sWbSZTOcjtRQ3jbSIvtlzl3gK0qRw6V4hIaGomKYxmesl2ZLePv/pA3ToxxS74tY27cve32PJrNWa4d8k0iq33VgcuaMmPrnk8AsKdrMIF2D0zI/RkiPurVMQtA53bt4TjI4RYwb4ay7mVDYFXWc1Vw6MZHIoS+NASw86+S/BmMEUq0En2wlk4agb0cIhLpAivnTSBkTjHKL95oHsebNg7VkZ9c99yqdpQml/zMKo0VGRJvH3/qkoVJpqFTghcjev2IkP2nyhDcsaVGRxzcGeXGTLaLt24TqaFOmiqZCsJFEMAw298+5ypEybEv5J6gr2yH0PVlK55xROzFbCI+JBxCqt5ypx+4yImFb8QZkO7OZgFkbhcuCgWWD8om9Q703mZlBNIRD/EVAKQvzfIzXDCAhYaGhMqJ6lNR7eeyQC63QByfnv2yl7waVGL/HT/55Fhwr9zOJWPwH+c2Yu3siXLYJQkHepn7s9bl2/Y1YQ3h76Fj78rl+UU/D35gJRFuWDO1pOsxEEpGZ2aFSos5WA1uQp/QixoyAkoVPxgSecjqcF7ImfXCsgGOVTEzMkWRNmbZqIcjVKWs3RNlqjcvrmePbkmbAYsKzLlDUTNlz5U2DNn104eRlvliJ3h9U6pJtkobRb2FF07AFybM9JdKren8Zl879OPW3d0wPVm5FFaCmnhRo76/NKfiaOi2nfk0IjBLRMzfSvXBTzqOCSrNXhSTUbFiLzGxkdUkNbz2bqd3PR++POcq8jTUdabHo0/BAHNh/Wgkvlmtj1lYyKOO25v1pkkKimEIjvCCgFIb7vkJpfFAiEY/3iHWTqJpOtoDPQ+fI98Mf2n1GqcjGXkRsz+CcKPFuuWSXkyz0VWSN20elTUvnatkAqElQ+dWOpn2jC/HjwlihM4jJlUqb2WZqJhO7x4I1Rm59ZyIm0TNv7s+ALJUtHmeS2vAwsgI683GA+/Zu1HRJoNbO1xoO7jzB7688U/EdETHabCfVI6Qm4cc/8Ld/7WAiZ+qlpNANoVrwrrpy7zhvAixeCdvnRWchbNLc9Q4DdO504eAadKnGdDOmusMFFMyj4UizJoeccnOm4CTVHnPLJbZOjDe5RfICId9B4JSatGof3mn0sIPn6tw/RpmdTbVBjyse8X//GrWt3MfTbd60UBKlc6SoW/2xRohsun7luSYPU9nDk1I/Q+p0mjheieigEXjECSkF4xRugbu88AlIAmFA5Uws8e/TMZgBmLtx7fw2lGPIJzdgL33YG5M9PVg/hlDWg8/rzzyr1y2LK6nFWXYU2IEzHF09fRiv/HuJ3KSTCcUKkD9q//x1Ki6uTu4OZzIkHTZ0uFaVPsgKiSTajU6fuXCeiZFJWEGwtEqtO/YFc+al8dYSxhr71FdYt3o4VVN46j56CZ2cbRg/4CRwfYM0XcYSC+rw5qE+ThKvmr8cn3b81X80fd+rfGp9MGGgYfVYQOlZ+zzx/Vm7SEU9DALlVLFM3YemRmchfPLfVOh2ARJM5e/Q82lYgLguRhsiNIg98KPSTSjPz77WaV8LPS9gyYWs9ie6pDA4KFhVAf1k2GpXqlNO0EdZtbOcTSNaaernbUvrlU5vhMmRLT2XC/3b+wVdXKATiGAGlIMQx4Op27kHg0PZjeLvuoEhCsXm3BhgzXc9ocK1CYgkfMj9rEWbSx2zCj8TrX69lBN+xkDjhGNppFNb9vVk7VXuifd9m+OLXISKCXbo+bNvvRII08QsuHy1P3Nw+Gvcuug/pIH+PWFUxWsgkU1+XKv1x/MBpS0+yqLTp2QxfT/4o0tVH959E1yrvY9mJmZYcfTv32Ll2P/o1GyaEqi77Dj+nqH9fH0kcxWZ7+qIk+fPDwzgokVMfSRATUYIIKrRjbbG3lBMHTwsFgcfi9TPnwSdUUnl0/4ka94PEpDllAowhFkt56+irRfK+SLIkD4zo8z0Wz1yj7YdWaZF9JhSDwGmxRwO3OMmFEI5JX83B5DGzsPPWMqROn1oEp0a07vA0L525ipYlusoYBK3xDI6KYFP3/FtQoygEYgsBpSDEFrJq3FhEgE/5xJoYGqoJAcuttlDdhQyZ0wjB4ErTKZD1s7gQMfQmPyYEntWY2oGTbQj+ooKj5fX/96FpKOSfJwoBGY76eTvg9jXddM9+7HAcJjIg7yTESmhVa8Hw/ElYbl+7D/1bfGJzCXMmHHi8lgQ6ZxNYn8W5LHVtkZGRNgNjZb8Fv6BKlqk5+FEqSdx4vKScymgVd8DuFa5RYOnFZE4bpKXBQLtz4z7qkjsDRL4Ek5e4bhdZU6pkaq5V5ZQKig/hs5cCL31oXfLAH9Ue65YcmQIaEhqMOlSV8dE9OsmLSyyWFsm0SAqCk89LSAhh49cEqYg4a/1/84kt014ApYyWYYbNI7tO2SAh2R3txTAYAEx1UQjEEQJKQYgjoNVtYoqAbnoPp3z/9fi851gro7AmKOjH8SBOh3NFOZAuhebFuuDyuRtWQlGKPXvZAyJ4kf4nA97kaTUJuTj2P1pDBYKitl5wvEAwZ0jQkjwlIzSdYjdGusbZOgdVM7XE44dPNFEnawN8SZaMdr2baYLRgktx79pEQ72MKhCmjnZjinvXEt/r5nMW0MkjVJwcS1kRc39hk7m8J99s1taJKEuU0UbanZukIORqa+7KxEX/Bq1H00JdcO3iTfG5nrmylrgWsuXJauXtN3AHxnffKXSuQW4Mro+gWT6ktYb2luNFnFAQdGfEFz2/wzLKVkhHCikXBJPNEocgq3l60F6HUpZJA5uJrjozG7nykfvHifsaWKnqohBwKwJKQXArnGqw2EJAvszplcusiema4eXzl9Kkq9EP83czN45HuZqlpDDhDwzrCTJwkPWKimko/ZDGtm5M1PP1VCYqitDomj8m/oVxVKDJg4UBDVCjcSX8usLik7d3Uakk9RBG5m1OO+SiUkmS+hKdsMw4iEnbuISCNomaWSchEhDQPY6GEh+D2cUu3RoVKEVx46VFIvYhusbuFimcZYbBrjucJpjKBtrT5OdvX66PdqqXlMP+5Ytg/u6ITJH27xRJQaBbsdl/P9WA6FFvkFk54e0sWrYwcS1Mckmw9m70oSCd4mwCT5HZwI9IOObvnYrixOHgxAMj4ky4+RPhErd8XDPiyO+aV4XTbTWeSc1d1JiUnesXbwkMhQK1hRSoasYUqJg8E+pahUBMEFAKQkzQU9fGOQILJi/Bt8TkZ2KBJUr2WUIDJTGRPJFL/7ixGAR+2bOycfPybTQs0DHSmrjiX448WewKkA7l++LkkbPier7dHEqhK1mpaJS4cB2ANmV6mNMyWejVblkNE/8eGWMsWeTVIjbHBwGPNJ+4TKXrOKAVPhk/QCpUGmAfvz0SY2dr3ANR3ZlwlNYRS5u+/n+oUDtygScus21mBhJC0IusLjLjwVGLqCB4e3nhMFlUuPmbFRRd26NsDzGu8aBCvStfUSZFfYRRWqhezInv0YIqc46eGYESO9pJS3prVro+6vwN1v5FFghSCGq1qEwBj0SWJRRUbhYldeJn0zBt7AJzYOqR59IFI0ZyyeLlCFX1vUIg5ggoBSHmGKoR4ggBLrvMAsu2dC6fWEPRqG1d/DD/M3onO59fLl/3JiK32UCUxbbsi/zdvof/kFk9eYRVhhORUjiVg6ZYCGYAJFY+HsOeK8L6woWTluObD8ZLhUKErnli2Pj30GlAG/Mp//mzl/hx2G8U6DjYSTd1OK6cv4lmRbvR2GFaYBzdgUIBmDgqWYqk0rJCf54/f47kySOuKcISSQD6JyULgtDDpPvgi4lD0P695pF2vDilbeqncj1mwREW+iARFQSe4vEg8tGTBO7f8nNsX60xTopiB8AHo3qh58edtLU49/CtW7wNH731tRaFIOw+yEBulm23iDqah3IY/Gh7vytEyNS8cHetkJUJBUrmxuL904k3QlcOpCIz9yeq1zCEi4lxKicrOVukcmDczOXcQlVvhYAbEFAKghtAVEPEAQL04u7f+jNs/2dPhJvJGAHmPihdOaqcfsfz49f48K6jqcqiba59FiL+WU+meFFRMcLLfM+mQ+jTaKj4lF/2FeuWwe9rf4z2ZkNIOG2gFEPhMhHVFj2Ij2AiylTxx3OiBl41dz1GEe1w96EdMPQ7Nts74SohAcrm8yHt6R7LtmtxhPIs2+StOhj7BytQvFJJdOTw5Epd25XvgzPkQtCF/puUvz+C8vgjNpH5IZpkVeS7iEqJBgSgvRgELqLE7fS/52kOvcVceeos0LPmzIwNFxa4FGvCLqqKGZoh8GmgdsCXc112bCbyFc4tdlLHyPFTI3s0KtgRNy7dFuKeizMVKp2fLEk/UzCnrzRnkUJgKUjlSe6IHFTCepaGqTOODaMzUv0UAu5BQCkI7sFRjRLLCBzfT0Fm1YhMh2h9rSPo+bbJ6CS87yGXYHZCmNqZbw0iEHpIBELWrXnnBhg9S2YHRAxpGNDyM6p4yAoLfxOGrTeWIj1RLEfXGlFp4xtXblMXaQcRoZFUiIErLoY8D6ICQxxXEUrpiUMpTTHyST16mOVpNTSEiJP8GtNYwbJgkDb74yEbpWldfiA/jca8zUrEsK5kQl+4jXrKOI3C/vnx9+HIFSCbF+2Ky+eZMEl0JZnoQRkP66h4k4/DJyOiguBBkZvHONiU8SGBXiFtEwRT/QjddM/TX3p0BvKT39/pRhd/1XssFs9eT0gQ+kwTTVK9NqWwTvx7hJ1ddoz4wa2H0aM+F5NifYCUBII4iZ8Pvpk2DI3b18Vzyp6olJUputli5IFlJ2chd4EcQsExHCbj9ELVBQqBmCOgFISYY6hGiAMEAl8GYhBVV9yz/iAJDTbpa42OlWWrlqSgrwkxMtiGUc2BUklt6xnwHUZRBT6uxGd7kJeCWPjnxV9NRKGbBPsoe0EKXPuv/UASchVScvlpqVCI0zZda6LUPj14TcRO0G9zdlIsQ0VmgzTua5cma9n2bZQVILkiJM+PBVO6LOmx9ZqFoMeIFWHKmDn45auZYh56IGdk14EJg9t9jY1Lt0kuA82msuTwDBQo4ViI63UmdCsFr+GYIJqSp/sPKfCSAzD573rxpjY9GuHrKZEtGY4eRR4x6GUIMV9SVkG4FyU1UHluzmyggY+RAiUzYIxjLufoQc9OfcEFIe0nMgZD7Kkwe5DFRtB9AuP++BJNOhLNdpRPiaMVqO8VAnGHgFIQ4g5rdacYICBFhYkq9AXhl69nYt7ExfT6ZTIcE9acXYAceZ1MfYswl6DAQJRLyfS3Vsdr+m3NuXnIkTub7C1e8jIv8eyx/9C2HDH0yRqS6EXc/ING0u9RHQlpWCEIKd9fRLiLqo8eyJYrM6auHYcRVFr5wOZ/xfU8Ay5VnTxlUpfFCAv/poW7UpogpWyatRtyxWzTXDFino7F1KZlOzGo3edW89CDBK0BNGECBeFNH0dmfw0AJon6afEo1KEATEdNUFWnaqTVLZDxIBxwKoV1OE4duoD2lftaGY5kpoQovS22y4C7RJuEpi+hapZWePLgsc3Uen/SFQO/ecc5zAV9sgdmjJsvMOD1C8VLxIPyZkqXRUZyVU0hiucCxXI7N74j8NT3CoFYREApCLEIrhra/QjIjAN5Su3b/GMc3H4chx+vkpkL9FZ21WT7/OkLkT5prSB4UTT9kUAyRQuaXn7R67yKQNOinXHtLKWtsdOZ2t67JNDTRFNtkCa4fB7xN7xDQZD6UZyUi5KVCmMuZT6wkDlGufrdanyApMnJGkFVBo15p6MW8uyW6ViFKYwtI+WjGglLj80yjNOhHUfxdh1mrJSNhd+J0K0RNjYcP38xE1zESJy/OX2TBOSEv0aSglDVwENAwac+9YTJP1wr9/zPmTlEE51d02HCUdKrDh34bd0jshplde0MbyxjRZ/M7g2H0LcJWyAsCmHyFCmwh3D30BVBAzPXuzx+8ATViIfCRO4RrpTJjSmj8xTJSTEmPyFlquTimWWKcNd4OpyYjOqqEHATAkpBcBOQapjYRkDPW9cEojiFm8+rmvRyMQaBhhT0w9Xe14zacrikfkkEc6AQjPL1Ln6GBIagEvnFQ0Klq4MrGG6gCoZSOYmookhLAQsFjqFgJUDmYrL1wxODR/VAj4+7CKWBxz+y+4QoF7z67BxtLEenfJqRoGCwXbsc3QO1c1GxopsPpSAU0tsDK0/OFj5wmWIXvWA9I4IE6fTOvTXrO5v/I65yzk/EB/Ghznsgc/2HMn30YGJINNA4yFErGi2unb/7FxQnLgWZZ0CZHhQLsfrPrVL4anNOloIUqYfk1jFgCYk4Ba5SydUqrRsj/b95X6JBO5qLYU3Tsj8dK/XDiUPnkCZ9SvT7rBs6U2aKqGOhsWNK64WLz6gBDFUXhYC7EVAKgrsRVeMlOAT4VLx73QH0I4uEdUuVmis40kleFxaauXjR1JUY2X+C1tUDf+6ajGIVCkWzbqlecE6/baOAtWMzkK9ILu10yfI7HM8fv0SK1A5SEPWBaE7BgaFYs3gTxUo0Mg+v13g4uO0oejQgC4B2MucOSUjx2f+YBKs4zEYvCa/+d4NcFd1If5HpeSyMDzzR6JbNcwD+oeyP4V3HyJgK7fOPf+yPLu9bGBKjezBEdUsr8qIJf5F7gqwD4jOa44vHz1EpA1ddtJ6viZSduchVILvDdVimKhUxjs1oWqiT4L5g0ipujEWGrOmw5epil57hFcTwyTTU9dpUp0BFVmSMUU27dDN1kUIgDhBQCkIcgKxuEf8RuHbpFhoX6KwFDcpDfkk6wc7d/auVUAonYQJUFkyOL4TA9CGym0NUwMjRgZNP9P5EbxxRIIuAP83s7FJePCs3mw6K1MmvJstIekuTwlqy/VlM6Swid1DeP9MsO5r3w3uPUSNra1HoiIUz4zJ/1ySUqFDE5k4/ffk7po2ZL/ztsnmIrIA6EQtcRfEo+PvUpCkScZAw74ej2wcdUL9NNezdcESkbJ45fonsCMw+aaXUkNLTtFNdfMfpmwabGWMa54ePJ2P2eEphlaYV+q/kelh/aQGy5GBiLBeaptA4y6fgwp3UJQqBWEdAKQixDrG6QUJAIPDFS4ps5yBFTZaSzKjetAImLRtrnj6fyv+ZvwmfvD1aCJNwImj6bMJgdOzfgvpEZ6o3YQ9lFfShrAKbRgLueKilCJQQwsJ8bpxAh+e0hk7vf/62QgQg2mtf96NqhtNXW74iIV61fiX89o8tKVTka9k94mlmU2RzOUfkf/7TQLz1HqftWdovX87ElG//0HCgOBFa2/glX6NuixqGtr9cyoYICgyivnrqn+RqkBqMbsaXSorVQuik7knWkNWUTkmcAwabTsV9eNcxdK/9gcW1IbgpqPQ2UUnL0tuuNUdOIddGVVcpBOIeAaUgxD3m6o7xDQF6o4dRPEEpKqJk4hLALKRJWPQY8hYGj+tLs5Wlg0NDqOhOMkpTZL8yHaV9knhRUNtq+HqTKTmao7jgE9BKQlvO8QwCKQhc1c+OD12PtrcqohAFaib8/OV0LJqyAjsCVsg+ESTUyUNn0bESByvKIEC9/gPHVzBfgaNWOnkDhAaHUDd5wn6rTyt89usH2mUy/XEwpSJuXrpDu73st/LUHxTrwAWJHDeuDcH1NSSQnvCmktH5S+ZDhz4t0ap7I0FLfOYYZTOU6avRSPM6ZS2OHxZS3EBrskCIFMtotyLSREokoZRD8jfoDJOyQzj+3ENuo3LkNlIxA443T/VItAgoBSHRbq1amLMIcFT77g2HNQlrQuW65TB1zfdC4jD3QvsKfcnUfUErxOOBMdOHoXm3hg4Dzzjzgul4r/zHlQmlv5tbXoo9WE4ZBfaaNKUbczr0ajIU+2jeeykCP3nKyLELL4i6uULaplown343ip3YR0KwTHSxE7Jv1Uwt8OThUzP7YvUmFTFpORek0qIW6W+dqw3A8b2ntVAHFtM67bRjBYTvYa0g8NUpU/qJjAJxDz0ulf5SJX0zPHvC7h19XEl2dJwKUnE/jlcwdke+KxWtStUUL4ljQzbGWyoLmTjw9OJCcR8DOpSzj5rqrxBIEAgoBSFBbJOaZKwiIAQLcIMEeKMiFIfAv9OfFCmTYTcxNHoS6c3gdl9g47Id9J0XyyPkKZQFK45zWp8kxok6G0BG4fsnqUVKhm1QYPO3G2DMNMnSGKnRBMJoIl5C3EUv8tqVJTrkY+ex/sKfyJIzk92Avdo52+HerXsiBZGVFP7vx+M5iLBdlNDKQEcTmhSSfAp6/ESR0gWwcN8UcZ0gRqJupZLVFuuTcpYj9Zl4aJNhYW2jIAjlKBwHHlEwZHLmguAm3QvvNv8EO9dQbQbWGzhoUpvjAjrxFy9XWOtnPOWxcsamePaILRe2th2+wYbLhGf2TNp3xtWOWH1W1eAKgThEQCkIcQi2ulX8RMCSwghMGzUXP389XQgjZj/oNvQt7FizB/+duqIpDhTpni0d1v73J5L4GolSN+HUkXPoUOHdSELo+3lfoVH7WpFB0U7MfCqfS4yK0Yom6luCMgD4kq+nDULb7hQPYeeCng2GEBHTUeEe0aQ4mnclBWVGFAoKz5ZTL0nQNy7UmWoN3JIxAdSy5KDTNdWnMJvzKXaihG89uoAVJVmCytuHUjZf2Na1iG73rRUEduiwYsSpo3ySF3YKMRfg9o0ANMjdSdybyZL0CpVFyRKycN8k6kdKg2FZbsKoAROxcMoyGs0LRUvlx5s9G6M9uTXMrhdnfRbx8xFXs1IIuISAUhBcgk1dlJgR+HfXSfRsNIjSB81HYqEwsFRKlzk1Vp+ZR6b8aEiRIoAz438LMX44cQRoPnP960X7p6BwqQJmc7mwXPDhmzrwib1x4S44EbQlegOCUBBqiyFzEynPiqOzpX4QQUgO7TiCyhJv1YSnPGE3bFeTKmB+GeVWStlowlsV++Hk4XPmfl5EAPTvSxL+OukP+fDZly8CLAWfgwnvj+6J3sOI38Fgi2xB8MDkf75FtQYVbEegSfn7kjVGq4Zp/pKAW0H8DnkKUY0D0YxoCSbcvnoXx2ltleuUQopUKcT8hZPByOUG16a6KQQSKgJKQUioO6fmHTsIWJ0YT5HZ/steY/Ew4DH8iCVx5OSPUKpKcfPJ2tgEwoleuQPu3iDzfoQL1pEVIusbbMLWTPVCrNH5mXwYbcr1QKasGSjTYJxDYVfcm4SzcHNw0KMscmSbVWHC5G/m4tdvZmqCT85k4De90PuTztEug0/unYiN8cTBM1b9PLDz7nKkTpNSKE1/zViJb/pSFUtNqHIGw6GX60UKqNFmqyDItbTp2QRf/xax3kIYPmhDAZErdtkOTdqVf4ViZHH52WxVcHhvXSEzK2YalbbDC1UHhcDrgYBSEF6PfVardAYBnZdA+MLlhXrQoGUYY0dMPo/6+7AAj9z23FulESJpQQ/CPG/C6Pd/wsLflmMcsfo1Fi6I6O9VQvAcSMbG7beXIm361JEumTRyFiaN+EMEPspgPE9MWz0WleuXj15BoJ7v1PoAh3Ydt+m39tx8ZM+dVdynasZmePLouRiTFZz0EYpCGYHeJotBUkPC29cHR4hjwrqx++Hk/jPoWPU9G1Q0skJsoWJUGej+zjbdWuIIa2fHVf0VAgkZAaUgJOTdU3OPlwjolncWxBdPXkWrku+I6HohmImRUA9olFURJddL77cLAAAGJElEQVQAS7sQSiVsXvxt8vdzOehwHH6+QZ7CHegibEHw5IwHsjy82acxRpClI2Ib2nEkuRgoaFDjWWAVYffdVUiVhszqDlq/ph9j1/r9Nr3+pCDFYmUK4CkpBtUoy4EDNyXRpAkjqMrimz30wlfGFKkKaRpTmqNW0lmnjSZFQaaBWsZgQf6C6mZUTteUUjYt9NecasCWi9QZ/LDzltE6Fo5Wrr5XCLzeCCgF4fXef7X6WEXARAF+XXD94k0teY6ZANm/LXkCchV8AwWoeBLzK+zbeggvXxDXgLD+SxfA0cBN8PSKPiL/LHEDtCnTRyoI9L+MWTNi09VF7EUXY0iyITLXl3oH549fkbKW/jC987JjMw2t3p6CMHb252hMZYsHtPoU21fvF5YDdmukSJOM6KlXOdJpIt23bIoGCA4KlUoUzY9rYDEKO+8sRyoiLpJFjuRl/Hk9qooZcP2+uG+ajGmRMUs6pM2UhkINPSlYcwiy5STrhmoKAYVAjBBQCkKM4FMXKwSiRoCF86Kpq3DrWgAe3HqA0xTTcPooBfuFU4y+TcVAFoqWKoB6GMTRoA3w9Izej7924RZ81OUbq0l4YM72n1GqcjGzgvD4/lNJl6ylCrIiMXXt96hSp6zFhxLNRkZWEDwo+6I23nq3Jd4mJkLhWhC1Gjyw9NAs5PfPKYS4lOfGLAjFKdBSQGLuLt0tg0f0Qc9PO5JWwON7UQepiFy/dBNhIWHITBkVSf1kKqQglhZ6hBbpqR5OhYBCIEYIKAUhRvCpixUCMUMgNDSECkVRLYWl23Bwxwk8uPMAL54x5XA4jgWReZ1N51HewoSxH/6K+RMXk4lflsDmk3bGbGmxmawInLrHSkGfxsOopgETQJEFg/qlJrfCzrsrDApwE5VFHkYEUgdtZiGzLaR7hMfkE3/3IR3w4VhmnnSuBdy8RxaBtqKsNheS8kvuR4qRCb5JfSkGoy4+GNNLiH9btkPn7qF6KwQUAs4joBQE5zFTVygE3IeAdtS2xC2E48blOzhFZZbrczVD7cQc1Q37Efvjrg0H6GudZpjLYJtQvUF59Pm0O6ZSfYQdaw/Ib5l4ycsbW64vQer0qQTPg+MTPmUxVO2P4/tPR5qCZIqQzJBtezXDl5OHmF0bzgAUGhKC8ycvk7slDwUmspXAKuZA4z8wXp3CmTurvgoBhUB0CCgFQT0fCoFXhoAWk6CZxK2DGzVOIikqo0zKN6F2jva4d/uu6EJx/ySuyRQv5D7HLjCPA5+72bLAFnovIniai8zZM1B/EsTm4lDRA9CiRHdcOnPVqhOTFpFywMNTzYRflo9DzcblnaQ5tr0nl18Wa7DRWThngTMjuMksDUVQ8MoeVnXj1xABpSC8hpuulhw/EIh8frdOtjMn50c72b2bD+IluyRIul45fx3nT1zE5bPXcOPKbdwPeIBkfn7IWSC7SJfsOayj8NNL9kFj1gNWMIZ3HU3VKA/hwb2HYi5s+i/snw91W1dDdyrLzMRJooBVTAobmacT1byMzDd+7KuahUIgsSCgFITEspNqHQoBMwIRsvqZHZAFuGHFQA4kyyLz0d5OJoW4hbFiUmpjFAIKgYSJgFIQEua+qVkrBOwiINMatUj+CD30Wgp60SUjEApXB6UX6DUP9PoMMhHTEvlgZCzVRyGgEEhYCCgFIWHtl5qtQiAaBHS3hD1zvHVJKmOph5YbMcGTdX0Cq/EtgRNqZxQCCoFEhoBSEBLZhqrlKAQUAgoBhYBCwB0IKAXBHSiqMRQCCgGFgEJAIZDIEFAKQiLbULUchYBCQCGgEFAIuAMBpSC4A0U1hkJAIaAQUAgoBBIZAkpBSGQbqpajEFAIKAQUAgoBdyCgFAR3oKjGUAgoBBQCCgGFQCJDQCkIiWxD1XIUAgoBhYBCQCHgDgSUguAOFNUYCgGFgEJAIaAQSGQIKAUhkW2oWo5CQCGgEFAIKATcgYBSENyBohpDIaAQUAgoBBQCiQwBpSAksg1Vy1EIKAQUAgoBhYA7EFAKgjtQVGMoBBQCCgGFgEIgkSGgFIREtqFqOQoBhYBCQCGgEHAHAkpBcAeKagyFgEJAIaAQUAgkMgT+D9lLbH5vlYUhAAAAAElFTkSuQmCC;" vertex="1" parent="7">
                    <mxGeometry x="540" y="90" width="220" height="183.19" as="geometry"/>
                </mxCell>
                <mxCell id="15" value="Check age" style="rounded=1;whiteSpace=wrap;html=1;" vertex="1" parent="7">
                    <mxGeometry x="17.5" y="260" width="120" height="30" as="geometry"/>
                </mxCell>
            </root>
        </mxGraphModel>
    </diagram>
</mxfile>